<?xml version="1.0" encoding="utf-8"?>
<!-- Generator: Adobe Illustrator 16.0.0, SVG Export Plug-In . SVG Version: 6.00 Build 0)  -->
<!DOCTYPE svg PUBLIC "-//W3C//DTD SVG 1.1//EN" "http://www.w3.org/Graphics/SVG/1.1/DTD/svg11.dtd">
<svg version="1.1" id="图层_1" xmlns="http://www.w3.org/2000/svg" xmlns:xlink="http://www.w3.org/1999/xlink" x="0px" y="0px"
	 width="47.765px" height="46px" viewBox="0 0 47.765 46" enable-background="new 0 0 47.765 46" xml:space="preserve">
<path d="M2.521,25.2v5.052c0,2.088,1.692,3.78,3.78,3.78s3.781-1.692,3.781-3.78V25.2c0-2.088-1.693-3.781-3.781-3.781
	S2.521,23.112,2.521,25.2 M37.271,34.833c-1.267-1.188-1.984-2.847-1.982-4.582V25.2c0.002-3.461,2.796-6.271,6.257-6.296
	c-0.646-9.156-8.281-16.383-17.6-16.383c-9.321,0-16.953,7.227-17.6,16.383c3.459,0.026,6.252,2.836,6.257,6.296v5.052
	c0,3.48-2.821,6.302-6.302,6.302C2.821,36.553,0,33.732,0,30.251V25.2c0.001-2.509,1.491-4.778,3.794-5.777
	C4.184,8.63,13.057,0,23.945,0s19.761,8.63,20.15,19.423c2.303,1,3.791,3.268,3.795,5.777v5.052
	c-0.002,2.047-0.997,3.967-2.672,5.146c-1.672,1.18-3.814,1.474-5.743,0.787c-2.38,2.506-5.33,4.399-8.601,5.521
	C30.814,44.1,28.85,46.007,26.453,46h-3.758c-2.445,0-4.423-1.966-4.423-4.41c0-2.441,1.971-4.411,4.424-4.411h3.756
	c1.592,0,2.984,0.831,3.763,2.086c2.651-0.935,5.061-2.448,7.054-4.431H37.271z M37.808,25.2v5.052c0,2.088,1.693,3.78,3.781,3.78
	c2.087,0,3.781-1.692,3.781-3.78V25.2c0-2.088-1.694-3.781-3.781-3.781C39.501,21.419,37.808,23.112,37.808,25.2 M22.697,43.479
	h3.756c1.061,0,1.903-0.842,1.903-1.89c0-1.051-0.847-1.892-1.903-1.892h-3.756c-1.061,0-1.902,0.843-1.902,1.892
	C20.795,42.639,21.639,43.479,22.697,43.479"/>
</svg>
