<?xml version="1.0" encoding="utf-8"?>
<!-- Generator: Adobe Illustrator 16.0.0, SVG Export Plug-In . SVG Version: 6.00 Build 0)  -->
<!DOCTYPE svg PUBLIC "-//W3C//DTD SVG 1.1//EN" "http://www.w3.org/Graphics/SVG/1.1/DTD/svg11.dtd">
<svg version="1.1" id="图层_1" xmlns="http://www.w3.org/2000/svg" xmlns:xlink="http://www.w3.org/1999/xlink" x="0px" y="0px"
	 width="32px" height="32px" viewBox="0 0 32 32" enable-background="new 0 0 32 32" xml:space="preserve">
<path d="M11.427,0h-9.14C1.025,0,0,1.026,0,2.289v9.147c0,1.262,1.025,2.288,2.287,2.288h9.14c1.261,0,2.286-1.026,2.286-2.288
	V2.289C13.713,1.023,12.688,0,11.427,0 M11.427,11.437h-9.14V2.289h9.14V11.437z M11.427,18.274h-9.14
	C1.025,18.274,0,19.301,0,20.563v9.147C0,30.973,1.025,32,2.287,32h9.14c1.261,0,2.286-1.027,2.286-2.289v-9.147
	C13.713,19.297,12.688,18.274,11.427,18.274 M11.427,29.711h-9.14v-9.147h9.14V29.711z M29.714,0h-9.14
	c-1.262,0-2.287,1.026-2.287,2.289v9.147c0,1.262,1.025,2.288,2.287,2.288h9.14c1.261,0,2.286-1.026,2.286-2.288V2.289
	C32,1.023,30.975,0,29.714,0 M29.714,11.437h-9.142V2.289h9.142V11.437z M29.714,18.274h-9.14c-1.262,0-2.287,1.026-2.287,2.289
	v9.147c0,1.262,1.025,2.289,2.287,2.289h9.14C30.975,32,32,30.973,32,29.711v-9.147C32,19.297,30.975,18.274,29.714,18.274
	 M29.714,29.711h-9.142v-9.147h9.142V29.711z"/>
</svg>
