<?xml version="1.0" encoding="utf-8"?>
<!-- Generator: Adobe Illustrator 16.0.0, SVG Export Plug-In . SVG Version: 6.00 Build 0)  -->
<!DOCTYPE svg PUBLIC "-//W3C//DTD SVG 1.1//EN" "http://www.w3.org/Graphics/SVG/1.1/DTD/svg11.dtd">
<svg version="1.1" id="图层_1" xmlns="http://www.w3.org/2000/svg" xmlns:xlink="http://www.w3.org/1999/xlink" x="0px" y="0px"
	 width="32px" height="32px" viewBox="0 0 32 32" enable-background="new 0 0 32 32" xml:space="preserve">
<path d="M11.43,0H2.287C1.025,0,0,1.027,0,2.289v9.149c0,1.261,1.025,2.288,2.287,2.288h9.143c1.262,0,2.288-1.027,2.288-2.288
	V2.289C13.718,1.024,12.691,0,11.43,0 M11.43,11.438H2.286V2.29h9.144V11.438z M19.447,4.57h11.409C31.488,4.57,32,4.061,32,3.427
	c0-0.633-0.512-1.145-1.144-1.145H19.447c-0.633,0-1.144,0.512-1.144,1.145C18.304,4.061,18.818,4.57,19.447,4.57 M30.856,9.149
	H19.447c-0.633,0-1.144,0.511-1.144,1.144c0,0.633,0.511,1.145,1.144,1.145h11.409c0.632,0,1.144-0.512,1.144-1.145
	C32,9.66,31.488,9.149,30.856,9.149 M11.43,18.276H2.287C1.025,18.276,0,19.302,0,20.564v9.147C0,30.974,1.025,32,2.287,32h9.143
	c1.262,0,2.288-1.026,2.288-2.288v-9.147C13.718,19.298,12.691,18.276,11.43,18.276 M11.43,29.712H2.286v-9.147h9.144V29.712z
	 M30.856,20.558H19.447c-0.633,0-1.144,0.512-1.144,1.144c0,0.633,0.511,1.146,1.144,1.146h11.409c0.632,0,1.144-0.513,1.144-1.146
	C32,21.069,31.488,20.558,30.856,20.558 M30.856,27.423H19.447c-0.633,0-1.144,0.513-1.144,1.146c0,0.632,0.511,1.144,1.144,1.144
	h11.409c0.632,0,1.144-0.512,1.144-1.144C32,27.936,31.488,27.423,30.856,27.423"/>
</svg>
