<?xml version="1.0" encoding="utf-8"?>
<!-- Generator: Adobe Illustrator 16.0.0, SVG Export Plug-In . SVG Version: 6.00 Build 0)  -->
<!DOCTYPE svg PUBLIC "-//W3C//DTD SVG 1.1//EN" "http://www.w3.org/Graphics/SVG/1.1/DTD/svg11.dtd">
<svg version="1.1" id="图层_1" xmlns="http://www.w3.org/2000/svg" xmlns:xlink="http://www.w3.org/1999/xlink" x="0px" y="0px"
	 width="17.22px" height="16px" viewBox="0 0 17.22 16" enable-background="new 0 0 17.22 16" xml:space="preserve">
<path d="M6.115,16c-0.267,0-0.267,0-1.521-1.221l-0.857-0.839c-1.979-0.183-3.5-1.882-3.517-3.928V3.941
	C0.222,1.766,1.934,0.002,4.045,0h9.351c2.111,0.002,3.822,1.766,3.824,3.941v6.072c-0.002,2.175-1.713,3.938-3.824,3.94H7.14
	c-0.354,0-0.643-0.297-0.643-0.662c0-0.367,0.288-0.664,0.643-0.664h6.256c1.401-0.002,2.535-1.172,2.539-2.614V3.941
	c-0.004-1.443-1.138-2.613-2.539-2.616H4.045c-1.402,0-2.538,1.172-2.538,2.616v6.072c0.018,1.416,1.112,2.567,2.486,2.614
	c0.258,0,0.258,0,1.479,1.185c0.43,0.403,0.932,0.884,1.038,0.999c0.22,0.173,0.307,0.471,0.218,0.74
	C6.638,15.821,6.392,16,6.115,16"/>
<path d="M3.037,6.977c0,0.732,0.557,1.326,1.243,1.326c0.688,0,1.244-0.594,1.244-1.326S4.968,5.651,4.28,5.651
	C3.594,5.651,3.037,6.245,3.037,6.977"/>
<path d="M7.475,6.977c0,0.474,0.237,0.911,0.622,1.148s0.857,0.237,1.243,0c0.385-0.237,0.622-0.674,0.622-1.148
	c0-0.732-0.557-1.326-1.244-1.326C8.031,5.651,7.475,6.245,7.475,6.977"/>
<path d="M11.861,6.977c0,0.732,0.557,1.326,1.243,1.326s1.243-0.594,1.243-1.326s-0.557-1.326-1.243-1.326
	S11.861,6.245,11.861,6.977"/>
</svg>
