<?xml version="1.0" encoding="utf-8"?>
<!-- Generator: Adobe Illustrator 16.0.0, SVG Export Plug-In . SVG Version: 6.00 Build 0)  -->
<!DOCTYPE svg PUBLIC "-//W3C//DTD SVG 1.1//EN" "http://www.w3.org/Graphics/SVG/1.1/DTD/svg11.dtd">
<svg version="1.1" id="图层_1" xmlns="http://www.w3.org/2000/svg" xmlns:xlink="http://www.w3.org/1999/xlink" x="0px" y="0px"
	 width="16.976px" height="16px" viewBox="0 0 16.976 16" enable-background="new 0 0 16.976 16" xml:space="preserve">
<path d="M8.487,16c-0.26,0-0.509-0.088-0.72-0.254C7.579,15.6,3.146,12.111,1.382,9.31C0.766,8.331,0,7.114,0,5.358
	C0,2.404,2.18,0,4.86,0c1.396,0,2.704,0.65,3.627,1.794C9.411,0.65,10.718,0,12.114,0c2.681,0,4.861,2.404,4.861,5.358
	c0,1.756-0.768,2.973-1.385,3.952c-1.771,2.813-6.197,6.291-6.385,6.437C8.996,15.913,8.747,16,8.487,16 M4.86,1.539
	c-1.893,0-3.434,1.713-3.434,3.819c0,1.188,0.493,2.064,1.137,3.087c1.478,2.347,5.206,5.388,5.924,5.961
	c0.717-0.573,4.446-3.614,5.923-5.961c0.644-1.022,1.137-1.899,1.137-3.087c0-2.106-1.54-3.819-3.433-3.819
	c-1.349,0-2.578,0.888-3.132,2.262L8.934,3.923H8.923C8.829,4.079,8.668,4.177,8.487,4.177c-0.222,0-0.416-0.148-0.49-0.37H7.994
	C7.442,2.43,6.212,1.539,4.86,1.539"/>
</svg>
