<?xml version="1.0" encoding="utf-8"?>
<!-- Generator: Adobe Illustrator 16.0.0, SVG Export Plug-In . SVG Version: 6.00 Build 0)  -->
<!DOCTYPE svg PUBLIC "-//W3C//DTD SVG 1.1//EN" "http://www.w3.org/Graphics/SVG/1.1/DTD/svg11.dtd">
<svg version="1.1" id="图层_1" xmlns="http://www.w3.org/2000/svg" xmlns:xlink="http://www.w3.org/1999/xlink" x="0px" y="0px"
	 width="31.12px" height="6px" viewBox="0 0 31.12 6" enable-background="new 0 0 31.12 6" xml:space="preserve">
<path d="M28.12,6c-1.655,0-3-1.346-3-3s1.345-3,3-3c1.654,0,3,1.346,3,3S29.774,6,28.12,6 M15.18,6c-1.655,0-3-1.346-3-3
	s1.345-3,3-3c1.654,0,3,1.346,3,3S16.834,6,15.18,6 M3,6C1.346,6,0,4.654,0,3s1.346-3,3-3s3,1.346,3,3S4.654,6,3,6"/>
</svg>
