<?xml version="1.0" encoding="utf-8"?>
<!-- Generator: Adobe Illustrator 22.1.0, SVG Export Plug-In . SVG Version: 6.00 Build 0)  -->
<svg version="1.1" id="图层_1" xmlns="http://www.w3.org/2000/svg" xmlns:xlink="http://www.w3.org/1999/xlink" x="0px" y="0px"
	 viewBox="0 0 16 16" style="enable-background:new 0 0 16 16;" xml:space="preserve">
<path d="M0,16v-4.9l10.9-11C11.1,0,11.2,0,11.3,0c0.1,0,0.3,0.1,0.3,0.1l4.2,4.2C16,4.4,16,4.6,16,4.7c0,0.2,0,0.2-0.1,0.3l-2.6,2.6
	l-0.1,0.1L4.9,16H0z M1.3,14.7h2.9l-2.9-2.9V14.7z M2,10.8L5.2,14l7.3-7.2L9.2,3.5L2,10.8z M10.1,2.6l3.2,3.2l0.1-0.1
	c0.4-0.4,1.1-1.1,1.1-1.1l-3.2-3.2L10.1,2.6z"/>
</svg>
