<?xml version="1.0" encoding="utf-8"?>
<!-- Generator: Adobe Illustrator 16.0.0, SVG Export Plug-In . SVG Version: 6.00 Build 0)  -->
<!DOCTYPE svg PUBLIC "-//W3C//DTD SVG 1.1//EN" "http://www.w3.org/Graphics/SVG/1.1/DTD/svg11.dtd">
<svg version="1.1" id="图层_1" xmlns="http://www.w3.org/2000/svg" xmlns:xlink="http://www.w3.org/1999/xlink" x="0px" y="0px"
	 width="32px" height="32px" viewBox="0 0 32 32" enable-background="new 0 0 32 32" xml:space="preserve">
<path d="M31.667,8.666l-8.333-8.333C23.134,0.133,22.801,0,22.467,0c-0.333,0-0.6,0.133-0.866,0.333L0,22v10h10l16.433-16.308
	L24.5,13.626l-13.966,13.84l-6-6L18.4,7.599l5.467,5.467h0.065l2.468,2.667l5.267-5.267C31.933,10.199,32,9.933,32,9.6
	C32,9.199,31.867,8.866,31.667,8.666 M7.867,29H3v-4.866L7.867,29z M26.534,11.466l-6-6l1.933-1.933l6,6
	C28.467,9.466,26.534,11.466,26.534,11.466"/>
</svg>
