<?xml version="1.0" encoding="utf-8"?>
<!-- Generator: Adobe Illustrator 16.0.0, SVG Export Plug-In . SVG Version: 6.00 Build 0)  -->
<!DOCTYPE svg PUBLIC "-//W3C//DTD SVG 1.1//EN" "http://www.w3.org/Graphics/SVG/1.1/DTD/svg11.dtd">
<svg version="1.1" id="图层_1" xmlns="http://www.w3.org/2000/svg" xmlns:xlink="http://www.w3.org/1999/xlink" x="0px" y="0px"
	 width="32.001px" height="32px" viewBox="0 0 32.001 32" enable-background="new 0 0 32.001 32" xml:space="preserve">
<path d="M3.478,32c-0.93,0-1.802-0.362-2.458-1.019C0.361,30.325,0,29.452,0,28.522V3.477C0,1.56,1.561,0,3.478,0H15.9v3.376H3.378
	v25.248h25.245V16.101h3.378v12.421c0,0.93-0.361,1.803-1.019,2.459C30.324,31.638,29.452,32,28.523,32H3.478z M8.549,21.063
	L26.234,3.376h-6.556V0h12.322v12.322h-3.378V5.766L10.938,23.452L8.549,21.063z"/>
</svg>
