<?xml version="1.0" encoding="utf-8"?>
<!-- Generator: Adobe Illustrator 16.0.0, SVG Export Plug-In . SVG Version: 6.00 Build 0)  -->
<!DOCTYPE svg PUBLIC "-//W3C//DTD SVG 1.1//EN" "http://www.w3.org/Graphics/SVG/1.1/DTD/svg11.dtd">
<svg version="1.1" id="图层_1" xmlns="http://www.w3.org/2000/svg" xmlns:xlink="http://www.w3.org/1999/xlink" x="0px" y="0px"
	 width="28px" height="28px" viewBox="0 0 28 28" enable-background="new 0 0 28 28" xml:space="preserve">
<path d="M14,28C6.279,28,0,21.721,0,14C0,6.281,6.279,0,14,0c7.72,0,14,6.281,14,14C28,21.721,21.72,28,14,28 M14,1.432
	C7.069,1.432,1.431,7.07,1.431,14c0,6.932,5.639,12.57,12.569,12.57S26.568,20.932,26.568,14C26.568,7.07,20.931,1.432,14,1.432"/>
<path fill="#040000" d="M6.516,9.11h7.5c-0.527-1-0.938-1.73-1.234-2.188l1.202-0.562c0.292,0.448,0.729,1.177,1.313,2.187
	L14.172,9.11h7.344v1.156h-2.883c-0.559,2.974-1.756,5.364-3.594,7.172c1.385,1.012,3.586,1.918,6.602,2.719
	c-0.48,0.543-0.844,0.996-1.094,1.359c-2.938-1.016-5.107-2.078-6.508-3.187c-1.406,1.093-3.654,2.198-6.742,3.312
	c-0.271-0.363-0.584-0.771-0.938-1.219c2.979-0.895,5.222-1.893,6.728-2.992c-1.902-2.031-3.109-4.419-3.625-7.164H6.516V9.11z
	 M17.297,10.266h-6.586c0.469,2.563,1.588,4.68,3.359,6.353C15.762,15.044,16.838,12.927,17.297,10.266"/>
</svg>
