<?xml version="1.0" standalone="no"?><!DOCTYPE svg PUBLIC "-//W3C//DTD SVG 1.1//EN" "http://www.w3.org/Graphics/SVG/1.1/DTD/svg11.dtd"><svg t="1495699185484" class="icon" style="" viewBox="0 0 1024 1024" version="1.1" xmlns="http://www.w3.org/2000/svg" p-id="3526" xmlns:xlink="http://www.w3.org/1999/xlink" width="200" height="200"><defs><style type="text/css"></style></defs><path d="M243.8 645.9h373.7V239.2H243.8v406.7z m10-396.7h353.7v386.7H253.8V249.2zM714.5 771.5H733v10h-18.5zM677.6 771.5h18.5v10h-18.5zM783.5 744.5h-10v27h-22v10h32zM773.5 703.6h10v20h-10zM773.5 663.6h10v20h-10zM773.5 623.6h10v20h-10zM773.5 463.8h10v20h-10zM773.5 503.8h10v20h-10zM773.5 543.7h10v20h-10zM773.5 583.7h10v20h-10zM773.5 443.8h10v-36h-30v10h20zM716.5 407.8H735v10h-18.5zM679.6 407.8h18.5v10h-18.5z" p-id="3527"></path><path d="M667.1 358.2V192.9H194.2v638.2H829.8V358.2H667.1z m-10 462.9H204.2V202.9h452.9v618.2z m10-452.9h152.7v452.9H667.1V368.2z" p-id="3528"></path></svg>