<?xml version="1.0" encoding="utf-8"?>
<!-- Generator: Adobe Illustrator 16.0.0, SVG Export Plug-In . SVG Version: 6.00 Build 0)  -->
<!DOCTYPE svg PUBLIC "-//W3C//DTD SVG 1.1//EN" "http://www.w3.org/Graphics/SVG/1.1/DTD/svg11.dtd">
<svg version="1.1" id="图层_1" xmlns="http://www.w3.org/2000/svg" xmlns:xlink="http://www.w3.org/1999/xlink" x="0px" y="0px"
	 width="34.001px" height="28px" viewBox="0 0 34.001 28" enable-background="new 0 0 34.001 28" xml:space="preserve">
<path d="M16.854,0.338C16.51,0.115,16.123,0,15.729,0c-0.484,0-0.959,0.177-1.338,0.498L6.584,7.093H0v14.568h7.474l6.92,5.845
	C14.75,27.818,15.233,28,15.728,28c0.391,0,0.772-0.112,1.106-0.323c0.66-0.431,1.043-1.165,1.043-1.972V2.298
	C17.877,1.49,17.495,0.758,16.854,0.338 M16.218,25.705c0,0.224-0.102,0.431-0.263,0.535c-0.071,0.047-0.147,0.068-0.227,0.068
	c-0.097,0-0.192-0.033-0.274-0.105l-7.381-6.233H1.758V8.786h5.425L15.454,1.8c0.082-0.071,0.178-0.107,0.274-0.107
	c0.079,0,0.155,0.024,0.227,0.07c0.161,0.105,0.263,0.312,0.263,0.536V25.705z M23.227,5.155c-0.357-0.293-0.881-0.235-1.167,0.13
	c-0.287,0.364-0.229,0.896,0.127,1.188c2.322,1.901,3.653,4.644,3.653,7.529c0,2.978-1.404,5.781-3.854,7.688
	c-0.364,0.283-0.435,0.816-0.155,1.187c0.163,0.218,0.409,0.332,0.659,0.332c0.177,0,0.353-0.058,0.504-0.174
	C25.857,20.803,27.5,17.511,27.5,14C27.5,10.6,25.943,7.378,23.227,5.155"/>
<path d="M27.044,1.871c-0.408-0.216-0.909-0.054-1.119,0.36c-0.212,0.415-0.053,0.926,0.353,1.141C29.96,5.321,32.34,9.492,32.34,14
	c0,4.66-2.492,8.891-6.352,10.778c-0.413,0.202-0.588,0.708-0.389,1.129c0.144,0.304,0.44,0.48,0.75,0.48
	c0.124,0,0.247-0.029,0.359-0.085c4.429-2.168,7.292-6.996,7.292-12.303C34,8.869,31.271,4.108,27.044,1.871"/>
</svg>
