<?xml version="1.0" encoding="utf-8"?>
<!-- Generator: Adobe Illustrator 22.1.0, SVG Export Plug-In . SVG Version: 6.00 Build 0)  -->
<svg version="1.1" id="图层_1" xmlns="http://www.w3.org/2000/svg" xmlns:xlink="http://www.w3.org/1999/xlink" x="0px" y="0px"
	 viewBox="0 0 16 16" style="enable-background:new 0 0 16 16;" xml:space="preserve">
<g>
	<polygon points="12.4,8.4 12.4,7.6 8.4,7.6 8.4,3.6 7.6,3.6 7.6,7.6 3.6,7.6 3.6,8.4 7.6,8.4 7.6,12.4 8.4,12.4 8.4,8.4 	"/>
	<polygon points="0.9,0.9 4.4,0.9 4.4,0 0.9,0 0,0 0,0.9 0,4.4 0.9,4.4 	"/>
	<polygon points="15.1,0 11.6,0 11.6,0.9 15.1,0.9 15.1,4.4 16,4.4 16,0.9 16,0 	"/>
	<polygon points="0.9,11.6 0,11.6 0,15.1 0,16 0.9,16 4.4,16 4.4,15.1 0.9,15.1 	"/>
	<polygon points="15.1,15.1 11.6,15.1 11.6,16 15.1,16 16,16 16,15.1 16,11.6 15.1,11.6 	"/>
</g>
</svg>
