<?xml version="1.0" standalone="no"?><!DOCTYPE svg PUBLIC "-//W3C//DTD SVG 1.1//EN" "http://www.w3.org/Graphics/SVG/1.1/DTD/svg11.dtd"><svg t="1539234064311" class="icon" style="" viewBox="0 0 1024 1024" version="1.1" xmlns="http://www.w3.org/2000/svg" p-id="992" xmlns:xlink="http://www.w3.org/1999/xlink" width="64" height="64"><defs><style type="text/css"></style></defs><path d="M836.8 633.6H187.2c-32 0-51.2 20.8-35.2 36.8 24 25.6 310.4 324.8 324.8 339.2 17.6 19.2 56 16 72 0C560 998.4 854.4 688 872 670.4c16-17.6-4.8-35.2-35.2-36.8zM187.2 390.4h649.6c30.4 0 51.2-19.2 35.2-36.8-17.6-17.6-312-328-324.8-340.8-14.4-16-52.8-17.6-72 0C462.4 28.8 176 328 152 353.6c-16 16 3.2 36.8 35.2 36.8z" fill="" p-id="993"></path></svg>