<?xml version="1.0" encoding="utf-8"?>
<!-- Generator: Adobe Illustrator 22.1.0, SVG Export Plug-In . SVG Version: 6.00 Build 0)  -->
<svg version="1.1" id="图层_1" xmlns="http://www.w3.org/2000/svg" xmlns:xlink="http://www.w3.org/1999/xlink" x="0px" y="0px"
	 viewBox="0 0 16 16" style="enable-background:new 0 0 16 16;" xml:space="preserve">
<path id="XMLID_2466_" d="M14.8,9l-1.1,0.5l-0.7-0.8l0.7-0.6L14.8,9l0-0.3L14,8l0.9-0.7l0-0.3l-1,0.9l-0.7-0.6l0.7-0.8L14.9,7l0-0.3
	l-0.9-0.4l0.7-0.8l-0.1-0.3l-0.8,1l-0.9-0.4l0.5-0.9l1.1,0.2l-0.1-0.3l-0.9-0.1l0.5-0.9l-0.2-0.3l-0.5,1.1l-1-0.2l0.3-1.1l1.1-0.1
	L13.4,3l-0.8,0.1l0.3-0.9v0L12.5,2l-0.3,1.2l-1.1,0.2l0.1-1.1l1.1-0.5l0,0L12,1.5L11.1,2l0.1-1v0l-0.3-0.1l0,1.3L10,2.6L9.7,1.4
	l0.8-0.8l-0.3-0.1L9.7,1L9.5,0.2L9.2,0.1l0.3,1.2L8.6,2.1L8.2,1.2L8.8,0L8.4,0L8,0.9L7.6,0L7.3,0l0.6,1.1l-0.5,1L6.6,1.3l0.3-1.2
	L6.5,0.2L6.4,1L5.8,0.5L5.5,0.6l0.8,0.8L6.1,2.5L5.2,2.1l0-1.3L4.8,0.9l0.1,1L4,1.5L3.8,1.7l1.2,0.5L5,3.3L3.8,3.1L3.5,2L3.3,2.2
	l0.3,0.9L2.7,2.9L2.5,3.2l1.1,0.1l0.3,1.1L3,4.6L2.4,3.4L2.2,3.7l0.5,0.9L1.8,4.8L1.7,5l1.1-0.2l0.5,0.9L2.4,6.2l-0.8-1L1.5,5.4
	l0.7,0.8L1.2,6.7L1.2,7l1.1-0.5l0.7,0.8L2.2,7.8L1.2,7l0,0.3L2,8L1.1,8.7l0,0.3l1-0.9l0.7,0.6L2.3,9.5L1.2,9l0,0.3l0.9,0.4l-0.7,0.8
	l0.1,0.3l0.8-1l0.9,0.4l-0.5,0.9l-1.1-0.2l0.1,0.3l0.9,0.1l-0.5,0.9l0.2,0.3l0.5-1.1l1,0.2l-0.3,1.1l-1.1,0.1L2.6,13l0.8-0.1
	l-0.3,0.9L3.5,14l0.3-1.2l1.1-0.2l-0.1,1.1l-1.2,0.5L4,14.5L4.9,14l-0.1,1l0.3,0.1l0-1.3L6,13.4l0.2,1.2l-0.8,0.8l0.3,0.1L6.3,15
	l0.2,0.9l0.3,0.1l-0.3-1.2l0.8-0.8l0.5,0.9L7.2,16l0.3,0L8,15.1L8.4,16l0.3,0l-0.6-1.1l0.5-0.9l0.8,0.8l-0.3,1.2l0.3-0.1L9.6,15
	l0.5,0.6l0.3-0.1l-0.8-0.8l0.2-1.2l0.9,0.5l0,1.3l0.3-0.1l-0.1-1l0.9,0.4l0.3-0.2l-1.1-0.5l-0.1-1.1l1.1,0.2l0.3,1.2l0.3-0.2
	l-0.3-0.9l0.8,0.1l0.2-0.2l-1.1-0.1l-0.3-1.1l1-0.2l0.5,1.1l0.2-0.3l-0.5-0.9l0.9-0.1l0.1-0.3l-1.1,0.2l-0.5-0.9l0.9-0.4l0.7,1
	l0.1-0.3l-0.7-0.8l0.9-0.4L14.8,9z M13.7,8L13,8.6L12.5,8L13,7.4L13.7,8z M10.4,11.2l0.1-0.4l0.3-0.2V11L10.4,11.2z M10.8,11.1
	l0,0.5l-0.5,0.1l0.1-0.4L10.8,11.1z M10.5,10.7l0.1-0.4l0.1-0.1l0.1-0.1v0.4L10.5,10.7z M10.5,10.4l-0.3,0.3l0.4-0.8L10.5,10.4z
	 M10.4,10.6l-0.1,0.3L10,11.2l0-0.1l0,0L10.4,10.6z M10.3,11l-0.1,0.3l-0.4,0.2l0.1-0.1L10.3,11z M10.2,11.4l-0.1,0.4l-0.5,0.1
	l0.1-0.3L10.2,11.4z M10.3,11.8l0.5-0.1l0,0.7l-0.7-0.1L10.3,11.8z M12,7.3l0.3-0.5l0.6,0.5l-0.4,0.6l0,0l0,0L12,7.3z M12.3,8
	l-0.4,0.6L11.6,8l0.3-0.6L12.3,8z M12.2,6.5l-0.5-0.4l0.2-0.6l0.7,0.3L12.2,6.5z M12.1,6.7l-0.3,0.5l-0.4-0.5l0.1-0.5L12.1,6.7z
	 M11.8,7.3l-0.3,0.6l0,0l0,0l-0.2-0.5l0.2-0.6L11.8,7.3z M11.5,8l-0.2,0.5L11.1,8l0.1-0.5L11.5,8z M11.2,8.6l-0.3,0.5l0-0.2l0.1-0.3
	l0.1-0.5L11.2,8.6z M10.9,9.3l0.3-0.5l0.1,0.5l-0.4,0.5L10.9,9.3z M11.3,8.6l0.2-0.5v0l0,0l0.3,0.6l-0.4,0.5L11.3,8.6z M11.8,8.8
	l0.3,0.5l-0.5,0.4l-0.2-0.5L11.8,8.8z M12.2,9.5l0.3,0.7l-0.7,0.3l-0.2-0.6L12.2,9.5z M12,8.7l0.5-0.6v0l0,0l0.4,0.6l-0.6,0.5
	L12,8.7z M13.5,6.4L13,7.2l-0.7-0.5L12.7,6L13.5,6.4z M13,4.8l-0.4,0.9l-0.7-0.3l0.2-0.8L13,4.8z M11.1,3.5l1.1-0.1l-0.3,1L11,4.3
	L11.1,3.5z M11,4.4l0.8,0.2l-0.2,0.7L11,5L11,4.4z M11,5.1l0.7,0.3L11.5,6L11,5.6L11,5.1z M11,5.7l0.5,0.5l-0.1,0.5l-0.4-0.5L11,5.7
	z M10.9,6.2l0.4,0.5l-0.1,0.5l-0.3-0.5L10.9,6.2z M10.9,6.9l0.3,0.5l-0.1,0.4L11,7.4l-0.1-0.3V6.9z M10.9,7.3L10.9,7.3L11,8
	l-0.1,0.6l0,0.1L10.9,7.3z M10.8,10l-0.1,0.2l0,0l0.1-0.6l0-0.1L10.8,10z M10.9,2.4l0,1l-0.7,0.1L10,2.8L10.9,2.4z M10.7,5.8
	l-0.1-0.1l-0.1-0.4l0.3,0.2l0,0.4L10.7,5.8z M10.8,6l0,0.5l0-0.1l-0.1-0.6l0,0L10.8,6z M10.3,4.8l0.1,0.3L9.9,4.7L9.8,4.6L10.3,4.8z
	 M9.8,4.4L9.6,4.2l0.5,0.1l0.1,0.4L9.8,4.4z M10.4,5.2L10.4,5.2l0.1,0.3L10,4.9l0,0l0-0.1L10.4,5.2z M10.5,5.6l0.1,0.5l-0.4-0.8
	L10.5,5.6z M10.5,5.2l-0.1-0.4L10.8,5l0,0.4L10.5,5.2z M10.4,4.7l-0.1-0.4l0.5,0.1l0,0.5L10.4,4.7z M10.3,4.2l-0.1-0.5l0.7-0.1
	l0,0.7L10.3,4.2z M10.1,4.1L9.6,4.1L9.4,3.7L10,3.7L10.1,4.1z M10,3.5L9.4,3.6L9.1,3.2l0.7-0.3L10,3.5z M7.8,3.8L7.3,3.9L6.6,4
	l0.2-0.3L7.8,3.8z M6.9,3.6l0.2-0.4l0.9,0.4l0.1,0l0.1,0L9,3.2l0.2,0.4L8,3.8L6.9,3.6z M8.3,3.8l0.9-0.1L9.4,4L8.7,3.9L8.3,3.8
	L8.3,3.8z M9.5,1.6l0.3,1.1L9.1,3L8.7,2.3L9.5,1.6z M8,1.5l0.4,0.8L8,2.7L7.6,2.3L8,1.5z M7.5,2.5L8,3l0.5-0.5l0.3,0.6L8,3.6
	L7.1,3.1L7.5,2.5z M6.5,1.6l0.8,0.7L7,3L6.3,2.6L6.5,1.6z M6.2,2.9l0.7,0.3L6.7,3.6L6.1,3.5L6.2,2.9z M6.6,3.7L6.4,4.1L5.9,4.1
	L6,3.6L6.6,3.7z M4.7,7.4L4.5,7.9v0l0,0L4.2,7.3l0.4-0.5L4.7,7.4z M4.7,6.7l0.4-0.5l0,0.5L4.8,7.3L4.7,6.7z M4.4,8L4.1,8.5L3.7,8
	l0.4-0.6L4.4,8z M4.2,7.2L3.9,6.6l0.5-0.4l0.2,0.5L4.2,7.2z M3.8,6.5L3.5,5.8l0.7-0.3l0.2,0.6L3.8,6.5z M4.1,7.3L3.6,7.9v0l0,0
	L3.1,7.3l0.6-0.5L4.1,7.3z M3.6,8.1L3.6,8.1L3.6,8.1l0.5,0.6L3.8,9.2L3.1,8.7L3.6,8.1z M3.8,9.5l0.5,0.4l-0.2,0.6l-0.7-0.3L3.8,9.5z
	 M3.9,9.3l0.3-0.5l0.4,0.5L4.4,9.7L3.9,9.3z M4.2,8.7l0.3-0.6l0,0l0,0l0.2,0.5L4.6,9.1L4.2,8.7z M4.6,8l0.2-0.5L4.9,8L4.8,8.5L4.6,8
	z M4.9,7.4l0.3-0.5l0,0.2L5.1,7.3L5,7.8L4.9,7.4z M5.2,4.3l0-0.7l0.7,0.1L5.7,4.2L5.2,4.3z M5.7,4.3L5.6,4.7L5.2,4.9l0-0.5L5.7,4.3z
	 M5.6,4.8L5.5,5.2L5.2,5.4V5L5.6,4.8z M5.5,5.3L5.4,5.7L5.3,5.8L5.2,5.9V5.5L5.5,5.3z M5.5,5.6l0.3-0.3L5.4,6.1L5.5,5.6z M5.6,5.4
	l0.1-0.3l0.4-0.3l0,0.1l0,0L5.6,5.4z M5.7,5l0.1-0.3l0.4-0.2L6.2,4.7L5.7,5z M5.8,4.6l0.1-0.4l0.5-0.1L6.2,4.4L5.8,4.6z M6,2.7
	L5.9,3.5L5.2,3.4l0-1L6,2.7z M5.1,6.1L4.7,6.6L4.5,6.1l0.5-0.5L5.1,6.1z M5.1,5.5L4.5,6L4.4,5.4L5,5.1L5.1,5.5z M5,5L4.3,5.3
	L4.2,4.6L5,4.4L5,5z M3.9,3.4L5,3.5l0,0.8L4.1,4.4L3.9,3.4z M3,4.8l0.9-0.2l0.2,0.7L3.4,5.7L3,4.8z M2.5,6.3l0.9-0.4l0.4,0.7
	L3.1,7.1L2.5,6.3z M2.3,8L3,7.4L3.5,8L3,8.6L2.3,8z M2.5,9.6l0.6-0.8l0.7,0.5L3.3,10L2.5,9.6z M3,11.2l0.4-0.9l0.7,0.3l-0.2,0.8
	L3,11.2z M4.9,12.5l-1.1,0.1l0.3-1L5,11.7L4.9,12.5z M5,11.6l-0.8-0.2l0.2-0.7L5,11L5,11.6z M5,10.9l-0.7-0.3L4.5,10L5,10.4L5,10.9z
	 M5,10.3L4.5,9.9l0.1-0.5l0.4,0.5L5,10.3z M5.1,9.8L4.7,9.3l0.1-0.5l0.3,0.5L5.1,9.8z M5.1,9.1L4.9,8.6L5,8.2l0.1,0.5l0.1,0.3V9.1z
	 M5.1,8.7L5.1,8.7L5,8l0.1-0.6l0-0.1L5.1,8.7z M5.2,6l0.1-0.2l0,0L5.3,6.4l0,0.1L5.2,6z M5.2,7l0.1-0.6l0.9-1.7l0.6-0.5L6.5,4.3
	l0.1-0.2L7.3,4L8,3.9L8.7,4l0.7,0.1l0.1,0.2L9,4.1l0.7,0.5l0.9,1.7l0.1,0.6V9l-0.1,0.6l-0.9,1.7l-0.6,0.5l0.5-0.2l-0.1,0.2L8.7,12
	L8,12.1L7.3,12l-0.7-0.1l-0.1-0.2L7,11.9l-0.7-0.5L5.4,9.6L5.2,9L5.2,7z M8,12.2l1.2,0.2l-0.2,0.4l-1-0.4l-1,0.4l-0.2-0.4L8,12.2z
	 M6.8,12.3L6.6,12l0.7,0.1l0.4,0.1h0L6.8,12.3z M8.3,12.2l0.4-0.1L9.4,12l-0.2,0.3L8.3,12.2z M5.3,10.2l0.1,0.1l0.1,0.4l-0.3-0.2
	l0-0.4L5.3,10.2z M5.2,10l0-0.5l0,0.1l0.1,0.6l0,0L5.2,10z M5.7,10.8L5.7,10.8l-0.1-0.3L6,11.1l0,0l0,0.1L5.7,10.8z M6.1,11.3
	l0.1,0.2l-0.4-0.2l-0.1-0.3L6.1,11.3z M5.5,10.4L5.4,9.9l0.4,0.8L5.5,10.4z M5.5,10.8l0.1,0.4l-0.4-0.2l0-0.4L5.5,10.8z M5.6,11.3
	l0.1,0.4l-0.5-0.1l0-0.5L5.6,11.3z M5.7,11.8l0.1,0.5l-0.7,0.1l0-0.7L5.7,11.8z M5.8,11.3l0.5,0.2l0.1,0.3l-0.5-0.1L5.8,11.3z
	 M5.1,13.6l0-1l0.7-0.1L6,13.2L5.1,13.6z M5.9,11.9l0.5,0.1l0.2,0.3L6,12.3L5.9,11.9z M6,12.5l0.6-0.1l0.2,0.4l-0.7,0.3L6,12.5z
	 M6.5,14.4l-0.3-1.1L6.9,13l0.3,0.7L6.5,14.4z M8,14.5l-0.4-0.8L8,13.3l0.4,0.5L8,14.5z M8,13l-0.5,0.5l-0.3-0.6L8,12.5l0.9,0.4
	l-0.3,0.6 M9.5,14.4l-0.8-0.7L9,13l0.7,0.3L9.5,14.4z M9.8,13.1l-0.7-0.3l0.2-0.4l0.6,0.1L9.8,13.1z M9.4,12.3l0.2-0.3l0.5-0.1
	L10,12.4L9.4,12.3z M10,13.3l0.2-0.7l0.7,0.1l0,1L10,13.3z M10.9,9.9l0.4-0.5l0.1,0.5L11,10.4L10.9,9.9z M11,10.5l0.5-0.4l0.2,0.6
	L11,10.9L11,10.5z M11,11l0.7-0.3l0.2,0.7L11,11.6L11,11z M12.2,12.6l-1.1-0.1l0-0.8l0.9-0.1L12.2,12.6z M13,11.2l-0.9,0.2l-0.2-0.7
	l0.7-0.3L13,11.2z M12.7,10.1l-0.4-0.7L13,8.9l0.6,0.8L12.7,10.1z"/>
</svg>
