<?xml version="1.0" encoding="utf-8"?>
<!-- Generator: Adobe Illustrator 22.1.0, SVG Export Plug-In . SVG Version: 6.00 Build 0)  -->
<svg version="1.1" id="图层_1" xmlns="http://www.w3.org/2000/svg" xmlns:xlink="http://www.w3.org/1999/xlink" x="0px" y="0px"
	 viewBox="0 0 16 16" style="enable-background:new 0 0 16 16;" xml:space="preserve">
<g>
	<path d="M2.4,17.5c-1.3,0-2.4-1.1-2.4-2.4V6.9c0-1.3,1.1-2.4,2.4-2.4h0.7l0-1.2c0-1.3,0.5-2.5,1.3-3.4C5.4-1,6.7-1.5,8-1.5
		c0,0,0,0,0,0c0.5,0,0.9,0.1,1.4,0.2C11.6-0.8,13,1.1,13,3.3l0,1.2h0.6c1.3,0,2.4,1.1,2.4,2.4v8.2c0,1.3-1.1,2.4-2.4,2.4H2.4z
		 M2.4,5.6c-0.7,0-1.3,0.6-1.3,1.3v8.2c0,0.7,0.6,1.3,1.3,1.3h11.2c0.7,0,1.3-0.6,1.3-1.3V6.9c0-0.7-0.6-1.3-1.3-1.3H2.4z M8-0.4
		C7-0.4,6,0,5.4,0.7C4.7,1.4,4.3,2.3,4.3,3.4l0,1.2h7.6l0-1.2c0-1.8-1.1-3.2-2.7-3.6C8.8-0.4,8.5-0.4,8-0.4L8-0.4L8-0.4z"/>
	<path d="M8,8"/>
	<path d="M8,13.7c-0.3,0-0.6-0.2-0.6-0.5v-2l-0.1-0.1c-0.3-0.2-0.5-0.6-0.5-1C6.8,9.5,7.3,9,8,9c0.7,0,1.2,0.5,1.2,1.1
		c0,0.4-0.2,0.7-0.5,1l-0.1,0.1v2C8.6,13.4,8.3,13.7,8,13.7z"/>
</g>
</svg>
