<?xml version="1.0" encoding="utf-8"?>
<!-- Generator: Adobe Illustrator 22.1.0, SVG Export Plug-In . SVG Version: 6.00 Build 0)  -->
<svg version="1.1" id="图层_1" xmlns="http://www.w3.org/2000/svg" xmlns:xlink="http://www.w3.org/1999/xlink" x="0px" y="0px"
	 viewBox="0 0 16 16" style="enable-background:new 0 0 16 16;" xml:space="preserve">
<g>
	<g>
		<path d="M14.2,6.1l-1.8,2.5h1.2c-0.3,2.8-2.7,5-5.5,5c-1.9,0-3.6-0.9-4.6-2.5H1.9c1.1,2.3,3.5,3.8,6.1,3.8c3.5,0,6.5-2.8,6.7-6.3
			H16L14.2,6.1z"/>
		<path d="M2.6,6.7C3.2,4.2,5.4,2.4,8,2.4c1.6,0,3.1,0.7,4.1,1.9h1.6C12.4,2.3,10.3,1.1,8,1.1c-3.3,0-6.1,2.4-6.7,5.7H0l1.8,2.5
			l1.8-2.5H2.6z"/>
	</g>
</g>
</svg>
