<?xml version="1.0" standalone="no"?><!DOCTYPE svg PUBLIC "-//W3C//DTD SVG 1.1//EN" "http://www.w3.org/Graphics/SVG/1.1/DTD/svg11.dtd"><svg t="1495699206904" class="icon" style="" viewBox="0 0 1024 1024" version="1.1" xmlns="http://www.w3.org/2000/svg" p-id="2957" xmlns:xlink="http://www.w3.org/1999/xlink" width="200" height="200"><defs><style type="text/css"></style></defs><path d="M881 640.3l77.2-154.4c3.5-7-1.3-15.4-9.2-15.9l-152.1-9c-5-0.3-9.2-3.9-10.1-8.9l-7.9-40.9c-1.7-8.8-12.6-12-18.7-5.5l-101.6 107c-7.9 8.3-21.6 0.5-18.5-10.5l71.6-254.5c2.3-8.3-5.4-15.9-13.7-13.5l-55.2 16.4c-4.6 1.4-9.6-0.4-12.2-4.4L521.1 82.5c-4.3-6.5-13.9-6.5-18.3 0L393.5 246.1c-2.7 4-7.6 5.8-12.2 4.4l-55.1-16.4c-8.3-2.5-16 5.2-13.7 13.5L384 502.1c3.1 11-10.6 18.8-18.5 10.5L263.8 405.8c-6.1-6.5-17-3.3-18.7 5.5l-7.9 40.9c-1 4.9-5.1 8.6-10.1 8.9L75 470c-7.9 0.5-12.7 8.8-9.2 15.9l73.7 147.5c2.1 4.2 1.3 9.2-1.9 12.6l-29.7 30.6c-5.8 6-3.1 16 4.9 18.2l247.6 68.7c7 1.9 10.2 10 6.5 16.2l-34 56.7c-5 8.3 2.4 18.5 11.8 16.4l132.2-29.5c7.5-1.7 14.3 4.6 13.3 12.2L476.7 934c-0.9 6.6 4.2 12.5 10.9 12.5h55.1c6.7 0 11.8-5.9 10.9-12.5L540 835.5c-1-7.6 5.9-13.9 13.4-12.2L679 852.4c9.4 2.2 16.9-8 11.9-16.3l-33.8-56.5c-3.7-6.2-0.5-14.3 6.5-16.2l247.6-68.7c8-2.2 10.7-12.2 4.9-18.2L881 640.3z" fill="#FFB161" p-id="2958"></path><path d="M511.9 701s77-258.5 1.6-399.1c0 0-88.2 219.3-1.6 399.1z m0 0M577.3 702.2S751.7 670 819.1 551.4c-0.1-0.1-151.3 6.1-241.8 150.8z m0 0M440.5 702.2C350 557.5 198.8 551.3 198.8 551.3 266.1 670 440.5 702.2 440.5 702.2z m0 0" fill="#FB813A" p-id="2959"></path></svg>