<?xml version="1.0" encoding="utf-8"?>
<!-- Generator: Adobe Illustrator 22.1.0, SVG Export Plug-In . SVG Version: 6.00 Build 0)  -->
<svg version="1.1" id="图层_1" xmlns="http://www.w3.org/2000/svg" xmlns:xlink="http://www.w3.org/1999/xlink" x="0px" y="0px"
	 viewBox="0 0 16 16" style="enable-background:new 0 0 16 16;" xml:space="preserve">
<g>
	<path d="M10,6.2C9.9,6,9.7,5.9,9.6,5.8l0,0C9.5,5.7,9.3,5.6,9.1,5.6C8.6,5.6,8.3,6,8.3,6.4c0,0.2,0.1,0.4,0.2,0.5c0,0,0,0,0,0
		C8.5,6.9,8.6,7,8.7,7c0.1,0.1,0.1,0.1,0.2,0.2l0.1,0.1c0.8,0.8,0.6,2.2-0.2,3l-3.4,3.4c-0.8,0.8-2.1,0.8-2.9,0l-0.1-0.1
		c-0.8-0.8-0.8-2.1,0-2.9l1.5-1.5C4,9.1,4.2,8.8,4.2,8.6c0-0.5-0.4-0.8-0.8-0.8C3.1,7.7,3,7.8,2.8,7.9c0,0,0,0,0,0l0,0
		C2.8,7.9,2.7,8,2.7,8L1.1,9.5c-1.5,1.5-1.5,3.9,0,5.3l0.1,0.1c1.5,1.5,3.9,1.5,5.3,0l3.4-3.4C11.4,10,11.5,7.7,10,6.2L10,6.2z
		 M10,6.2"/>
	<path d="M14.9,1.2L14.9,1.2C13.4-0.4,11-0.4,9.5,1.1L6.1,4.5C4.6,6,4.5,8.1,6,9.6l0.1,0.1c0.1,0.1,0.1,0.1,0.2,0.2
		C6.3,9.9,6.4,9.9,6.4,10c0,0,0,0,0,0l0,0c0.1,0.1,0.2,0.1,0.4,0.1c0.4,0,0.7-0.3,0.7-0.7c0-0.1,0-0.2-0.1-0.3
		C7.4,8.8,7.2,8.7,7.1,8.6L7,8.5c-0.8-0.8-0.5-2,0.3-2.8l3.4-3.4c0.8-0.8,2.1-0.8,2.9,0l0.1,0.1c0.8,0.8,0.8,2.1,0,2.9l-1.5,1.5
		c-0.2,0.2-0.3,0.4-0.3,0.7c0,0.5,0.4,0.8,0.8,0.8c0.2,0,0.3,0,0.4-0.1c0,0,0,0,0,0l0,0c0.1,0,0.1-0.1,0.2-0.2l1.6-1.5
		C16.4,5,16.4,2.6,14.9,1.2L14.9,1.2z M14.9,1.2"/>
</g>
</svg>
