<?xml version="1.0" standalone="no"?><!DOCTYPE svg PUBLIC "-//W3C//DTD SVG 1.1//EN" "http://www.w3.org/Graphics/SVG/1.1/DTD/svg11.dtd"><svg t="1539330591193" class="icon" style="" viewBox="0 0 1024 1024" version="1.1" xmlns="http://www.w3.org/2000/svg" p-id="4336" xmlns:xlink="http://www.w3.org/1999/xlink" width="64" height="64"><defs><style type="text/css"></style></defs><path d="M183.452707 394.657478c-64.811098 0-117.338429 52.535517-117.338429 117.338429 0 64.804958 52.52733 117.346615 117.338429 117.346615s117.338429-52.541657 117.338429-117.346615C300.790112 447.192995 248.263805 394.657478 183.452707 394.657478zM512.001535 394.657478c-64.813145 0-117.340475 52.535517-117.340475 117.338429 0 64.804958 52.52733 117.346615 117.340475 117.346615 64.810075 0 117.336382-52.541657 117.336382-117.346615C629.337917 447.192995 576.81161 394.657478 512.001535 394.657478zM840.545246 394.657478c-64.810075 0-117.337405 52.535517-117.337405 117.338429 0 64.804958 52.52733 117.346615 117.337405 117.346615 64.811098 0 117.338429-52.541657 117.338429-117.346615C957.883675 447.192995 905.356344 394.657478 840.545246 394.657478z" p-id="4337"></path></svg>