<?xml version="1.0" encoding="utf-8"?>
<!-- Generator: Adobe Illustrator 16.0.0, SVG Export Plug-In . SVG Version: 6.00 Build 0)  -->
<!DOCTYPE svg PUBLIC "-//W3C//DTD SVG 1.1//EN" "http://www.w3.org/Graphics/SVG/1.1/DTD/svg11.dtd">
<svg version="1.1" id="图层_1" xmlns="http://www.w3.org/2000/svg" xmlns:xlink="http://www.w3.org/1999/xlink" x="0px" y="0px"
	 width="18px" height="17px" viewBox="0 0 18 17" enable-background="new 0 0 18 17" xml:space="preserve">
<rect x="15" y="14" fill-rule="evenodd" clip-rule="evenodd" width="1" height="1"/>
<polygon fill-rule="evenodd" clip-rule="evenodd" points="12,14 11,14 11,15 12,15 14,15 14,14 "/>
<rect x="15" y="8" fill-rule="evenodd" clip-rule="evenodd" width="1" height="1"/>
<rect x="11" y="8" fill-rule="evenodd" clip-rule="evenodd" width="3" height="1"/>
<rect x="11" y="2" fill-rule="evenodd" clip-rule="evenodd" width="3" height="1"/>
<rect x="15" y="2" fill-rule="evenodd" clip-rule="evenodd" width="1" height="1"/>
<path d="M16.958,7C16.973,7.012,16.99,7.027,17,7.043v2.914C16.99,9.973,16.973,9.989,16.958,10H1.042
	C1.028,9.989,1.011,9.973,1,9.958V7.043C1.011,7.027,1.028,7.012,1.042,7H16.958 M17,6H1C0.5,6,0,6.5,0,7v3c0,0.5,0.5,1,1,1h16
	c0.5,0,1-0.5,1-1V7C18,6.5,17.5,6,17,6"/>
<path d="M16.958,1C16.973,1.012,16.99,1.027,17,1.043v2.914C16.99,3.974,16.973,3.989,16.958,4H1.042
	C1.028,3.989,1.011,3.974,1,3.958V1.042C1.011,1.027,1.028,1.012,1.042,1H16.958 M17,0H1C0.5,0,0,0.5,0,1v3c0,0.5,0.5,1,1,1h16
	c0.5,0,1-0.5,1-1V1C18,0.5,17.5,0,17,0"/>
<path d="M16.958,13c0.015,0.012,0.032,0.027,0.042,0.043v2.914c-0.01,0.016-0.027,0.031-0.042,0.043H1.042
	C1.028,15.989,1.011,15.973,1,15.958v-2.915c0.011-0.015,0.028-0.03,0.042-0.042H16.958 M17,12H1c-0.5,0-1,0.5-1,1v3
	c0,0.5,0.5,1,1,1h16c0.5,0,1-0.5,1-1v-3C18,12.5,17.5,12,17,12"/>
</svg>
