<?xml version="1.0" encoding="utf-8"?>
<!-- Generator: Adobe Illustrator 16.0.0, SVG Export Plug-In . SVG Version: 6.00 Build 0)  -->
<!DOCTYPE svg PUBLIC "-//W3C//DTD SVG 1.1//EN" "http://www.w3.org/Graphics/SVG/1.1/DTD/svg11.dtd">
<svg version="1.1" id="图层_1" xmlns="http://www.w3.org/2000/svg" xmlns:xlink="http://www.w3.org/1999/xlink" x="0px" y="0px"
	 width="18px" height="17px" viewBox="0 0 18 17" enable-background="new 0 0 18 17" xml:space="preserve">
<path d="M14,6.236l4-2.227L9,0L0,5.011l4,1.781L0,9.021l3.965,1.764L0,12.992L9,17l9-5.01l-3.964-1.766L18,8.017L14,6.236z
	 M9.05,1.117l6.715,2.992L8.95,7.903L2.235,4.911L9.05,1.117z M5.144,7.302L9,9.02l3.906-2.174l2.855,1.271L8.95,11.91L2.239,8.919
	L5.144,7.302z M15.762,12.089L8.95,15.882l-6.711-2.988l2.87-1.6L9,13.027l3.942-2.193L15.762,12.089z"/>
</svg>
