<?xml version="1.0" encoding="utf-8"?>
<!-- Generator: Adobe Illustrator 16.0.0, SVG Export Plug-In . SVG Version: 6.00 Build 0)  -->
<!DOCTYPE svg PUBLIC "-//W3C//DTD SVG 1.1//EN" "http://www.w3.org/Graphics/SVG/1.1/DTD/svg11.dtd">
<svg version="1.1" id="图层_1" xmlns="http://www.w3.org/2000/svg" xmlns:xlink="http://www.w3.org/1999/xlink" x="0px" y="0px"
	 width="17px" height="17px" viewBox="0 0 17 17" enable-background="new 0 0 17 17" xml:space="preserve">
<path d="M16,16h-6v-6h6V16z M17,9H9v8h8V9z"/>
<path d="M7,16H1v-6h6V16z M8,9H0v8h8V9z"/>
<path d="M13,1c1.654,0,3,1.347,3,3c0,1.654-1.346,3-3,3c-1.653,0-3-1.346-3-3C10,2.346,11.347,1,13,1 M13,0c-2.209,0-4,1.791-4,4
	c0,2.209,1.791,4,4,4s4-1.791,4-4C17,1.791,15.209,0,13,0"/>
<path d="M13,1c1.654,0,3,1.347,3,3c0,1.654-1.346,3-3,3c-1.653,0-3-1.346-3-3C10,2.346,11.347,1,13,1 M13,0c-2.209,0-4,1.791-4,4
	c0,2.209,1.791,4,4,4s4-1.791,4-4C17,1.791,15.209,0,13,0"/>
<path d="M7,7H1V1h6V7z M8,0H0v8h8V0z"/>
</svg>
