<?xml version="1.0" encoding="utf-8"?>
<!-- Generator: Adobe Illustrator 16.0.0, SVG Export Plug-In . SVG Version: 6.00 Build 0)  -->
<!DOCTYPE svg PUBLIC "-//W3C//DTD SVG 1.1//EN" "http://www.w3.org/Graphics/SVG/1.1/DTD/svg11.dtd">
<svg version="1.1" id="图层_1" xmlns="http://www.w3.org/2000/svg" xmlns:xlink="http://www.w3.org/1999/xlink" x="0px" y="0px"
	 width="16.997px" height="16.992px" viewBox="0 0 16.997 16.992" enable-background="new 0 0 16.997 16.992" xml:space="preserve">
<g>
	<defs>
		<rect id="SVGID_1_" width="16.997" height="16.992"/>
	</defs>
	<clipPath id="SVGID_2_">
		<use xlink:href="#SVGID_1_"  overflow="visible"/>
	</clipPath>
	<path clip-path="url(#SVGID_2_)" d="M4.935,6.623C5.682,7.015,6.56,7.073,7.35,6.785c0.833-0.313,1.617-0.752,2.322-1.301
		c1.021-0.715,1.982-1.378,2.844-1.222c1.941,0.333,2.23,3.146,2.447,5.39c0.023,0.221,0.043,0.441,0.068,0.652
		c0.031,0.277,0.264,0.486,0.543,0.486c0.021,0.002,0.043-0.006,0.059-0.018c0.146-0.014,0.281-0.088,0.371-0.203
		c0.092-0.115,0.133-0.264,0.115-0.408c-0.025-0.205-0.043-0.426-0.068-0.648c-0.254-2.475-0.611-5.884-3.363-6.352
		c-1.295-0.22-2.486,0.611-3.643,1.411C8.429,5.054,7.747,5.442,7.024,5.728C6.517,5.935,5.946,5.91,5.458,5.661
		c-0.826-0.458-1.529-1.76-2.034-3.757C3.392,1.7,3.247,1.531,3.048,1.47C2.851,1.409,2.635,1.465,2.493,1.614
		C2.35,1.764,2.304,1.981,2.375,2.176C2.972,4.54,3.813,5.994,4.929,6.623H4.935z"/>
	<polygon clip-path="url(#SVGID_2_)" points="1.086,15.891 1.086,-0.006 -0.002,-0.006 -0.002,16.982 17.018,16.982 17.018,15.891 	
		"/>
</g>
<path d="M3.12,12.807h0.937v-1.545h1.529v-0.938H4.056V8.776H3.12v1.546H1.59v0.936H3.12V12.807z M6.234,13.484h4.009v0.934H6.234
	V13.484z M2.627,15.42l5.892-5.889l0.362,0.361l-5.893,5.889L2.627,15.42z"/>
</svg>
