<?xml version="1.0" encoding="utf-8"?>
<!-- Generator: Adobe Illustrator 16.0.0, SVG Export Plug-In . SVG Version: 6.00 Build 0)  -->
<!DOCTYPE svg PUBLIC "-//W3C//DTD SVG 1.1//EN" "http://www.w3.org/Graphics/SVG/1.1/DTD/svg11.dtd">
<svg version="1.1" id="图层_1" xmlns="http://www.w3.org/2000/svg" xmlns:xlink="http://www.w3.org/1999/xlink" x="0px" y="0px"
	 width="16px" height="18px" viewBox="0 0 16 18" enable-background="new 0 0 16 18" xml:space="preserve">
<path d="M2.172,18C0.975,18,0,17.074,0,15.937V4.842C0,3.688,0.631,2.46,1.8,2.46h2.115V1.19h1.879l0.152-0.201
	C6.397,0.395,7.078,0,7.999,0c1.071,0,1.713,0.548,2.157,1.129l0.047,0.061h1.88v1.27h1.462C14.738,2.46,16,3.685,16,4.842v11.095
	C16,17.074,15.025,18,13.826,18H2.172z M1.8,3.42c-0.811,0-0.811,0.822-0.811,1.422v10.774c0,0.705,0.739,1.422,1.463,1.422h11.093
	c0.583,0,1.463,0,1.463-0.786V4.842c0-0.705-0.738-1.422-1.463-1.422h-1.462v2.535H3.915V3.42H1.8z M4.928,4.995h6.143V2.47H9.763
	c-0.106-0.624-0.858-1.28-1.764-1.28c-0.906,0-1.656,0.656-1.763,1.28H4.928V4.995z M3.757,14.197c-0.231,0-0.494-0.258-0.494-0.48
	c0-0.193,0.393-0.48,0.658-0.48h8.319c0.231,0,0.494,0.256,0.494,0.48c0,0.223-0.263,0.48-0.494,0.48H3.757z M3.757,11.662
	c-0.231,0-0.494-0.258-0.494-0.48c0-0.227,0.263-0.48,0.494-0.48h8.483c0.231,0,0.494,0.254,0.494,0.48
	c0,0.223-0.263,0.48-0.494,0.48H3.757z M3.921,9.125c-0.234,0-0.426-0.18-0.426-0.399c0-0.195,0.055-0.562,0.262-0.562h8.483
	c0.207,0,0.264,0.366,0.264,0.562c0,0.22-0.191,0.399-0.426,0.399H3.921z"/>
</svg>
