<?xml version="1.0" standalone="no"?><!DOCTYPE svg PUBLIC "-//W3C//DTD SVG 1.1//EN" "http://www.w3.org/Graphics/SVG/1.1/DTD/svg11.dtd"><svg t="1495699320816" class="icon" style="" viewBox="0 0 1024 1024" version="1.1" xmlns="http://www.w3.org/2000/svg" p-id="5843" xmlns:xlink="http://www.w3.org/1999/xlink" width="200" height="200"><defs><style type="text/css"></style></defs><path d="M509.929852 152.819524c-77.894068 0-151.126976 30.333866-206.206432 85.413322-55.079456 55.079456-85.413322 128.312364-85.413322 206.206432 0 52.018747 13.873985 103.089913 40.121789 147.69276 22.929222 38.963407 54.735625 72.190159 92.544743 96.821139l0 142.249795c0 37.058011 30.148647 67.206658 67.205635 67.206658l183.143157 0c37.056987 0 67.205635-30.148647 67.205635-67.206658L668.531056 689.185468c37.901215-24.613584 69.787436-57.851593 92.784196-96.860025 26.321482-44.650943 40.234353-95.789647 40.234353-147.887188 0-77.894068-30.333866-151.126976-85.414345-206.206432C661.056827 183.15339 587.823919 152.819524 509.929852 152.819524zM601.326445 847.24432 418.183288 847.24432c-8.845459 0-16.040325-7.195889-16.040325-16.041348l0-60.375066 215.223806 0 0 60.375066C617.366769 840.047408 610.17088 847.24432 601.326445 847.24432zM717.238384 566.342676c-21.070898 35.743062-51.188846 65.615417-87.09973 86.390579l-12.771885 7.389294 0 59.541071L402.142963 719.66362l0-59.722196-12.738116-7.395434c-35.824927-20.798698-65.865103-50.662867-86.874603-86.36295-21.623483-36.743856-33.053814-78.841649-33.053814-121.742738 0-64.227814 25.01165-124.611066 70.427002-170.026418 45.415352-45.416376 105.799628-70.428026 170.026418-70.428026s124.611066 25.01165 170.027441 70.428026c45.415352 45.415352 70.427002 105.799628 70.427002 170.026418C750.385319 487.403812 738.923266 529.557888 717.238384 566.342676z" p-id="5844"></path><path d="M598.609567 930.532235 421.252183 930.532235c-14.128789 0-25.582655 11.453866-25.582655 25.582655s11.453866 25.582655 25.582655 25.582655l177.358407 0c14.129812 0 25.582655-11.453866 25.582655-25.582655S612.739379 930.532235 598.609567 930.532235z" p-id="5845"></path><path d="M851.80008 230.729965c-7.269567-12.114922-22.986527-16.041348-35.099403-8.772804-12.115945 7.269567-16.043395 22.984481-8.772804 35.099403 32.006971 53.338812 48.926316 114.604154 48.926316 177.171142 0 14.128789 11.453866 25.582655 25.582655 25.582655s25.582655-11.453866 25.582655-25.582655C908.019499 362.388541 888.579751 292.019867 851.80008 230.729965z" p-id="5846"></path><path d="M372.924501 118.560256c43.88858-19.36607 90.680279-29.185716 139.075499-29.185716 65.719794 0 129.62015 18.547425 184.79375 53.636594 4.256954 2.707668 9.008164 3.999081 13.70514 3.999081 8.457626-0.001023 16.73515-4.192485 21.611204-11.857049 7.581676-11.921517 4.063549-27.733645-7.858992-35.31532-63.393819-40.317241-136.789433-61.627592-212.251102-61.627592-55.552224 0-109.293195 11.283997-159.729911 33.539884-12.926404 5.703909-18.781762 20.806885-13.077853 33.733289C344.895121 118.408807 359.997074 124.265188 372.924501 118.560256z" p-id="5847"></path><path d="M218.84631 206.303646c-11.716856-7.893784-27.616988-4.793166-35.510772 6.92369-44.064588 65.409732-67.356061 141.831262-67.356061 221.00037 0 14.128789 11.453866 25.582655 25.582655 25.582655s25.582655-11.453866 25.582655-25.582655c0-68.946278 20.272719-135.482671 58.625212-192.414311C233.664807 230.096539 230.564189 214.19743 218.84631 206.303646z" p-id="5848"></path></svg>