<?xml version="1.0" encoding="utf-8"?>
<!-- Generator: Adobe Illustrator 16.0.0, SVG Export Plug-In . SVG Version: 6.00 Build 0)  -->
<!DOCTYPE svg PUBLIC "-//W3C//DTD SVG 1.1//EN" "http://www.w3.org/Graphics/SVG/1.1/DTD/svg11.dtd">
<svg version="1.1" id="图层_1" xmlns="http://www.w3.org/2000/svg" xmlns:xlink="http://www.w3.org/1999/xlink" x="0px" y="0px"
	 width="17px" height="17px" viewBox="0 0 17 17" enable-background="new 0 0 17 17" xml:space="preserve">
<path d="M7,16H1v-6h6V16z M8,9H0v8h8V9z"/>
<path d="M7,7H1V1h6V7z M8,0H0v8h8V0z"/>
<path d="M16,7h-6V1h6V7z M17,0H9v8h8V0z"/>
<path d="M16.97,12.759c-0.031-0.173-0.199-0.347-0.373-0.386l-0.13-0.029c-0.306-0.092-0.577-0.291-0.75-0.585
	c-0.173-0.295-0.213-0.632-0.138-0.94l0.04-0.119c0.052-0.168-0.016-0.397-0.151-0.512c0,0-0.123-0.104-0.468-0.299
	c-0.345-0.196-0.494-0.25-0.494-0.25c-0.168-0.06-0.402-0.003-0.526,0.126l-0.09,0.095c-0.232,0.217-0.544,0.35-0.889,0.35
	c-0.346,0-0.661-0.135-0.893-0.352l-0.088-0.093c-0.121-0.129-0.357-0.186-0.525-0.126c0,0-0.15,0.054-0.496,0.25
	c-0.345,0.197-0.466,0.301-0.466,0.301c-0.136,0.112-0.203,0.34-0.151,0.51l0.037,0.121c0.074,0.309,0.034,0.644-0.138,0.938
	c-0.173,0.296-0.447,0.497-0.755,0.587l-0.125,0.027c-0.173,0.039-0.342,0.211-0.373,0.386c0,0-0.028,0.153-0.028,0.548
	c0,0.393,0.028,0.549,0.028,0.549c0.031,0.172,0.199,0.346,0.373,0.383l0.121,0.029c0.309,0.09,0.584,0.291,0.757,0.588
	c0.173,0.295,0.214,0.631,0.139,0.939l-0.036,0.119c-0.052,0.166,0.016,0.398,0.151,0.512c0,0,0.123,0.102,0.468,0.299
	c0.345,0.195,0.494,0.25,0.494,0.25c0.168,0.059,0.402,0.004,0.525-0.125l0.086-0.092c0.233-0.219,0.548-0.352,0.895-0.352
	c0.346,0,0.661,0.135,0.894,0.353l0.085,0.093c0.122,0.127,0.358,0.184,0.526,0.125c0,0,0.15-0.057,0.496-0.25
	c0.345-0.197,0.466-0.299,0.466-0.299c0.136-0.113,0.203-0.344,0.151-0.512l-0.037-0.125c-0.074-0.307-0.034-0.641,0.138-0.934
	c0.173-0.295,0.449-0.498,0.756-0.588l0.123-0.029c0.172-0.039,0.342-0.211,0.373-0.385c0,0,0.028-0.154,0.028-0.547
	C16.998,12.912,16.97,12.759,16.97,12.759 M13.001,14.879c-0.88,0-1.596-0.703-1.596-1.572c0-0.867,0.714-1.572,1.596-1.572
	c0.879,0,1.595,0.705,1.595,1.574C14.594,14.176,13.88,14.879,13.001,14.879"/>
</svg>
