<?xml version="1.0" encoding="utf-8"?>
<!-- Generator: Adobe Illustrator 16.0.0, SVG Export Plug-In . SVG Version: 6.00 Build 0)  -->
<!DOCTYPE svg PUBLIC "-//W3C//DTD SVG 1.1//EN" "http://www.w3.org/Graphics/SVG/1.1/DTD/svg11.dtd">
<svg version="1.1" id="图层_1" xmlns="http://www.w3.org/2000/svg" xmlns:xlink="http://www.w3.org/1999/xlink" x="0px" y="0px"
	 width="18px" height="18px" viewBox="0 0 18 18" enable-background="new 0 0 18 18" xml:space="preserve">
<path d="M9.001,9C4.03,9,0,13.03,0,18h1c0-4.411,3.589-8,8.001-8c1.039,0,2.029,0.205,2.939,0.567l0.547-0.866
	C11.415,9.25,10.237,9,9.001,9"/>
<path d="M9.001,1c2.205,0,4,1.795,4,4c0,2.206-1.795,4-4,4C6.795,9,5,7.206,5,5C5,2.795,6.795,1,9.001,1 M9.001,0
	C6.239,0,4,2.239,4,5c0,2.763,2.239,5,5.001,5c2.761,0,5-2.237,5-5C14.001,2.239,11.762,0,9.001,0"/>
<path d="M14,10.889c0.245,0,0.444,0.2,0.444,0.445c0,0.244-0.199,0.443-0.444,0.443s-0.444-0.199-0.444-0.443
	C13.556,11.089,13.755,10.889,14,10.889 M14,10c-0.736,0-1.333,0.598-1.333,1.334s0.597,1.333,1.333,1.333s1.334-0.597,1.334-1.333
	S14.736,10,14,10"/>
<path d="M17.074,16.223c0.013,0.008,0.028,0.023,0.037,0.037v0.813c-0.009,0.015-0.024,0.029-0.037,0.039h-6.147
	c-0.013-0.01-0.028-0.024-0.037-0.039V16.26c0.009-0.014,0.024-0.029,0.037-0.037H17.074 M17.111,15.334H10.89
	c-0.444,0-0.89,0.443-0.89,0.889v0.889C10,17.557,10.445,18,10.89,18h6.222C17.556,18,18,17.557,18,17.112v-0.889
	C18,15.778,17.556,15.334,17.111,15.334"/>
<rect x="12.264" y="12.201" transform="matrix(0.7705 0.6375 -0.6375 0.7705 11.9833 -4.837)" width="0.889" height="4.043"/>
<rect x="13.271" y="13.777" transform="matrix(0.639 0.7692 -0.7692 0.639 16.4603 -6.6285)" width="4.042" height="0.89"/>
</svg>
