<?xml version="1.0" encoding="utf-8"?>
<!-- Generator: Adobe Illustrator 16.0.0, SVG Export Plug-In . SVG Version: 6.00 Build 0)  -->
<!DOCTYPE svg PUBLIC "-//W3C//DTD SVG 1.1//EN" "http://www.w3.org/Graphics/SVG/1.1/DTD/svg11.dtd">
<svg version="1.1" id="图层_1" xmlns="http://www.w3.org/2000/svg" xmlns:xlink="http://www.w3.org/1999/xlink" x="0px" y="0px"
	 width="12px" height="14px" viewBox="0 0 12 14" enable-background="new 0 0 12 14" xml:space="preserve">
<path fill-rule="evenodd" clip-rule="evenodd" d="M6,4C4.896,4,4,4.896,4,6c0,1.104,0.896,2,2,2s2-0.896,2-2C8,4.896,7.104,4,6,4"/>
<path fill-rule="evenodd" clip-rule="evenodd" d="M12,6c0-3.313-2.687-6-6-6C2.687,0,0,2.687,0,6c0,2.508,1.54,4.653,3.725,5.55
	L2,13v1h8v-1l-1.726-1.449C10.46,10.653,12,8.508,12,6 M6,9C4.343,9,3,7.657,3,6s1.343-3,3-3s3,1.343,3,3S7.657,9,6,9"/>
</svg>
