<?xml version="1.0" encoding="utf-8"?>
<!-- Generator: Adobe Illustrator 16.0.0, SVG Export Plug-In . SVG Version: 6.00 Build 0)  -->
<!DOCTYPE svg PUBLIC "-//W3C//DTD SVG 1.1//EN" "http://www.w3.org/Graphics/SVG/1.1/DTD/svg11.dtd">
<svg version="1.1" id="图层_1" xmlns="http://www.w3.org/2000/svg" xmlns:xlink="http://www.w3.org/1999/xlink" x="0px" y="0px"
	 width="15px" height="13.999px" viewBox="0 0 15 13.999" enable-background="new 0 0 15 13.999" xml:space="preserve">
<polygon fill-rule="evenodd" clip-rule="evenodd" fill="#040000" points="13,6 11,6 11,6.999 12,6.999 13,9.999 13,11 10,11 
	10,11.999 10,13 5,13 5,11.999 5,11 2,11 2,9.999 3,6.999 4,6.999 4,6 2,6 0,9.999 0,13.999 15,13.999 15,9.999 "/>
<polygon fill-rule="evenodd" clip-rule="evenodd" fill="#040000" points="7.5,0 4,4 6,4 6,9 9,9 9,4 11,4 "/>
</svg>
