<?xml version="1.0" encoding="utf-8"?>
<!-- Generator: Adobe Illustrator 16.0.0, SVG Export Plug-In . SVG Version: 6.00 Build 0)  -->
<!DOCTYPE svg PUBLIC "-//W3C//DTD SVG 1.1//EN" "http://www.w3.org/Graphics/SVG/1.1/DTD/svg11.dtd">
<svg version="1.1" id="图层_1" xmlns="http://www.w3.org/2000/svg" xmlns:xlink="http://www.w3.org/1999/xlink" x="0px" y="0px"
	 width="14px" height="14.001px" viewBox="0 0 14 14.001" enable-background="new 0 0 14 14.001" xml:space="preserve">
<polygon fill-rule="evenodd" clip-rule="evenodd" points="0,4.001 2.5,7.001 5,4.001 2.5,4.001 "/>
<path d="M7.681,0C4.938,0,2.597,1.702,1.643,4.104h1.095C3.63,2.271,5.508,1,7.681,1c2.512,0,4.632,1.695,5.287,4H14
	C13.322,2.135,10.753,0,7.681,0"/>
<polygon fill-rule="evenodd" clip-rule="evenodd" points="14,10 11.5,7 9,10 11.5,10 "/>
<path d="M6.319,14.001c2.744,0,5.083-1.702,6.039-4.104h-1.096c-0.893,1.832-2.77,3.104-4.943,3.104c-2.512,0-4.632-1.695-5.287-4H0
	C0.678,11.867,3.246,14.001,6.319,14.001"/>
</svg>
