<?xml version="1.0" encoding="utf-8"?>
<!-- Generator: Adobe Illustrator 16.0.0, SVG Export Plug-In . SVG Version: 6.00 Build 0)  -->
<!DOCTYPE svg PUBLIC "-//W3C//DTD SVG 1.1//EN" "http://www.w3.org/Graphics/SVG/1.1/DTD/svg11.dtd">
<svg version="1.1" id="图层_1" xmlns="http://www.w3.org/2000/svg" xmlns:xlink="http://www.w3.org/1999/xlink" x="0px" y="0px"
	 width="14px" height="14px" viewBox="0 0 14 14" enable-background="new 0 0 14 14" xml:space="preserve">
<path d="M7,0C3.134,0,0,3.134,0,7s3.134,7,7,7s7-3.135,7-7S10.866,0,7,0 M7,1c1.294,0,2.49,0.415,3.471,1.114l-8.355,8.357
	C1.416,9.489,1,8.293,1,7C1,3.691,3.691,1,7,1 M7,13c-1.294,0-2.49-0.416-3.471-1.115l8.356-8.357C12.584,4.51,13,5.706,13,7
	C13,10.309,10.309,13,7,13"/>
</svg>
