<?xml version="1.0" encoding="utf-8"?>
<!-- Generator: Adobe Illustrator 16.0.0, SVG Export Plug-In . SVG Version: 6.00 Build 0)  -->
<!DOCTYPE svg PUBLIC "-//W3C//DTD SVG 1.1//EN" "http://www.w3.org/Graphics/SVG/1.1/DTD/svg11.dtd">
<svg version="1.1" id="图层_1" xmlns="http://www.w3.org/2000/svg" xmlns:xlink="http://www.w3.org/1999/xlink" x="0px" y="0px"
	 width="14px" height="10px" viewBox="0 0 14 10" enable-background="new 0 0 14 10" xml:space="preserve">
<path fill-rule="evenodd" clip-rule="evenodd" d="M7,0C3.134,0,0,4,0,5c0,1,3.134,5,7,5c3.866,0,7-4,7-5C14,4,10.866,0,7,0 M7,8.001
	c-1.657,0-3-1.345-3-3C4,3.345,5.343,2,7,2c1.657,0,3,1.345,3,3.001C10,6.657,8.657,8.001,7,8.001 M7,4C6.447,4,6,4.448,6,5.001
	C6,5.553,6.447,6,7,6c0.552,0,1-0.447,1-0.999C8,4.448,7.552,4,7,4"/>
</svg>
