<?xml version="1.0" encoding="utf-8"?>
<!-- Generator: Adobe Illustrator 16.0.0, SVG Export Plug-In . SVG Version: 6.00 Build 0)  -->
<!DOCTYPE svg PUBLIC "-//W3C//DTD SVG 1.1//EN" "http://www.w3.org/Graphics/SVG/1.1/DTD/svg11.dtd">
<svg version="1.1" id="图层_1" xmlns="http://www.w3.org/2000/svg" xmlns:xlink="http://www.w3.org/1999/xlink" x="0px" y="0px"
	 width="14.001px" height="7.999px" viewBox="0 0 14.001 7.999" enable-background="new 0 0 14.001 7.999" xml:space="preserve">
<path d="M10.094,5.06c0.512-0.191,1.021-0.512,1.468-0.766l0.894,0.896c0.254,0.255,0.575,0.255,0.829,0
	c0.255-0.257,0.255-0.575,0-0.831l-0.829-0.831c0.575-0.575,1.084-1.278,1.34-2.044c0.064-0.256,0.129-0.512,0.193-0.703
	c0.064-0.319-0.129-0.639-0.448-0.702c-0.317-0.065-0.637,0.128-0.7,0.447c-0.064,0.192-0.064,0.384-0.129,0.576
	C12.008,3.016,9.775,4.548,7.03,4.548c-3,0-5.232-1.724-5.87-4.023C1.096,0.14,0.778-0.051,0.459,0.012
	C0.14,0.077-0.052,0.459,0.012,0.78C0.266,1.8,0.842,2.759,1.607,3.526l-0.829,0.83c-0.255,0.255-0.255,0.639,0,0.831
	c0.254,0.255,0.574,0.255,0.829,0l0.958-0.896C3.011,4.611,3.523,4.868,4.032,5.06l-0.83,1.342C3.01,6.657,3.138,7.04,3.395,7.232
	c0.255,0.192,0.638,0.063,0.83-0.192l0.894-1.598c0.447,0.129,0.893,0.191,1.34,0.191v1.791c0,0.32,0.255,0.574,0.575,0.574
	c0.32,0,0.575-0.254,0.575-0.574V5.634c0.447,0,0.894-0.127,1.34-0.191l0.896,1.533c0.19,0.255,0.51,0.383,0.828,0.191
	c0.256-0.191,0.383-0.51,0.192-0.83C10.86,6.401,10.094,5.06,10.094,5.06"/>
</svg>
