<?xml version="1.0" encoding="utf-8"?>
<!-- Generator: Adobe Illustrator 16.0.0, SVG Export Plug-In . SVG Version: 6.00 Build 0)  -->
<!DOCTYPE svg PUBLIC "-//W3C//DTD SVG 1.1//EN" "http://www.w3.org/Graphics/SVG/1.1/DTD/svg11.dtd">
<svg version="1.1" id="图层_1" xmlns="http://www.w3.org/2000/svg" xmlns:xlink="http://www.w3.org/1999/xlink" x="0px" y="0px"
	 width="14px" height="14.001px" viewBox="0 0 14 14.001" enable-background="new 0 0 14 14.001" xml:space="preserve">
<path d="M13.877,5.753c0.239-0.247,0.106-0.675-0.226-0.727l-4.134-0.63C9.384,4.374,9.269,4.287,9.212,4.163L7.364,0.238
	C7.289,0.08,7.145,0,6.999,0C6.855,0,6.708,0.08,6.634,0.238L4.787,4.163C4.731,4.288,4.616,4.375,4.481,4.396l-4.133,0.63
	C0.015,5.078-0.118,5.507,0.123,5.753l2.99,3.055c0.095,0.099,0.14,0.24,0.118,0.377l-0.706,4.316c-0.045,0.275,0.163,0.5,0.4,0.5
	c0.061,0,0.127-0.017,0.188-0.051l3.697-2.037c0.058-0.035,0.124-0.049,0.189-0.049s0.13,0.016,0.189,0.049l3.696,2.037
	c0.063,0.034,0.127,0.051,0.189,0.051c0.236,0,0.445-0.225,0.399-0.5l-0.705-4.316c-0.022-0.137,0.021-0.275,0.118-0.377
	L13.877,5.753z M9.783,9.355l0.512,3.127L7.67,11.037c-0.204-0.113-0.436-0.172-0.671-0.172c-0.242,0-0.479,0.063-0.685,0.18
	l-2.61,1.438l0.514-3.135c0.071-0.45-0.073-0.91-0.385-1.233L1.612,5.845l3.02-0.461C5.109,5.309,5.505,5.005,5.7,4.573L6.999,1.81
	l1.308,2.778C8.5,5.005,8.892,5.305,9.354,5.382l3.034,0.463l-2.216,2.264C9.849,8.442,9.707,8.906,9.783,9.355"/>
</svg>
