<?xml version="1.0" standalone="no"?><!DOCTYPE svg PUBLIC "-//W3C//DTD SVG 1.1//EN" "http://www.w3.org/Graphics/SVG/1.1/DTD/svg11.dtd"><svg t="1495776894559" class="icon" style="" viewBox="0 0 1024 1024" version="1.1" xmlns="http://www.w3.org/2000/svg" p-id="1958" xmlns:xlink="http://www.w3.org/1999/xlink" width="200" height="200"><defs><style type="text/css"></style></defs><path d="M817.6 383.616l-29.184 56.96c32.896 16.864 52.576 36.288 52.576 52 0 42.4-128.192 104-329.024 104-26.528 0-52.416-1.216-77.6-3.36l7.008-77.408-74.656 48.128-74.656 48.128 64.832 60.704 64.832 60.704 6.912-76.48c27.104 2.336 54.944 3.552 83.36 3.552 195.328 0 393.024-57.696 393.024-168C904.96 463.296 889.824 420.64 817.6 383.616z" p-id="1959"></path><path d="M182.912 492.576c0-40.032 116.032-98.88 305.056-103.712l-1.632-63.968c-176.96 4.512-367.424 58.912-367.424 167.68 0 33.76 19.744 82.176 113.728 121.088l24.48-59.136C202.4 531.904 182.912 507.68 182.912 492.576z" p-id="1960"></path><path d="M510.784 816c-19.264 0-42.176-22.528-61.312-60.32l-57.088 28.928c39.936 78.816 86.432 95.36 118.4 95.36 62.432 0 116.48-63.2 148.352-173.376l-61.504-17.76C572.288 776.672 535.744 816 510.784 816z" p-id="1961"></path><path d="M506.56 208c42.304 0 88.704 80.672 102.08 196.672l-77.056 7.136 60.864 64.704 60.864 64.704 47.904-74.816 47.904-74.784-76.544 7.104C656.288 249.44 590.368 144 506.56 144c-53.792 0-100.96 42.336-132.8 119.2l59.136 24.512C453.248 238.56 481.472 208 506.56 208z" p-id="1962"></path></svg>