<?xml version="1.0" encoding="utf-8"?>
<!-- Generator: Adobe Illustrator 16.0.0, SVG Export Plug-In . SVG Version: 6.00 Build 0)  -->
<!DOCTYPE svg PUBLIC "-//W3C//DTD SVG 1.1//EN" "http://www.w3.org/Graphics/SVG/1.1/DTD/svg11.dtd">
<svg version="1.1" id="图层_1" xmlns="http://www.w3.org/2000/svg" xmlns:xlink="http://www.w3.org/1999/xlink" x="0px" y="0px"
	 width="12px" height="14px" viewBox="0 0 12 14" enable-background="new 0 0 12 14" xml:space="preserve">
<path fill-rule="evenodd" clip-rule="evenodd" d="M9,2H1C0.448,2,0,2.448,0,3.001v10c0,0.553,0.448,1,1,1h8c0.553,0,1-0.447,1-1v-10
	C10,2.448,9.553,2,9,2 M8,11H2v-1h6V11z M8,8H2V7h6V8z M8,5H2V4h6V5z"/>
<path fill-rule="evenodd" clip-rule="evenodd" d="M11,0H3C2.448,0,2,0.448,2,1h8c0.553,0,1,0.448,1,1.001V12v0.001
	c0.552,0,1-0.448,1-1.001V1C12,0.448,11.552,0,11,0"/>
</svg>
