<?xml version="1.0" encoding="utf-8"?>
<!-- Generator: Adobe Illustrator 16.0.0, SVG Export Plug-In . SVG Version: 6.00 Build 0)  -->
<!DOCTYPE svg PUBLIC "-//W3C//DTD SVG 1.1//EN" "http://www.w3.org/Graphics/SVG/1.1/DTD/svg11.dtd">
<svg version="1.1" id="图层_1" xmlns="http://www.w3.org/2000/svg" xmlns:xlink="http://www.w3.org/1999/xlink" x="0px" y="0px"
	 width="13.92px" height="14px" viewBox="0 0 13.92 14" enable-background="new 0 0 13.92 14" xml:space="preserve">
<polygon fill-rule="evenodd" clip-rule="evenodd" points="13.92,9 10.92,9 10.92,5.999 8.92,5.999 8.92,9 5.92,9 5.92,11 8.92,11 
	8.92,14 10.92,14 10.92,11 13.92,11 "/>
<path fill-rule="evenodd" clip-rule="evenodd" d="M7.92,7.857V5h2.857c0.084-0.322,0.143-0.653,0.143-1c0-2.209-1.791-4-4-4
	s-4,1.791-4,4s1.791,4,4,4C7.268,8,7.599,7.941,7.92,7.857"/>
<path fill-rule="evenodd" clip-rule="evenodd" d="M7.92,12h-3V8.293C2.343,9.062,0.391,11.277,0,14h7.92V12z"/>
</svg>
