<?xml version="1.0" encoding="utf-8"?>
<!-- Generator: Adobe Illustrator 16.0.0, SVG Export Plug-In . SVG Version: 6.00 Build 0)  -->
<!DOCTYPE svg PUBLIC "-//W3C//DTD SVG 1.1//EN" "http://www.w3.org/Graphics/SVG/1.1/DTD/svg11.dtd">
<svg version="1.1" id="图层_1" xmlns="http://www.w3.org/2000/svg" xmlns:xlink="http://www.w3.org/1999/xlink" x="0px" y="0px"
	 width="14px" height="14px" viewBox="0 0 14 14" enable-background="new 0 0 14 14" xml:space="preserve">
<rect x="6.239" y="-2.137" transform="matrix(0.7074 -0.7068 0.7068 0.7074 -2.9 6.9957)" fill-rule="evenodd" clip-rule="evenodd" width="1.523" height="18.276"/>
<path d="M6.982,4.493l2.181-2.131c0.457-0.447,1.063-0.703,1.662-0.703c0.476,0,0.908,0.165,1.214,0.464
	C12.42,2.496,12.5,2.947,12.5,3.262c0,0.563-0.258,1.139-0.705,1.577l-2.26,2.208l1.061,1.059l2.246-2.194
	c1.442-1.408,1.552-3.585,0.246-4.86c-0.61-0.598-1.422-0.893-2.263-0.893c-0.954,0-1.944,0.381-2.711,1.131L5.921,3.433
	L6.982,4.493z"/>
<path d="M7.017,9.508l-2.18,2.131c-0.458,0.445-1.063,0.703-1.663,0.703c-0.476,0-0.907-0.165-1.214-0.465
	c-0.38-0.371-0.46-0.823-0.46-1.139c0-0.563,0.257-1.138,0.705-1.576l2.259-2.208l-1.06-1.061L1.157,8.09
	c-1.441,1.408-1.551,3.584-0.245,4.859c0.611,0.598,1.423,0.893,2.262,0.893c0.955,0,1.945-0.381,2.711-1.131l2.193-2.143
	L7.017,9.508z"/>
</svg>
