<?xml version="1.0" encoding="utf-8"?>
<!-- Generator: Adobe Illustrator 16.0.0, SVG Export Plug-In . SVG Version: 6.00 Build 0)  -->
<!DOCTYPE svg PUBLIC "-//W3C//DTD SVG 1.1//EN" "http://www.w3.org/Graphics/SVG/1.1/DTD/svg11.dtd">
<svg version="1.1" id="图层_1" xmlns="http://www.w3.org/2000/svg" xmlns:xlink="http://www.w3.org/1999/xlink" x="0px" y="0px"
	 width="13px" height="12px" viewBox="0 0 13 12" enable-background="new 0 0 13 12" xml:space="preserve">
<path d="M12.952,5.107c-0.052-0.278-0.324-0.563-0.606-0.625l-0.212-0.049c-0.497-0.148-0.938-0.473-1.219-0.949
	c-0.279-0.481-0.347-1.027-0.224-1.527l0.065-0.196c0.084-0.271-0.025-0.646-0.246-0.832c0,0-0.199-0.166-0.76-0.484
	S8.948,0.038,8.948,0.038C8.674-0.059,8.293,0.034,8.094,0.243L7.946,0.398C7.569,0.75,7.062,0.964,6.501,0.964
	s-1.073-0.217-1.45-0.571L4.908,0.243C4.712,0.034,4.327-0.059,4.054,0.038c0,0-0.244,0.088-0.805,0.406
	c-0.561,0.32-0.757,0.486-0.757,0.486c-0.221,0.185-0.331,0.557-0.247,0.83L2.306,1.96c0.12,0.5,0.056,1.043-0.224,1.524
	c-0.28,0.479-0.727,0.807-1.226,0.953L0.652,4.482c-0.28,0.063-0.555,0.345-0.607,0.625C0.045,5.107,0,5.36,0,5.998
	c0,0.639,0.045,0.889,0.045,0.889C0.097,7.17,0.369,7.452,0.652,7.514l0.199,0.045c0.5,0.146,0.948,0.475,1.228,0.955
	c0.281,0.48,0.347,1.027,0.225,1.527l-0.059,0.195c-0.084,0.27,0.026,0.645,0.247,0.832c0,0,0.199,0.166,0.759,0.484
	c0.562,0.318,0.803,0.404,0.803,0.404c0.273,0.098,0.655,0.006,0.854-0.203l0.14-0.148c0.38-0.355,0.89-0.57,1.453-0.57
	s1.076,0.219,1.453,0.574l0.141,0.146c0.195,0.209,0.58,0.303,0.854,0.203c0,0,0.244-0.088,0.805-0.404
	c0.562-0.318,0.758-0.484,0.758-0.484c0.221-0.184,0.33-0.559,0.246-0.832l-0.061-0.203c-0.119-0.498-0.056-1.041,0.225-1.518
	c0.281-0.48,0.729-0.811,1.228-0.955l0.199-0.047c0.28-0.063,0.556-0.344,0.606-0.625C12.954,6.891,13,6.64,13,6
	C12.997,5.36,12.952,5.107,12.952,5.107 M6.501,8.555c-1.43,0-2.592-1.145-2.592-2.557c0-1.411,1.16-2.554,2.592-2.554
	c1.43,0,2.592,1.143,2.592,2.556C9.09,7.411,7.931,8.555,6.501,8.555"/>
</svg>
