<?xml version="1.0" standalone="no"?><!DOCTYPE svg PUBLIC "-//W3C//DTD SVG 1.1//EN" "http://www.w3.org/Graphics/SVG/1.1/DTD/svg11.dtd"><svg t="1504785664173" class="icon" style="" viewBox="0 0 1024 1024" version="1.1" xmlns="http://www.w3.org/2000/svg" p-id="999" xmlns:xlink="http://www.w3.org/1999/xlink" width="200" height="200"><defs><style type="text/css"></style></defs><path d="M861.04 903.895c0 30.91-25.074 55.877-55.924 55.877H106.413l97.848-461.131c0-30.88 24.92-55.907 55.77-55.907H902.96c30.856 0 55.829 25.027 55.829 55.907L861.04 903.895zM218.163 400.792h628.87v-54.891c0-30.88-25.076-55.906-55.877-55.906H455.788v-50.659c0-30.827-25.027-55.878-55.878-55.878H120.367c-30.855 0-55.877 25.05-55.877 55.878v664.559l97.747-447.176c0-30.881 25.074-55.927 55.925-55.927z m0 0" p-id="1000" fill="#515151"></path></svg>