<?xml version="1.0" encoding="utf-8"?>
<!-- Generator: Adobe Illustrator 16.0.0, SVG Export Plug-In . SVG Version: 6.00 Build 0)  -->
<!DOCTYPE svg PUBLIC "-//W3C//DTD SVG 1.1//EN" "http://www.w3.org/Graphics/SVG/1.1/DTD/svg11.dtd">
<svg version="1.1" id="图层_1" xmlns="http://www.w3.org/2000/svg" xmlns:xlink="http://www.w3.org/1999/xlink" x="0px" y="0px"
	 width="20px" height="20px" viewBox="0 0 20 20" enable-background="new 0 0 20 20" xml:space="preserve">
<rect x="19" y="2" fill="#040000" width="1" height="18"/>
<rect x="0" y="2" fill="#040000" width="1" height="18"/>
<rect x="0.292" y="19" fill="#040000" width="19.208" height="1"/>
<rect x="0.292" y="7" fill="#040000" width="19.208" height="1"/>
<rect x="0" y="2.017" fill="#040000" width="4" height="1"/>
<rect x="16" y="2.017" fill="#040000" width="4" height="1"/>
<rect x="8" y="2.017" fill="#040000" width="4" height="1"/>
<rect x="5" fill="#040000" width="2" height="4"/>
<rect x="13" fill="#040000" width="2" height="4"/>
<rect x="4" y="16" fill="#040000" width="1" height="1"/>
<rect x="4" y="13" fill="#040000" width="1" height="1"/>
<rect x="4" y="10" fill="#040000" width="1" height="1"/>
<rect x="7.667" y="16" fill="#040000" width="1" height="1"/>
<rect x="7.667" y="13" fill="#040000" width="1" height="1"/>
<rect x="7.667" y="10" fill="#040000" width="1" height="1"/>
<rect x="11.334" y="16" fill="#040000" width="1" height="1"/>
<rect x="11.334" y="13" fill="#040000" width="1" height="1"/>
<rect x="11.334" y="10" fill="#040000" width="1" height="1"/>
<rect x="15" y="16" fill="#040000" width="1" height="1"/>
<rect x="15" y="13" fill="#040000" width="1" height="1"/>
<rect x="15" y="10" fill="#040000" width="1" height="1"/>
</svg>
