<?xml version="1.0" encoding="utf-8"?>
<!-- Generator: Adobe Illustrator 16.0.0, SVG Export Plug-In . SVG Version: 6.00 Build 0)  -->
<!DOCTYPE svg PUBLIC "-//W3C//DTD SVG 1.1//EN" "http://www.w3.org/Graphics/SVG/1.1/DTD/svg11.dtd">
<svg version="1.1" id="图层_1" xmlns="http://www.w3.org/2000/svg" xmlns:xlink="http://www.w3.org/1999/xlink" x="0px" y="0px"
	 width="20px" height="20px" viewBox="0 0 20 20" enable-background="new 0 0 20 20" xml:space="preserve">
<path d="M19.43,3.584c-0.336,0.378-2.272,2.29-3.076,3.023c-0.85,0.85-2.051,0.85-2.901,0c-0.851-0.849-0.851-2.05,0-2.9
	c0.783-0.782,3.001-3.138,2.987-3.142c-2.274-1.048-5.055-0.644-6.931,1.23C7.8,3.503,7.312,5.962,8.031,8.106L0.802,15.33
	c-1.069,1.068-1.069,2.801,0,3.867c1.068,1.07,2.8,1.07,3.869,0l7.23-7.223c2.145,0.717,4.606,0.23,6.313-1.477
	C20.088,8.625,20.477,5.856,19.43,3.584"/>
</svg>
