<?xml version="1.0" encoding="utf-8"?>
<!-- Generator: Adobe Illustrator 16.0.0, SVG Export Plug-In . SVG Version: 6.00 Build 0)  -->
<!DOCTYPE svg PUBLIC "-//W3C//DTD SVG 1.1//EN" "http://www.w3.org/Graphics/SVG/1.1/DTD/svg11.dtd">
<svg version="1.1" id="图层_1" xmlns="http://www.w3.org/2000/svg" xmlns:xlink="http://www.w3.org/1999/xlink" x="0px" y="0px"
	 width="19px" height="20px" viewBox="0 0 19 20" enable-background="new 0 0 19 20" xml:space="preserve">
<polygon fill-rule="evenodd" clip-rule="evenodd" fill="#040000" points="17,15 17,10 17,9 10,9 10,7 13,7 13,0 6,0 6,7 9,7 9,9 
	2,9 2,10 2,15 0,15 0,20 5,20 5,15 3,15 3,10 9,10 9,15 7,15 7,20 12,20 12,15 10,15 10,10 16,10 16,15 14,15 14,20 19,20 19,15 "/>
</svg>
