<?xml version="1.0" encoding="utf-8"?>
<!-- Generator: Adobe Illustrator 16.0.0, SVG Export Plug-In . SVG Version: 6.00 Build 0)  -->
<!DOCTYPE svg PUBLIC "-//W3C//DTD SVG 1.1//EN" "http://www.w3.org/Graphics/SVG/1.1/DTD/svg11.dtd">
<svg version="1.1" id="图层_1" xmlns="http://www.w3.org/2000/svg" xmlns:xlink="http://www.w3.org/1999/xlink" x="0px" y="0px"
	 width="19.949px" height="20px" viewBox="0 0 19.949 20" enable-background="new 0 0 19.949 20" xml:space="preserve">
<path fill-rule="evenodd" clip-rule="evenodd" d="M9.975,0c2.77,0,5.013,2.238,5.013,5s-2.243,5-5.013,5
	c-2.769,0-5.013-2.238-5.013-5S7.206,0,9.975,0"/>
<path fill-rule="evenodd" clip-rule="evenodd" d="M5.969,16.308l5.235-5.225C10.801,11.035,10.392,11,9.974,11
	C4.776,11,0.503,14.947,0,20h5.969V16.308z"/>
<path fill-rule="evenodd" clip-rule="evenodd" d="M13.68,20h6.27c-0.168-1.689-0.766-3.252-1.671-4.588L13.68,20z"/>
<polygon fill-rule="evenodd" clip-rule="evenodd" points="17.543,13.316 10.846,20 7.975,20 7.975,17.136 14.672,10.453 "/>
<path fill-rule="evenodd" clip-rule="evenodd" d="M19.707,11.158l-1.211,1.207l-2.867-2.86l1.209-1.206
	c0.393-0.392,1.027-0.392,1.418,0l1.451,1.445C20.098,10.136,20.098,10.768,19.707,11.158"/>
</svg>
