<?xml version="1.0" encoding="utf-8"?>
<!-- Generator: Adobe Illustrator 16.0.0, SVG Export Plug-In . SVG Version: 6.00 Build 0)  -->
<!DOCTYPE svg PUBLIC "-//W3C//DTD SVG 1.1//EN" "http://www.w3.org/Graphics/SVG/1.1/DTD/svg11.dtd">
<svg version="1.1" id="图层_1" xmlns="http://www.w3.org/2000/svg" xmlns:xlink="http://www.w3.org/1999/xlink" x="0px" y="0px"
	 width="15px" height="15px" viewBox="0 0 15 15" enable-background="new 0 0 15 15" xml:space="preserve">
<path fill="#040000" d="M7.5,1C11.084,1,14,3.916,14,7.5c0,3.585-2.916,6.5-6.5,6.5C3.916,14,1,11.085,1,7.5C1,3.916,3.916,1,7.5,1
	 M7.5,0C3.358,0,0,3.358,0,7.5C0,11.644,3.358,15,7.5,15S15,11.644,15,7.5C15,3.358,11.642,0,7.5,0"/>
<polygon fill-rule="evenodd" clip-rule="evenodd" points="6.721,3.07 8.135,3.07 8.135,8.878 6.721,8.667 "/>
<polygon fill-rule="evenodd" clip-rule="evenodd" points="10.979,10.89 9.985,11.896 6.721,8.666 7.003,6.957 "/>
</svg>
