<?xml version="1.0" standalone="no"?><!DOCTYPE svg PUBLIC "-//W3C//DTD SVG 1.1//EN" "http://www.w3.org/Graphics/SVG/1.1/DTD/svg11.dtd"><svg t="1505721457674" class="icon" style="" viewBox="0 0 1024 1024" version="1.1" xmlns="http://www.w3.org/2000/svg" p-id="2929" xmlns:xlink="http://www.w3.org/1999/xlink" width="200" height="200"><defs><style type="text/css"></style></defs><path d="M512.23536 955.450764c-246.585071 0-447.194018-200.607924-447.194018-447.194018S265.650289 61.063751 512.23536 61.063751c246.567675 0 447.175599 200.607924 447.175599 447.194018S758.804059 955.450764 512.23536 955.450764zM512.23536 96.839559c-226.863914 0-411.41821 184.554296-411.41821 411.41821s184.554296 411.41821 411.41821 411.41821c226.845495 0 411.400814-184.554296 411.400814-411.41821S739.081878 96.839559 512.23536 96.839559z" p-id="2930"></path><path d="M689.055 700.524c-3.772 0-7.542-1.44-10.421-4.318l-353.737-353.737c-5.758-5.756-5.758-15.084 0-20.842s15.084-5.756 20.842 0l353.737 353.735c5.756 5.756 5.756 15.084 0 20.842-2.879 2.88-6.65 4.318-10.421 4.318z" p-id="2931"></path><path d="M335.319 700.524c-3.772 0-7.542-1.44-10.421-4.318-5.758-5.756-5.758-15.084 0-20.842l353.737-353.737c5.756-5.756 15.084-5.756 20.842 0s5.756 15.084 0 20.842l-353.737 353.737c-2.879 2.879-6.65 4.318-10.421 4.318z" p-id="2932"></path></svg>