<?xml version="1.0" encoding="utf-8"?>
<!-- Generator: Adobe Illustrator 16.0.0, SVG Export Plug-In . SVG Version: 6.00 Build 0)  -->
<!DOCTYPE svg PUBLIC "-//W3C//DTD SVG 1.1//EN" "http://www.w3.org/Graphics/SVG/1.1/DTD/svg11.dtd">
<svg version="1.1" id="图层_1" xmlns="http://www.w3.org/2000/svg" xmlns:xlink="http://www.w3.org/1999/xlink" x="0px" y="0px"
	 width="16px" height="16px" viewBox="0 0 16 16" enable-background="new 0 0 16 16" xml:space="preserve">
<rect x="0" y="9" fill-rule="evenodd" clip-rule="evenodd" width="7" height="7"/>
<polygon fill-rule="evenodd" clip-rule="evenodd" points="0,0 0,1 0,2 1,2 1,1 2,1 2,0 1,0 "/>
<polygon fill-rule="evenodd" clip-rule="evenodd" points="6,0 5,0 5,1 6,1 6,2 7,2 7,1 7,0 "/>
<polygon fill-rule="evenodd" clip-rule="evenodd" points="1,5 0,5 0,6 0,7 1,7 2,7 2,6 1,6 "/>
<polygon fill-rule="evenodd" clip-rule="evenodd" points="6,6 5,6 5,7 6,7 7,7 7,6 7,5 6,5 "/>
<polygon fill-rule="evenodd" clip-rule="evenodd" points="16,3.999 12,0 8,3.999 10,3.999 10,4 11,3 11,16 13,16 13,3 14,3.999 "/>
</svg>
