<?xml version="1.0" encoding="utf-8"?>
<!-- Generator: Adobe Illustrator 16.0.0, SVG Export Plug-In . SVG Version: 6.00 Build 0)  -->
<!DOCTYPE svg PUBLIC "-//W3C//DTD SVG 1.1//EN" "http://www.w3.org/Graphics/SVG/1.1/DTD/svg11.dtd">
<svg version="1.1" id="图层_1" xmlns="http://www.w3.org/2000/svg" xmlns:xlink="http://www.w3.org/1999/xlink" x="0px" y="0px"
	 width="16.072px" height="16px" viewBox="0 0 16.072 16" enable-background="new 0 0 16.072 16" xml:space="preserve">
<rect x="9.072" fill-rule="evenodd" clip-rule="evenodd" width="7" height="7"/>
<polygon fill-rule="evenodd" clip-rule="evenodd" points="16.072,16 16.072,15 16.072,14 15.072,14 15.072,15 14.072,15 14.072,16 
	15.072,16 "/>
<polygon fill-rule="evenodd" clip-rule="evenodd" points="10.072,16 11.072,16 11.072,15 10.072,15 10.072,14 9.072,14 9.072,15 
	9.072,16 "/>
<polygon fill-rule="evenodd" clip-rule="evenodd" points="15.072,11 16.072,11 16.072,10 16.072,9 15.072,9 14.072,9 14.072,10 
	15.072,10 "/>
<polygon fill-rule="evenodd" clip-rule="evenodd" points="10.072,10 11.072,10 11.072,9 10.072,9 9.072,9 9.072,10 9.072,11 
	10.072,11 "/>
<polygon fill-rule="evenodd" clip-rule="evenodd" points="0.072,12 4.072,16 8.072,12 6.072,12 6.072,12 5.072,13 5.072,0 3.072,0 
	3.072,13 2.072,12 "/>
</svg>
