<?xml version="1.0" standalone="no"?><!DOCTYPE svg PUBLIC "-//W3C//DTD SVG 1.1//EN" "http://www.w3.org/Graphics/SVG/1.1/DTD/svg11.dtd"><svg t="1506587257724" class="icon" style="" viewBox="0 0 1024 1024" version="1.1" xmlns="http://www.w3.org/2000/svg" p-id="1853" xmlns:xlink="http://www.w3.org/1999/xlink" width="200" height="200"><defs><style type="text/css"></style></defs><path d="M346.963 610.763c-4.285 8.218-9.452 15.911-15.323 23.074-5.931 7.103-14.152 13.383-24.66 18.609-10.508 5.289-23.306 7.927-38.044 7.927-14.148 0-26.595-2.701-37.572-8.336-10.864-5.579-19.727-12.094-26.361-19.61-6.519-7.514-10.978-14.206-13.387-20.022L63.333 360.833h89.064l102.392 196.621c2.994 5.814 5.168 9.393 6.635 11.393 1.524 1.877 3.873 2.876 7.162 2.876 3.639 0 6.163-0.999 7.809-3.054 1.468-1.997 3.7-5.756 6.515-11.214l103.093-196.621h90.179L346.963 610.763z m472.729-77.734c-6.868 2.703-14.618 4.524-23.485 5.642-8.867 1.11-14.029 1.995-15.675 2.523l179.654 204.015H857.854L676.38 541.193H574.404v111.253h-79.375V471.21h247.226c4.872 0 9.805-1.997 14.678-5.872 4.755-3.872 7.219-9.158 7.219-16.143 0-4.989-1.233-8.924-3.523-11.922-2.288-2.992-5.458-5.161-9.273-6.457-3.878-1.466-7.75-2.111-11.979-2.111H495.029v-67.872h298.536c13.913 0 25.893 5.228 35.93 15.973 10.101 10.798 15.208 23.659 15.208 38.629v72.682c0 13.037-2.524 23.076-7.457 30.063-4.815 7.224-10.801 12.152-17.554 14.849z" p-id="1854"></path></svg>