<?xml version="1.0" encoding="utf-8"?>
<!-- Generator: Adobe Illustrator 16.0.0, SVG Export Plug-In . SVG Version: 6.00 Build 0)  -->
<!DOCTYPE svg PUBLIC "-//W3C//DTD SVG 1.1//EN" "http://www.w3.org/Graphics/SVG/1.1/DTD/svg11.dtd">
<svg version="1.1" id="图层_1" xmlns="http://www.w3.org/2000/svg" xmlns:xlink="http://www.w3.org/1999/xlink" x="0px" y="0px"
	 width="24px" height="24px" viewBox="0 0 24 24" enable-background="new 0 0 24 24" xml:space="preserve">
<path d="M12,0C5.373,0,0,5.372,0,12c0,6.627,5.373,12,12,12c6.626,0,12-5.373,12-12C24,5.372,18.626,0,12,0 M13.034,19.558
	c-0.325,0.287-0.745,0.445-1.178,0.441c-0.459,0-0.837-0.154-1.133-0.461c-0.317-0.287-0.494-0.695-0.489-1.121
	c0-0.471,0.163-0.844,0.489-1.121c0.281-0.293,0.659-0.441,1.133-0.441c0.488,0,0.881,0.148,1.178,0.441
	c0.311,0.277,0.466,0.65,0.466,1.121C13.5,18.871,13.345,19.251,13.034,19.558 M16.21,10.988c-0.224,0.265-0.853,0.835-1.89,1.714
	c-0.414,0.365-0.717,0.738-0.91,1.119c-0.238,0.428-0.355,0.916-0.355,1.475v0.373h-2.378v-0.373c0-0.834,0.141-1.531,0.423-2.088
	c0.311-0.602,1.155-1.51,2.531-2.726l0.377-0.418c0.402-0.513,0.601-1.047,0.601-1.603c0-0.748-0.214-1.35-0.644-1.804
	C13.522,6.219,12.9,6,12.1,6c-1.007,0-1.733,0.307-2.177,0.923c-0.399,0.526-0.6,1.281-0.6,2.263H6.969
	c0-1.596,0.473-2.856,1.422-3.78C9.323,4.468,10.604,4,12.234,4c1.451,0,2.613,0.387,3.486,1.163
	c0.875,0.777,1.311,1.824,1.311,3.144C17.031,9.377,16.757,10.27,16.21,10.988"/>
</svg>
