<?xml version="1.0" encoding="utf-8"?>
<!-- Generator: Adobe Illustrator 16.0.0, SVG Export Plug-In . SVG Version: 6.00 Build 0)  -->
<!DOCTYPE svg PUBLIC "-//W3C//DTD SVG 1.1//EN" "http://www.w3.org/Graphics/SVG/1.1/DTD/svg11.dtd">
<svg version="1.1" id="图层_1" xmlns="http://www.w3.org/2000/svg" xmlns:xlink="http://www.w3.org/1999/xlink" x="0px" y="0px"
	 width="30px" height="30px" viewBox="0 0 30 30" enable-background="new 0 0 30 30" xml:space="preserve">
<path fill-rule="evenodd" clip-rule="evenodd" fill="#040000" d="M15,0C6.716,0,0,6.717,0,15c0,8.283,6.716,15,15,15
	c8.285,0,15-6.717,15-15C30,6.717,23.285,0,15,0 M15,7l5,5h-3v7h-4v-7h-3L15,7z M23,18v1.844V22v1H7v-1v-3v-3h2v2v1v2h12v-1.156V18
	v-2h2V18z"/>
</svg>
