<?xml version="1.0" encoding="utf-8"?>
<!-- Generator: Adobe Illustrator 16.0.0, SVG Export Plug-In . SVG Version: 6.00 Build 0)  -->
<!DOCTYPE svg PUBLIC "-//W3C//DTD SVG 1.1//EN" "http://www.w3.org/Graphics/SVG/1.1/DTD/svg11.dtd">
<svg version="1.1" id="图层_1" xmlns="http://www.w3.org/2000/svg" xmlns:xlink="http://www.w3.org/1999/xlink" x="0px" y="0px"
	 width="30px" height="30px" viewBox="0 0 30 30" enable-background="new 0 0 30 30" xml:space="preserve">
<path fill-rule="evenodd" clip-rule="evenodd" fill="#040000" d="M15,0C6.716,0,0,6.716,0,15c0,8.284,6.716,15,15,15
	c8.285,0,15-6.717,15-15C30,6.716,23.285,0,15,0 M20,23H10c-0.552,0-1-0.447-1-1V11h2v10h8V11h2v10.999V22
	C21,22.553,20.553,23,20,23 M13,11h1v9h-1V11z M16,11h1v9h-1V11z M22,10H8V8h6V7h2v1h6V10z"/>
</svg>
