<?xml version="1.0" encoding="utf-8"?>
<!-- Generator: Adobe Illustrator 22.1.0, SVG Export Plug-In . SVG Version: 6.00 Build 0)  -->
<svg version="1.1" id="图层_1" xmlns="http://www.w3.org/2000/svg" xmlns:xlink="http://www.w3.org/1999/xlink" x="0px" y="0px"
	 viewBox="0 0 16 16" style="enable-background:new 0 0 16 16;" xml:space="preserve">
<g>
	<path d="M11.6,6.2l-4.5,4.4c-0.1,0.1-0.2,0.2-0.4,0.2c-0.1,0-0.2,0-0.3-0.1L4.4,8C4.3,7.9,4.3,7.8,4.3,7.7c0-0.1,0.1-0.3,0.2-0.3
		c0.1-0.1,0.2-0.2,0.4-0.2c0.1,0,0.2,0,0.3,0.1l1.6,2.2l4.2-4c0.1-0.1,0.2-0.1,0.3-0.1c0.1,0,0.3,0.1,0.4,0.1
		c0.1,0.1,0.1,0.2,0.1,0.3C11.7,5.9,11.7,6.1,11.6,6.2z"/>
	<path d="M8,1.1c3.8,0,6.9,3.1,6.9,6.9s-3.1,6.9-6.9,6.9S1.1,11.8,1.1,8S4.2,1.1,8,1.1 M8,0C3.6,0,0,3.6,0,8c0,4.4,3.6,8,8,8
		s8-3.6,8-8C16,3.6,12.4,0,8,0L8,0z"/>
</g>
</svg>
