<?xml version="1.0" standalone="no"?><!DOCTYPE svg PUBLIC "-//W3C//DTD SVG 1.1//EN" "http://www.w3.org/Graphics/SVG/1.1/DTD/svg11.dtd"><svg t="1506678925432" class="icon" style="" viewBox="0 0 1024 1024" version="1.1" xmlns="http://www.w3.org/2000/svg" p-id="2490" xmlns:xlink="http://www.w3.org/1999/xlink" width="200" height="200"><defs><style type="text/css"></style></defs><path d="M331.492 890.138c-129.826-61.14-222.73-187.394-237.022-336.674h-59.553c20.247 244.565 224.714 436.723 474.439 436.723l26.203-1.19-151.264-151.265c0 0-52.804 52.406-52.804 52.406zM366.827 631.28c-7.543 0-14.69-1.19-20.645-3.177-6.353-2.382-11.514-5.162-15.881-9.529-4.367-3.97-7.941-8.734-10.322-14.69-2.382-5.558-3.573-11.91-3.573-18.659h-51.613c0 14.292 2.779 26.997 8.337 37.716 5.558 10.72 13.102 19.852 22.234 27.394 9.527 7.147 20.247 12.704 32.556 16.278 11.91 3.97 24.615 5.955 38.114 5.955 14.69 0 28.586-1.985 40.893-5.955 12.704-3.97 23.822-9.925 32.954-17.469 9.132-7.543 16.675-17.072 21.836-28.586 5.162-11.514 7.941-24.219 7.941-38.511 0-7.543-0.794-15.087-2.779-22.234-1.985-7.147-4.765-13.897-9.132-20.247-3.97-6.353-9.527-11.91-15.881-17.072-6.749-5.161-14.69-9.132-24.219-12.308 7.941-3.573 14.69-7.941 20.645-13.102 5.955-5.162 10.72-10.72 14.69-16.675 3.97-5.955 6.749-11.91 8.734-18.263 1.985-6.353 2.779-12.704 2.779-19.057 0-14.292-2.382-26.997-7.147-38.114-4.765-11.116-11.514-20.247-20.247-27.394-7.941-7.543-18.659-13.102-30.571-17.072-12.308-3.572-25.806-5.558-40.496-5.558-14.292 0-27.394 1.985-39.702 6.353-11.91 4.367-22.63 10.322-31.365 17.866-8.337 7.543-15.087 16.278-20.247 26.601-4.765 10.322-7.147 21.439-7.147 33.747h51.613c0-6.749 1.19-12.704 3.573-17.866 2.382-5.161 5.558-9.925 9.925-13.499 4.367-3.573 9.132-6.749 15.087-8.734 5.955-1.985 11.91-3.177 19.057-3.177 15.881 0 27.791 3.97 35.334 12.308 7.543 7.941 11.514 19.454 11.514 34.144 0 7.147-1.19 13.499-3.177 19.454s-5.558 10.72-9.925 14.69c-4.367 3.97-9.925 7.147-16.278 9.529s-14.292 3.573-23.027 3.573h-30.571v40.893h30.571c8.734 0 16.675 0.794 23.822 2.779s13.102 5.161 17.866 9.132c4.765 4.367 8.734 9.527 11.514 15.881 2.779 6.353 3.97 13.897 3.97 22.63 0 16.278-4.765 28.586-13.897 36.923-9.132 9.131-21.836 13.101-37.717 13.101zM706.279 396.243c-12.704-13.102-27.791-23.424-45.26-30.571-17.072-7.147-36.526-10.72-57.966-10.72h-93.697v317.617h91.315c21.836 0 42.084-3.573 59.95-10.72s33.349-17.072 46.054-30.173c12.704-13.102 22.63-28.982 29.379-47.246 6.749-18.659 10.322-39.305 10.322-62.333v-15.881c0-23.027-3.573-43.671-10.322-62.333-7.147-18.659-17.072-34.541-29.777-47.642zM690.797 521.702c0 16.675-1.985 31.365-5.558 44.864-3.97 13.102-9.527 24.615-17.072 33.747-7.543 9.132-17.072 16.278-28.189 21.042-11.514 4.765-24.615 7.147-39.305 7.147h-36.128v-229.082h38.511c28.586 0 50.422 9.132 65.111 27.394 15.087 18.263 22.63 44.466 22.63 79.007v15.882zM509.358 37.337l-26.203 1.19 151.265 151.265 52.803-52.803c129.826 61.538 222.729 187.394 236.624 336.674h59.553c-19.85-244.167-224.316-436.325-474.043-436.325z" p-id="2491"></path></svg>