<?xml version="1.0" encoding="utf-8"?>
<!-- Generator: Adobe Illustrator 22.1.0, SVG Export Plug-In . SVG Version: 6.00 Build 0)  -->
<svg version="1.1" id="图层_1" xmlns="http://www.w3.org/2000/svg" xmlns:xlink="http://www.w3.org/1999/xlink" x="0px" y="0px"
	 viewBox="0 0 16 16" style="enable-background:new 0 0 16 16;" xml:space="preserve">
<g>
	<path d="M11,13.4c-0.3,0-0.6-0.3-0.6-0.6V6.8c0-0.3,0.2-0.6,0.6-0.6s0.6,0.2,0.6,0.6v6.1C11.6,13.2,11.3,13.4,11,13.4z M8,13.4
		c-0.3,0-0.6-0.3-0.6-0.6V6.8c0-0.3,0.2-0.6,0.6-0.6c0.3,0,0.6,0.2,0.6,0.6v6.1C8.6,13.2,8.4,13.4,8,13.4z M5.1,13.4
		c-0.3,0-0.6-0.3-0.6-0.6V6.8c0-0.3,0.2-0.6,0.6-0.6s0.6,0.2,0.6,0.6v6.1C5.7,13.2,5.4,13.4,5.1,13.4z"/>
	<path d="M2.8,16c-0.8,0-1.3-0.5-1.3-1.1V3.1H0.6C0.2,3.1,0,2.9,0,2.6S0.2,2,0.6,2h3.5V1c0-0.5,0.4-1,0.9-1H11c0.6,0,1,0.6,1,1v1
		h3.4C15.8,2,16,2.3,16,2.6s-0.2,0.6-0.6,0.6h-0.9v11.7c0,0.6-0.6,1.1-1.4,1.1H2.8z M13.2,14.9c0.1,0,0.2,0,0.2,0l0-11.7H2.7v11.7
		c0,0,0,0,0,0C2.7,14.9,13.2,14.9,13.2,14.9z M10.8,2V1.4c0-0.1-0.1-0.3-0.2-0.3H5.4c0,0-0.1,0.1-0.1,0.3V2H10.8z"/>
</g>
</svg>
