<?xml version="1.0" standalone="no"?><!DOCTYPE svg PUBLIC "-//W3C//DTD SVG 1.1//EN" "http://www.w3.org/Graphics/SVG/1.1/DTD/svg11.dtd"><svg t="1542163946544" class="icon" style="" viewBox="0 0 1024 1024" version="1.1" xmlns="http://www.w3.org/2000/svg" p-id="1051" xmlns:xlink="http://www.w3.org/1999/xlink" width="200" height="200"><defs><style type="text/css"></style></defs><path d="M840.4 65H183.6c-25.9 0-46.6 23.9-46.6 49.1V867c0 25.2 20.7 41.9 46.6 41.9H277v27.3c0 13 10.5 23.5 23.5 23.5s23.5-10.5 23.5-23.5V909h376v27.3c0 13 10.5 23.5 23.5 23.5s23.5-10.5 23.5-23.5V909h93.4c25.9 0 46.6-16.7 46.6-41.9v-753c0-25.2-20.7-49.1-46.6-49.1z m0.2 47.1l-0.1 139.9H184V115.3l656.6-3.2zM184 299h305v567.5l-183.2 0.3c-1.6-0.3-3.2-1-4.8-1-1.7 0-3.1 0.6-4.7 1l-112.3 0.3V299z m656.4 566.9l-116.3 0.2c-0.4 0-0.7-0.2-1-0.2-0.4 0-0.9 0.2-1.3 0.2l-186.8 0.3V299h305.5l0.3 564.8s-0.1 2.1-0.4 2.1z" fill="#777B88" p-id="1052"></path><path d="M394.7 561m-35.2 0a35.2 35.2 0 1 0 70.4 0 35.2 35.2 0 1 0-70.4 0Z" fill="#777B88" p-id="1053"></path><path d="M629.3 561m-35.2 0a35.2 35.2 0 1 0 70.4 0 35.2 35.2 0 1 0-70.4 0Z" fill="#777B88" p-id="1054"></path></svg>