<?xml version="1.0" standalone="no"?><!DOCTYPE svg PUBLIC "-//W3C//DTD SVG 1.1//EN" "http://www.w3.org/Graphics/SVG/1.1/DTD/svg11.dtd"><svg t="1542165305604" class="icon" style="" viewBox="0 0 1024 1024" version="1.1" xmlns="http://www.w3.org/2000/svg" p-id="3672" xmlns:xlink="http://www.w3.org/1999/xlink" width="200" height="200"><defs><style type="text/css"></style></defs><path d="M497.5 128.6L106.1 520c-9.4 9.4-9.4 24.6 0 33.9 9.4 9.4 24.6 9.4 33.9 0l374.4-374.4L886 551c9.4 9.4 24.6 9.4 33.9 0 4.7-4.7 7-10.8 7-17s-2.3-12.3-7-17L531.4 128.6c-9.4-9.4-24.6-9.4-33.9 0z" fill="#AAAAAA" p-id="3673"></path><path d="M514.4 463.1c-6.4 0-12.5 2.5-17 7L106.1 861.5c-9.4 9.4-9.4 24.6 0 33.9 9.4 9.4 24.6 9.4 33.9 0L514.4 521 886 892.5c9.4 9.4 24.6 9.4 33.9 0 4.7-4.7 7-10.8 7-17s-2.3-12.3-7-17L531.4 470.1c-4.5-4.5-10.6-7-17-7z" fill="#AAAAAA" p-id="3674"></path></svg>