<?xml version="1.0" standalone="no"?><!DOCTYPE svg PUBLIC "-//W3C//DTD SVG 1.1//EN" "http://www.w3.org/Graphics/SVG/1.1/DTD/svg11.dtd"><svg t="1542165351851" class="icon" style="" viewBox="0 0 1024 1024" version="1.1" xmlns="http://www.w3.org/2000/svg" p-id="4023" xmlns:xlink="http://www.w3.org/1999/xlink" width="200" height="200"><defs><style type="text/css"></style></defs><path d="M129.6 527.5L521 918.9c9.4 9.4 24.6 9.4 33.9 0 9.4-9.4 9.4-24.6 0-33.9L180.5 510.5 552 139c9.4-9.4 9.4-24.6 0-33.9-4.7-4.7-10.8-7-17-7s-12.3 2.3-17 7L129.6 493.6c-9.4 9.3-9.4 24.5 0 33.9z" fill="#AAAAAA" p-id="4024"></path><path d="M464 510.5c0 6.4 2.5 12.5 7 17l391.4 391.4c9.4 9.4 24.6 9.4 33.9 0 9.4-9.4 9.4-24.6 0-33.9L522 510.5 893.5 139c9.4-9.4 9.4-24.6 0-33.9-4.7-4.7-10.8-7-17-7s-12.3 2.3-17 7L471.1 493.6c-4.5 4.5-7.1 10.6-7.1 16.9z" fill="#AAAAAA" p-id="4025"></path></svg>