<?xml version="1.0" standalone="no"?><!DOCTYPE svg PUBLIC "-//W3C//DTD SVG 1.1//EN" "http://www.w3.org/Graphics/SVG/1.1/DTD/svg11.dtd"><svg t="1542166036450" class="icon" style="" viewBox="0 0 1024 1024" version="1.1" xmlns="http://www.w3.org/2000/svg" p-id="6530" xmlns:xlink="http://www.w3.org/1999/xlink" width="200" height="200"><defs><style type="text/css"></style></defs><path d="M804.171376 557.272562l0 57.874202-65.341841 0q-2.800365 27.070191-7.467639 62.541477t-8.867821 73.276208-8.867821 75.143118-7.934366 67.675479-6.067457 51.340018-2.800365 25.670009q-1.86691 19.602552-15.868733 36.40474t-36.40474 16.802188l-373.381951 0q-18.669098 0-38.27165-15.402005t-24.269827-47.139471q-0.933455-7.467639-3.267092-28.937101t-5.600729-51.340018-7.467639-65.341841-8.401094-71.409298-8.401094-69.542388-7.000912-59.741112l-65.341841 0 0-57.874202 292.171376 0 0-79.343665q-7.467639-20.536007-17.268915-44.339107t-21.469462-47.606199-24.269827-45.739289-26.603464-38.738377q-28.937101-35.471285-63.941659-48.072926t-65.808569-14.468551q-36.40474-1.86691-71.876026 8.401094 35.471285-35.471285 70.009116-58.807657 14.935278-9.334549 30.804011-17.735643t32.204193-11.668186 31.737466-1.400182 28.470374 12.134913q14.001823 10.268004 27.536919 31.270738t26.136737 48.072926 23.803099 57.874202 20.536007 60.674567l0-266.03464q-5.600729 1.86691-8.401094 1.86691-6.534184 0-11.201459-4.200547t-4.667274-11.668186q0-8.401094 6.534184-13.068368-12.134913-3.73382-12.134913-15.868733 0-6.534184 4.667274-11.201459t12.134913-4.667274l1.86691 0q-4.667274-4.667274-4.667274-11.201459 0-15.868733 15.868733-15.868733l2.800365 0q0-15.868733 15.868733-15.868733 12.134913 0 14.935278 11.201459 6.534184-6.534184 13.068368-6.534184t11.201459 4.667274 4.667274 11.201459l0 0.933455q1.86691 0 2.800365-0.466727t2.800365-0.466727q7.467639 0 12.134913 4.667274t4.667274 11.201459q0 4.667274-2.800365 8.401094 9.334549 4.667274 9.334549 14.001823 0 14.001823-14.001823 15.868733 7.467639 4.667274 7.467639 13.068368 0 7.467639-4.667274 11.668186t-12.134913 4.200547q-6.534184 0-10.268004-3.73382l0 357.513218q19.602552-42.938924 45.272562-82.610757t58.34093-69.542388q26.136737-23.336372 55.540565-42.005469t59.741112-32.670921 60.674567-24.269827 58.34093-17.735643q65.341841-16.802188 129.750228-22.402917-53.206928 29.870556-103.613491 62.541477-42.938924 28.937101-87.744758 64.875114t-73.742935 75.143118q-42.938924 56.940747-83.544211 105.013674t-73.276208 83.544211l305.239745 0z" p-id="6531"></path></svg>