<?xml version="1.0" standalone="no"?><!DOCTYPE svg PUBLIC "-//W3C//DTD SVG 1.1//EN" "http://www.w3.org/Graphics/SVG/1.1/DTD/svg11.dtd"><svg t="1542172056460" class="icon" style="" viewBox="0 0 1024 1024" version="1.1" xmlns="http://www.w3.org/2000/svg" p-id="7050" xmlns:xlink="http://www.w3.org/1999/xlink" width="200" height="200"><defs><style type="text/css"></style></defs><path d="M914.4 835.2H109.6c-37.6 0-67.2-30.4-67.2-67.2V256c0-37.6 30.4-67.2 67.2-67.2h805.6c18.4 0 35.2 7.2 48 20 12.8 12.8 20 29.6 20 48V768c-0.8 36.8-31.2 67.2-68.8 67.2zM109.6 236.8c-10.4 0-19.2 8.8-19.2 19.2v512c0 10.4 8.8 19.2 19.2 19.2h805.6c10.4 0 19.2-8.8 19.2-19.2V256c0-5.6-1.6-10.4-5.6-13.6-4-4-8.8-5.6-13.6-5.6H109.6z" fill="" p-id="7051"></path><path d="M256 452c0 32.8 26.4 60 60 60 32.8 0 60-26.4 60-60 0-32.8-26.4-60-60-60S256 419.2 256 452z" fill="" p-id="7052"></path><path d="M321.6 327.2v-27.2h-10.4v27.2c-64.8 2.4-116.8 54.4-119.2 119.2h-27.2v10.4H192c2.4 64.8 54.4 117.6 119.2 120v27.2h10.4v-27.2c64.8-2.4 116.8-55.2 119.2-120h27.2v-10.4h-27.2c-3.2-64.8-55.2-116-119.2-119.2z m108 130.4c-2.4 59.2-49.6 106.4-108 108.8v-43.2h-10.4v43.2c-59.2-2.4-105.6-49.6-108.8-108.8h43.2v-10.4h-43.2c3.2-58.4 49.6-105.6 108.8-108v43.2h10.4v-43.2c58.4 2.4 105.6 49.6 108.8 108h-43.2v10.4h42.4z" fill="" p-id="7053"></path><path d="M712.8 452m-60 0a60 60 0 1 0 120 0 60 60 0 1 0-120 0Z" fill="" p-id="7054"></path><path d="M838.4 446.4c-3.2-64.8-55.2-116.8-119.2-119.2v-27.2h-10.4v27.2c-64.8 2.4-116.8 54.4-119.2 119.2h-27.2v10.4h27.2c2.4 64.8 54.4 117.6 119.2 120v27.2h10.4v-27.2c64.8-2.4 116.8-55.2 119.2-120h27.2v-10.4h-27.2z m-11.2 11.2c-2.4 59.2-49.6 106.4-108 108.8v-43.2h-10.4v43.2c-59.2-2.4-105.6-49.6-108.8-108.8h43.2v-10.4H600c3.2-58.4 49.6-105.6 108.8-108v43.2h10.4v-43.2c58.4 2.4 105.6 49.6 108.8 108h-43.2v10.4h42.4zM283.2 740.8c0 15.2 12 27.2 27.2 27.2s27.2-12 27.2-27.2-12-27.2-27.2-27.2c-14.4 0-27.2 12-27.2 27.2z" fill="" p-id="7055"></path><path d="M712.8 740.8m-27.2 0a27.2 27.2 0 1 0 54.4 0 27.2 27.2 0 1 0-54.4 0Z" fill="" p-id="7056"></path><path d="M109.6 657.6h804V680H109.6z" fill="" p-id="7057"></path></svg>