<?xml version="1.0" standalone="no"?><!DOCTYPE svg PUBLIC "-//W3C//DTD SVG 1.1//EN" "http://www.w3.org/Graphics/SVG/1.1/DTD/svg11.dtd"><svg t="1542172078818" class="icon" style="" viewBox="0 0 1024 1024" version="1.1" xmlns="http://www.w3.org/2000/svg" p-id="7417" xmlns:xlink="http://www.w3.org/1999/xlink" width="200" height="200"><defs><style type="text/css"></style></defs><path d="M723.2 1000c-14.4 0-24-9.6-24-24 0-24.8 12-50.4 29.6-64 20-16 30.4-39.2 30.4-65.6 0-26.4-11.2-49.6-31.2-65.6-22.4-17.6-33.6-39.2-33.6-64 0-14.4 9.6-24 24-24s24 9.6 24 24c0 10.4 3.2 17.6 11.2 25.6 32 24 49.6 60.8 49.6 104s-17.6 80-50.4 104c-7.2 7.2-10.4 14.4-10.4 24 1.6 4.8 1.6 9.6-1.6 15.2-3.2 6.4-10.4 10.4-17.6 10.4z m-242.4 0c-14.4 0-24-9.6-24-24 0-24.8 12-50.4 29.6-64 20-16 30.4-39.2 30.4-65.6s-11.2-49.6-31.2-65.6c-22.4-17.6-33.6-39.2-33.6-64 0-14.4 9.6-24 24-24s24 9.6 24 24c0 10.4 3.2 17.6 11.2 25.6 32 24 49.6 60.8 49.6 104s-17.6 80-50.4 104c-7.2 7.2-10.4 14.4-10.4 24 1.6 4.8 1.6 9.6-1.6 15.2-3.2 6.4-10.4 10.4-17.6 10.4z m-242.4 0c-14.4 0-24-9.6-24-24 0-24.8 12-50.4 29.6-64 20-16 30.4-39.2 30.4-65.6 0-26.4-11.2-49.6-31.2-65.6-22.4-17.6-33.6-39.2-33.6-64 0-14.4 9.6-24 24-24s24 9.6 24 24c0 10.4 3.2 17.6 11.2 25.6 32 24 49.6 60.8 49.6 104s-17.6 80-50.4 104c-7.2 7.2-10.4 14.4-10.4 24 1.6 4.8 1.6 9.6-1.6 15.2-3.2 6.4-10.4 10.4-17.6 10.4zM96.8 600c-14.4 0-24-9.6-24-24v-64.8c0-34.4 30.4-64.8 64.8-64.8h103.2l147.2-188V46.4c0-14.4 9.6-24 24-24h205.6c14.4 0 24 9.6 24 24V248l155.2 198.4h87.2c34.4 0 64.8 30.4 64.8 64.8v64c1.6 6.4 0.8 12-2.4 16.8-4 4.8-10.4 8-18.4 8H96.8z m804-48.8v-40.8c0-9.6-6.4-16-16-16H137.6c-9.6 0-16 6.4-16 16v40.8h779.2zM723.2 438.4L600 280.8H426.4L303.2 438.4h420zM589.6 232V70.4H432V232h157.6z" fill="" p-id="7418"></path></svg>