<?xml version="1.0" encoding="utf-8"?>
<!-- Generator: Adobe Illustrator 22.1.0, SVG Export Plug-In . SVG Version: 6.00 Build 0)  -->
<svg version="1.1" id="图层_1" xmlns="http://www.w3.org/2000/svg" xmlns:xlink="http://www.w3.org/1999/xlink" x="0px" y="0px"
	 viewBox="0 0 16 16" style="enable-background:new 0 0 16 16;" xml:space="preserve">
<g>
	<g>
		<path d="M13.9,10.7c-0.1,0-0.1,0-0.2,0L11,7.5l2-2.4c0.3,0.1,0.6,0.2,1,0.2c1.1,0,2.1-0.9,2.1-2c0-1.1-0.9-2-2.1-2
			c-1.1,0-2.1,0.9-2.1,2c0,0.5,0.2,0.9,0.5,1.2l-1.9,2.3L8.3,4.4c0,0,0,0,0,0c0,0,0,0,0,0c0,0,0,0,0,0c0,0,0,0,0,0c0,0,0,0,0,0
			C8.2,4.3,8.1,4.3,8,4.3c0,0,0,0,0,0c0,0,0,0,0,0c0,0,0,0,0,0c0,0,0,0,0,0c0,0,0,0,0,0c0,0,0,0,0,0c0,0,0,0,0,0l0,0
			c-0.1,0-0.2,0-0.3,0.1c0,0,0,0,0,0c0,0,0,0,0,0c0,0,0,0,0,0c0,0,0,0,0,0c0,0,0,0,0,0l-2,2.4l-2-2.3C4,4.3,4.2,3.8,4.2,3.3
			c0-1.1-0.9-2-2.1-2C0.9,1.3,0,2.2,0,3.3c0,1.1,0.9,2,2.1,2c0.3,0,0.7-0.1,0.9-0.2l2.1,2.4l-2.6,3.2c-0.1,0-0.3,0-0.5,0
			c-1.1,0-2.1,0.9-2.1,2c0,1.1,0.9,2,2.1,2s2.1-0.9,2.1-2c0-0.6-0.3-1.2-0.8-1.6l2.4-2.9l1.1,1.2c-0.4,0.3-0.6,0.8-0.6,1.3
			c0,1,0.8,1.7,1.8,1.7c1,0,1.8-0.8,1.8-1.7c0-0.5-0.2-0.9-0.5-1.2l1.1-1.4l2.4,2.8c-0.6,0.3-1,1-1,1.7c0,1.1,0.9,2,2.1,2
			c1.1,0,2.1-0.9,2.1-2C16,11.6,15.1,10.7,13.9,10.7L13.9,10.7z M13.9,2.2c0.7,0,1.2,0.5,1.2,1.2c0,0.6-0.5,1.2-1.2,1.2
			c-0.7,0-1.2-0.5-1.2-1.2C12.7,2.7,13.3,2.2,13.9,2.2L13.9,2.2z M0.9,3.3c0-0.6,0.5-1.2,1.2-1.2c0.7,0,1.2,0.5,1.2,1.2
			c0,0.6-0.5,1.2-1.2,1.2C1.4,4.5,0.9,4,0.9,3.3L0.9,3.3z M2.1,13.8c-0.7,0-1.2-0.5-1.2-1.2c0-0.6,0.5-1.2,1.2-1.2
			c0.7,0,1.2,0.5,1.2,1.2C3.3,13.3,2.7,13.8,2.1,13.8L2.1,13.8z M8,11.6c-0.5,0-0.9-0.4-0.9-0.9c0-0.5,0.4-0.9,0.9-0.9
			c0.5,0,0.9,0.4,0.9,0.9C8.9,11.2,8.5,11.6,8,11.6L8,11.6z M8.6,9C8.4,9,8.2,9,8,9C7.8,9,7.7,9,7.6,9L6.2,7.5L8,5.4l1.9,2.1L8.6,9z
			 M13.9,13.8c-0.7,0-1.2-0.5-1.2-1.2c0-0.6,0.5-1.2,1.2-1.2c0.7,0,1.2,0.5,1.2,1.2S14.6,13.8,13.9,13.8L13.9,13.8z M13.9,13.8"/>
	</g>
</g>
</svg>
