<?xml version="1.0" encoding="utf-8"?>
<!-- Generator: Adobe Illustrator 22.1.0, SVG Export Plug-In . SVG Version: 6.00 Build 0)  -->
<svg version="1.1" id="图层_1" xmlns="http://www.w3.org/2000/svg" xmlns:xlink="http://www.w3.org/1999/xlink" x="0px" y="0px"
	 viewBox="0 0 16 16" style="enable-background:new 0 0 16 16;" xml:space="preserve">
<g>
	<path d="M8.8,14h5.8c0.8,0,1.4-0.6,1.4-1.3V9.2c0-0.7-0.6-1.3-1.4-1.3H3.7V7c0,0,0-0.4-0.5-0.6V3.5c0.1-0.2,0.4-0.5,1-0.7
		C5,2.9,5.4,3.2,5.5,3.4v1.2h0.8V3.4h0C6.3,2.7,5.1,2,4.2,2C3.6,2,2.9,2.5,2.6,2.9C2.5,3.1,2.5,3.3,2.4,3.4h0v3.1
		c-0.1,0-0.4,0.3-0.4,0.6v0.8H1.4C0.6,7.9,0,8.5,0,9.2v3.6C0,13.5,0.6,14,1.4,14h6.1 M15.1,12.3c0,0.5-0.6,0.9-1.3,0.9H2.1
		c-0.7,0-1.3-0.4-1.3-0.9V9.7c0-0.5,0.6-0.9,1.3-0.9h11.7c0.7,0,1.3,0.4,1.3,0.9V12.3z"/>
</g>
</svg>
