<?xml version="1.0" encoding="utf-8"?>
<!-- Generator: Adobe Illustrator 22.1.0, SVG Export Plug-In . SVG Version: 6.00 Build 0)  -->
<svg version="1.1" id="图层_1" xmlns="http://www.w3.org/2000/svg" xmlns:xlink="http://www.w3.org/1999/xlink" x="0px" y="0px"
	 viewBox="0 0 16 16" style="enable-background:new 0 0 16 16;" xml:space="preserve">
<g>
	<path d="M16,16H0V0h16V16z M0.8,15.2h14.3V0.8H0.8V15.2z"/>
	<path d="M11.7,3.6c0.4,0,0.8,0.3,0.8,0.8v7.4c0,0.4-0.3,0.8-0.8,0.8H4.3c-0.4,0-0.7-0.3-0.7-0.8V4.3c0-0.4,0.3-0.8,0.7-0.8H11.7
		 M11.7,2.7H4.3c-0.9,0-1.6,0.7-1.6,1.6v7.4c0,0.9,0.7,1.6,1.6,1.6h7.4c0.9,0,1.6-0.7,1.6-1.6V4.3C13.3,3.4,12.6,2.7,11.7,2.7
		L11.7,2.7z"/>
</g>
</svg>
