<?xml version="1.0" standalone="no"?><!DOCTYPE svg PUBLIC "-//W3C//DTD SVG 1.1//EN" "http://www.w3.org/Graphics/SVG/1.1/DTD/svg11.dtd"><svg t="1507883908217" class="icon" style="" viewBox="0 0 1024 1024" version="1.1" xmlns="http://www.w3.org/2000/svg" p-id="3055" xmlns:xlink="http://www.w3.org/1999/xlink" width="200" height="200"><defs><style type="text/css"></style></defs><path d="M693.248 347.136c11.776 0 23.552 1.024 34.816 2.048-31.232-145.92-187.392-254.464-365.568-254.464C163.328 94.72 0 230.4 0 402.944c0 99.328 54.272 181.248 144.896 244.736l-36.352 109.056L235.52 693.248c45.568 8.704 81.408 17.92 126.976 17.92 11.264 0 22.528-0.512 33.792-1.536-7.168-24.064-11.264-49.664-11.264-75.776 0-158.208 136.192-286.72 308.224-286.72zM498.176 248.832c27.648 0 45.568 17.92 45.568 45.056 0 27.136-17.92 45.568-45.568 45.568-27.136 0-54.272-18.432-54.272-45.568 0-27.136 27.136-45.056 54.272-45.056zM244.736 339.456c-27.136 0-54.784-18.432-54.784-45.568 0-27.136 27.648-45.056 54.784-45.056s45.056 17.92 45.056 45.056c0 27.648-17.92 45.568-45.056 45.568zM1024 629.76c0-144.896-144.896-263.168-307.712-263.168-172.544 0-308.224 118.272-308.224 263.168 0 145.408 135.68 263.168 308.224 263.168 36.352 0 72.704-9.216 108.544-17.92l99.328 54.784-27.136-90.624C969.728 783.872 1024 711.68 1024 629.76z m-408.064-45.568c-17.92 0-36.352-17.92-36.352-36.352 0-17.92 18.432-36.352 36.352-36.352 27.648 0 45.568 18.432 45.568 36.352 0 18.432-17.92 36.352-45.568 36.352z m199.68 0c-17.92 0-35.84-17.92-35.84-36.352 0-17.92 17.92-36.352 35.84-36.352 27.136 0 45.568 18.432 45.568 36.352-0.512 18.432-18.432 36.352-45.568 36.352z" fill="" p-id="3056"></path></svg>