<?xml version="1.0" encoding="utf-8"?>
<!-- Generator: Adobe Illustrator 22.1.0, SVG Export Plug-In . SVG Version: 6.00 Build 0)  -->
<svg version="1.1" id="图层_1" xmlns="http://www.w3.org/2000/svg" xmlns:xlink="http://www.w3.org/1999/xlink" x="0px" y="0px"
	 viewBox="0 0 16 16" style="enable-background:new 0 0 16 16;" xml:space="preserve">
<g>
	<path d="M14.8,13.3H1.1c-0.6,0-1.1-0.5-1.1-1.1V3.8c0-0.6,0.5-1.1,1.1-1.1h13.7c0.3,0,0.6,0.1,0.8,0.3C15.9,3.2,16,3.5,16,3.8v8.4
		C16,12.8,15.5,13.3,14.8,13.3L14.8,13.3z M1.1,3.5C1,3.5,0.8,3.6,0.8,3.8v8.4c0,0.2,0.1,0.3,0.3,0.3h13.7c0.2,0,0.3-0.1,0.3-0.3
		V3.8c0-0.1,0-0.2-0.1-0.2c-0.1-0.1-0.1-0.1-0.2-0.1H1.1z M1.1,3.5"/>
	<path d="M3.6,7c0,0.5,0.4,1,1,1c0.6,0,1-0.4,1-1c0-0.5-0.4-1-1-1C4.1,6,3.6,6.5,3.6,7L3.6,7z M3.6,7"/>
	<path d="M4.7,5V4.5H4.6V5c-1.1,0-2,0.9-2,2H2.1v0.2h0.5c0,1.1,0.9,1.9,2,2v0.4h0.2V9.1c1.1,0,2-0.9,2-2h0.5V6.9H6.8
		C6.7,5.8,5.8,5,4.7,5L4.7,5z M6.6,7.1c0,1-0.8,1.8-1.8,1.8V8.2H4.6v0.7c-1,0-1.8-0.8-1.9-1.8h0.7V6.9H2.7c0.1-1,0.8-1.7,1.9-1.8
		v0.7h0.2V5.1c1,0,1.8,0.8,1.9,1.8H5.9v0.2H6.6z M6.6,7.1"/>
	<path d="M10.4,7c0,0.5,0.5,1,1,1c0.6,0,1-0.4,1-1c0-0.5-0.5-1-1-1C10.8,6,10.4,6.5,10.4,7L10.4,7z M10.4,7"/>
	<path d="M13.5,6.9c-0.1-1.1-0.9-1.9-2-2V4.5h-0.2V5c-1.1,0-2,0.9-2,2H8.8v0.2h0.5c0,1.1,0.9,1.9,2,2v0.4h0.2V9.1c1.1,0,2-0.9,2-2
		H14V6.9H13.5z M13.3,7.1c0,1-0.8,1.8-1.8,1.8V8.2h-0.2v0.7c-1,0-1.8-0.8-1.9-1.8h0.7V6.9H9.5c0.1-1,0.8-1.7,1.9-1.8v0.7h0.2V5.1
		c1,0,1.8,0.8,1.9,1.8h-0.7v0.2H13.3z M4.1,11.8c0,0.3,0.2,0.4,0.5,0.4C4.8,12.2,5,12,5,11.8c0-0.3-0.2-0.4-0.5-0.4
		C4.3,11.3,4.1,11.5,4.1,11.8L4.1,11.8z M4.1,11.8"/>
	<path d="M10.9,11.8c0,0.2,0.1,0.3,0.2,0.4c0.1,0.1,0.3,0.1,0.5,0c0.1-0.1,0.2-0.2,0.2-0.4c0-0.2-0.1-0.3-0.2-0.4
		c-0.1-0.1-0.3-0.1-0.5,0C11,11.5,10.9,11.6,10.9,11.8L10.9,11.8z M10.9,11.8"/>
	<rect x="1.1" y="10.4" width="13.7" height="0.4"/>
</g>
</svg>
