<?xml version="1.0" encoding="utf-8"?>
<!-- Generator: Adobe Illustrator 22.1.0, SVG Export Plug-In . SVG Version: 6.00 Build 0)  -->
<svg version="1.1" id="图层_1" xmlns="http://www.w3.org/2000/svg" xmlns:xlink="http://www.w3.org/1999/xlink" x="0px" y="0px"
	 viewBox="0 0 16 16" style="enable-background:new 0 0 16 16;" xml:space="preserve">
<g>
	<g>
		<g>
			<path d="M13.2,7.8l-1.3-5.4c-0.2-0.6-0.7-1.1-1.4-1.1H4.6c-0.6,0-1.2,0.4-1.4,1L1.8,7.7c-0.1,0.4,0,0.8,0.3,1.2
				c0.3,0.3,0.7,0.5,1.1,0.5h8.7c0.4,0,0.8-0.2,1.1-0.5C13.2,8.6,13.3,8.2,13.2,7.8L13.2,7.8z M12.4,8.4c-0.1,0.2-0.3,0.2-0.5,0.2
				H3.2C3,8.7,2.8,8.6,2.7,8.4C2.6,8.3,2.5,8.1,2.6,7.9L4,2.5C4.1,2.2,4.4,2,4.6,2h5.9c0.3,0,0.5,0.2,0.6,0.5l1.3,5.4
				C12.5,8.1,12.5,8.3,12.4,8.4L12.4,8.4z M7.9,13.8L8,9.8l-0.8,0l-0.1,4.1c-1.5,0-2.7,0.2-2.7,0.5c0,0.3,1.3,0.5,3,0.5s3-0.2,3-0.5
				C10.5,14.1,9.4,13.9,7.9,13.8L7.9,13.8z M7,1.1c0.2,0,1.4,0,1.4,0L8,0H7.3C7.3,0,6.8,1.1,7,1.1L7,1.1z M7,1.1"/>
		</g>
	</g>
	<path d="M12.2,16c-0.5,0-0.9-0.1-1.1-0.4c-0.1-0.2-0.1-0.5,0.3-0.9c-0.3-0.1-1.2-0.2-2-0.2c0,0,0,0,0,0c-0.2,0-0.3-0.1-0.3-0.3
		c0-0.2,0.1-0.3,0.3-0.3c1.1,0,2.4,0,2.6,0.6c0,0.1,0.1,0.3-0.2,0.6c-0.2,0.2-0.2,0.2-0.2,0.2c0.1,0.1,0.8,0.2,2.2-0.2
		c0.2,0,0.3,0.1,0.3,0.2s-0.1,0.3-0.2,0.3C13.6,15.8,12.9,16,12.2,16z"/>
</g>
</svg>
