<?xml version="1.0" encoding="utf-8"?>
<!-- Generator: Adobe Illustrator 22.1.0, SVG Export Plug-In . SVG Version: 6.00 Build 0)  -->
<svg version="1.1" id="图层_1" xmlns="http://www.w3.org/2000/svg" xmlns:xlink="http://www.w3.org/1999/xlink" x="0px" y="0px"
	 viewBox="0 0 16 16" style="enable-background:new 0 0 16 16;" xml:space="preserve">
<g>
	<g>
		<path d="M13.2,1v14H2.8V1H13.2 M13.7,0H2.3C2,0,1.8,0.2,1.8,0.5v15C1.8,15.8,2,16,2.3,16h11.4c0.3,0,0.5-0.2,0.5-0.5v-15
			C14.2,0.2,14,0,13.7,0L13.7,0z"/>
	</g>
	<path d="M4.1,8.7c-0.2,0-0.4-0.2-0.4-0.4V7.1c0-0.2,0.2-0.4,0.4-0.4s0.4,0.2,0.4,0.4v1.2C4.6,8.5,4.4,8.7,4.1,8.7z"/>
</g>
</svg>
