<?xml version="1.0" encoding="utf-8"?>
<!-- Generator: Adobe Illustrator 22.1.0, SVG Export Plug-In . SVG Version: 6.00 Build 0)  -->
<svg version="1.1" id="图层_1" xmlns="http://www.w3.org/2000/svg" xmlns:xlink="http://www.w3.org/1999/xlink" x="0px" y="0px"
	 viewBox="0 0 16 16" style="enable-background:new 0 0 16 16;" xml:space="preserve">
<g>
	<path d="M7.2,16H2.4c-0.3,0-0.6-0.3-0.6-0.6V0.6C1.8,0.3,2.1,0,2.4,0h4.8c0.3,0,0.6,0.3,0.6,0.6v3.1H7V0.8H2.6v14.3H7V8.5h0.8v6.9
		C7.9,15.7,7.6,16,7.2,16z M4.7,12c-0.3,0-0.6,0.3-0.6,0.6s0.3,0.6,0.6,0.6c0.3,0,0.6-0.3,0.6-0.6S5,12,4.7,12z"/>
	<path d="M12.7,7.6H5.8C5,7.6,4.3,6.9,4.3,6c0-0.9,0.7-1.6,1.5-1.6h6.9c0.8,0,1.5,0.7,1.5,1.6C14.2,6.9,13.5,7.6,12.7,7.6z M5.8,5.3
		C5.4,5.3,5.1,5.6,5.1,6c0,0.4,0.3,0.7,0.7,0.7h6.9c0.4,0,0.7-0.3,0.7-0.7c0-0.4-0.3-0.7-0.7-0.7H5.8z"/>
</g>
</svg>
