<?xml version="1.0" encoding="utf-8"?>
<!-- Generator: Adobe Illustrator 22.1.0, SVG Export Plug-In . SVG Version: 6.00 Build 0)  -->
<svg version="1.1" id="图层_1" xmlns="http://www.w3.org/2000/svg" xmlns:xlink="http://www.w3.org/1999/xlink" x="0px" y="0px"
	 viewBox="0 0 16 16" style="enable-background:new 0 0 16 16;" xml:space="preserve">
<path d="M15.5,4.1C15.5,4,15.5,4,15.5,4.1c0-0.1,0-0.1,0-0.1c0,0,0,0,0,0c0,0,0,0,0,0c0,0,0,0,0,0c0,0,0,0,0-0.1c0,0,0,0,0,0
	c0,0,0,0-0.1,0c0,0,0,0,0,0L8,0L0.7,3.7c0,0,0,0,0,0c0,0,0,0-0.1,0c0,0,0,0,0,0c0,0,0,0,0,0.1c0,0,0,0,0,0c0,0,0,0,0,0c0,0,0,0,0,0
	c0,0,0,0,0,0.1c0,0,0,0,0,0.1c0,0,0,0,0,0v7.5L8,16l7.5-4.4L15.5,4.1C15.5,4.1,15.5,4.1,15.5,4.1z M14.1,4.1L8,7.3L1.9,4.1L8,1
	L14.1,4.1z M1.4,4.8l6.1,3.3l0,6.5l-6.1-3.6V4.8z M8.5,14.7l0-6.5l6.1-3.3v6.2L8.5,14.7z"/>
</svg>
