<?xml version="1.0" encoding="utf-8"?>
<!-- Generator: Adobe Illustrator 22.1.0, SVG Export Plug-In . SVG Version: 6.00 Build 0)  -->
<svg version="1.1" id="图层_1" xmlns="http://www.w3.org/2000/svg" xmlns:xlink="http://www.w3.org/1999/xlink" x="0px" y="0px"
	 viewBox="0 0 16 16" style="enable-background:new 0 0 16 16;" xml:space="preserve">
<g>
	<g>
		<path d="M6.7,14.5l8.8-8.8c0.2-0.2,0.4-0.6,0.4-1c0-0.4,0-0.9-0.2-1.4c-0.2-0.5-0.4-0.9-0.8-1.2l-1-1c-0.3-0.3-0.7-0.6-1.2-0.7
			C12.3,0,11.8,0,11.4,0c-0.4,0-0.8,0.2-1,0.4L1.5,9.3L0,16L6.7,14.5z M12.2,4.6c0.3,0.3,0.5,0.7,0.6,1.2c0.1,0.5,0.1,0.9-0.1,1.2
			c0,0,0,0,0,0l0,0l-5,5c-0.2-0.2-0.4-0.5-0.5-0.9c-0.1-0.4-0.2-0.7-0.2-1c0-0.3,0-0.6,0.1-0.8l4.8-4.9L12.2,4.6z M10.8,1.4
			C11,1.1,11.4,1,12,1.1c0.6,0.1,1.1,0.3,1.5,0.7l0.8,0.8c0.4,0.4,0.6,0.9,0.7,1.4c0.1,0.6,0,1-0.3,1.3L13.9,6
			c-0.1-0.8-0.4-1.5-0.9-2l-1-1c-0.5-0.5-1.2-0.8-2-0.9L10.8,1.4z M8.7,3.4C9,3.1,9.4,3,10,3.1c0.6,0.1,1.1,0.3,1.4,0.7l0.1,0.1
			L6.7,8.8c-0.2,0-0.5,0.1-0.8,0.1c-0.3,0-0.7-0.1-1-0.2C4.5,8.6,4.2,8.4,3.9,8.2L8.7,3.4z M2.4,9.7l0.9-0.9
			c0.4,0.3,0.8,0.5,1.4,0.7c0.5,0.2,1,0.3,1.5,0.3c0,0.4,0.1,0.9,0.3,1.5c0.2,0.5,0.4,1,0.7,1.4l-0.9,0.9L3.9,14
			c-0.2-0.5-0.4-0.9-0.7-1.2c-0.3-0.3-0.7-0.5-1.2-0.7L2.4,9.7z M2.4,9.7"/>
	</g>
</g>
</svg>
