<?xml version="1.0" standalone="no"?><!DOCTYPE svg PUBLIC "-//W3C//DTD SVG 1.1//EN" "http://www.w3.org/Graphics/SVG/1.1/DTD/svg11.dtd"><svg t="1507884179556" class="icon" style="" viewBox="0 0 1024 1024" version="1.1" xmlns="http://www.w3.org/2000/svg" p-id="3847" xmlns:xlink="http://www.w3.org/1999/xlink" width="32" height="32"><defs><style type="text/css"></style></defs><path d="M684.693154 105.989963c-31.937386 13.969153-39.263236 47.236837-15.969717 70.52524 11.313673 11.320836 21.954011 13.314237 68.535933 13.314237 65.206094 0 109.123326 17.294898 142.396127 55.891961 40.591487 45.912679 45.24753 59.886949 45.24753 143.721309 0 74.524321 0 75.865875 17.297968 85.834924 39.922245 22.623253 66.541509-5.320169 75.856665-79.840396 11.973706-97.153714-45.912679-210.273051-133.071761-262.174118C827.75443 99.995435 729.935568 86.691431 684.693154 105.989963L684.693154 105.989963 684.693154 105.989963 684.693154 105.989963zM357.312942 229.752708c-74.526367 26.613124-146.392138 77.850066-223.577055 160.355151C-49.247634 584.411193-37.267788 769.390161 164.349115 867.868033c209.602785 102.469789 491.725234 68.530816 645.436058-77.850066 115.112738-109.128443 101.143585-246.205425-29.943986-292.777113-23.293519-7.988951-30.607088-13.979386-27.28339-21.292955 11.978822-29.278837 15.969717-63.216787 9.320273-83.181491-20.633946-63.210647-95.819322-77.844949-207.607338-39.917128l-44.582381 15.299451 3.988848-44.576241c4.659113-52.567239-6.649444-81.180927-37.927821-97.153714C449.808566 213.118865 399.899876 214.449163 357.312942 229.752708L357.312942 229.752708 357.312942 229.752708 357.312942 229.752708zM542.29805 487.267712c99.143021 27.278273 159.694095 87.163175 159.694095 158.358681 0 79.180364-70.530356 150.380986-184.984085 188.304713-61.2152 19.963681-174.993546 23.958668-230.889601 8.654101-105.793488-29.936823-165.685553-88.49859-165.685553-163.695223 0-41.251519 17.969257-77.174684 57.226353-113.771183 36.598546-34.597983 64.541969-51.242058 118.437459-69.207222C377.277646 468.63433 464.445938 465.308585 542.29805 487.267712L542.29805 487.267712 542.29805 487.267712zM332.695265 551.803541c-67.206658 31.278377-103.138008 79.18548-103.138008 139.066289 0 54.565756 23.958668 91.824335 76.519768 119.776967 40.587394 21.959128 115.117854 19.958564 160.364361-3.323699 57.886385-30.609135 95.819322-87.170339 95.819322-142.40636-0.674359-45.23832-40.596604-99.138928-87.834464-118.432343C436.498422 530.519796 372.617509 533.174252 332.695265 551.803541L332.695265 551.803541 332.695265 551.803541 332.695265 551.803541zM381.27161 676.895561c4.65502 4.659113 7.979742 15.968693 7.979742 25.953092 0 33.272801-55.890938 60.550051-78.515215 37.927821-12.638855-12.643971-9.315156-43.922349 5.319146-58.556651C330.694701 667.580404 368.622522 664.256706 381.27161 676.895561L381.27161 676.895561 381.27161 676.895561zM696.002734 242.391563c-30.608112 30.614252-9.980305 67.206658 38.598086 67.206658 41.912575 0 60.540841 21.293979 60.540841 69.205175 0 29.938869 2.669806 38.591947 14.648628 46.576805 35.928281 25.282826 65.207118-2.65855 65.207118-61.880349 0-72.53092-51.90209-127.092583-125.762285-132.422985C715.961298 228.417293 707.97644 230.41274 696.002734 242.391563L696.002734 242.391563 696.002734 242.391563 696.002734 242.391563zM696.002734 242.391563" p-id="3848"></path></svg>