<?xml version="1.0" encoding="utf-8"?>
<!-- Generator: Adobe Illustrator 22.1.0, SVG Export Plug-In . SVG Version: 6.00 Build 0)  -->
<svg version="1.1" id="图层_1" xmlns="http://www.w3.org/2000/svg" xmlns:xlink="http://www.w3.org/1999/xlink" x="0px" y="0px"
	 viewBox="0 0 16 16" style="enable-background:new 0 0 16 16;" xml:space="preserve">
<g>
	<g>
		<path d="M11,0.8c0.5,0,1,0.1,1.5,0.3l-2.2,2.2L9.7,4L12,6.3l0.6-0.6l2.2-2.2c0.2,0.6,0.3,1.2,0.3,1.9c0,0.5-0.2,1-0.4,1.4
			c-0.2,0.5-0.5,0.9-0.9,1.2c-0.8,0.8-1.8,1.2-3,1.2c-0.6,0-1.2-0.1-1.7-0.4L8.7,8.6L8.3,9l-5.8,5.8l-1.3-1.3l6.2-6.2L7.2,6.7
			C6.8,6,6.7,5.1,6.9,4.3C7,3.4,7.4,2.7,8,2.1C8.8,1.3,9.9,0.8,11,0.8 M11,0C9.7,0,8.4,0.5,7.5,1.5C5.9,3,5.6,5.2,6.4,7.1L0,13.5
			L2.5,16l6.4-6.4C9.6,9.9,10.3,10,11,10c1.3,0,2.6-0.5,3.5-1.5c1.8-1.8,1.9-4.5,0.5-6.5l-3,3L10.9,4l3-3C13,0.3,12,0,11,0L11,0z
			 M3.1,13.5l-0.5-0.5L2,13.5L2.5,14L3.1,13.5z M3.1,13.5"/>
	</g>
</g>
</svg>
