<?xml version="1.0" encoding="utf-8"?>
<!-- Generator: Adobe Illustrator 22.1.0, SVG Export Plug-In . SVG Version: 6.00 Build 0)  -->
<svg version="1.1" id="图层_1" xmlns="http://www.w3.org/2000/svg" xmlns:xlink="http://www.w3.org/1999/xlink" x="0px" y="0px"
	 viewBox="0 0 16 16" style="enable-background:new 0 0 16 16;" xml:space="preserve">
<g>
	<path d="M8,10.7c-0.3,0-0.6,0.3-0.6,0.6c0,0.3,0.3,0.6,0.6,0.6s0.6-0.3,0.6-0.6C8.5,10.9,8.3,10.7,8,10.7z"/>
	<path d="M9.7,4.8C9.4,4.6,9.2,4.5,8.9,4.4c-0.3-0.1-0.6-0.1-1-0.1C7.6,4.2,7.3,4.3,7,4.4C6.7,4.5,6.5,4.6,6.3,4.8
		C6.1,5,5.9,5.2,5.8,5.5c0,0.1-0.1,0.2-0.1,0.2C5.6,6.1,5.8,6.4,6.2,6.4c0.2,0,0.4-0.1,0.5-0.4C6.8,5.3,7.3,5,8,5
		c0.2,0,0.4,0,0.6,0.1C8.7,5.1,8.8,5.2,9,5.3c0.1,0.1,0.2,0.3,0.3,0.4c0.1,0.2,0.1,0.3,0.1,0.5c0,0.1,0,0.2,0,0.3
		c0,0.1,0,0.2-0.1,0.3C9.2,6.9,9.1,7,9,7.2C8.9,7.3,8.7,7.4,8.5,7.6C8.1,7.9,7.9,8.3,7.7,8.6C7.6,8.8,7.6,9.1,7.5,9.4
		c0,0.3,0.2,0.5,0.4,0.5c0.2,0,0.4-0.2,0.4-0.4c0-0.3,0.1-0.5,0.1-0.6c0.1-0.2,0.3-0.5,0.8-0.8c0.4-0.3,0.7-0.7,0.8-1
		c0.1-0.3,0.2-0.6,0.2-0.9c0-0.3-0.1-0.6-0.2-0.8S9.9,4.9,9.7,4.8z"/>
	<path d="M8,1C4.1,1,1,4.1,1,8c0,3.9,3.1,7,7,7s7-3.1,7-7C15,4.1,11.9,1,8,1z M8,14c-3.3,0-6-2.7-6-6s2.7-6,6-6s6,2.7,6,6
		S11.3,14,8,14z"/>
</g>
</svg>
