<?xml version="1.0" encoding="utf-8"?>
<!-- Generator: Adobe Illustrator 22.1.0, SVG Export Plug-In . SVG Version: 6.00 Build 0)  -->
<svg version="1.1" id="图层_1" xmlns="http://www.w3.org/2000/svg" xmlns:xlink="http://www.w3.org/1999/xlink" x="0px" y="0px"
	 viewBox="0 0 16 16" style="enable-background:new 0 0 16 16;" xml:space="preserve">
<g>
	<g>
		<path d="M8,1C4.1,1,1,4.1,1,8c0,3.9,3.1,7,7,7s7-3.1,7-7C15,4.1,11.9,1,8,1z M8,14c-3.3,0-6-2.7-6-6s2.7-6,6-6s6,2.7,6,6
			S11.3,14,8,14z"/>
	</g>
	<g>
		<g>
			<path d="M9.3,11.8c-0.1,0-0.2,0-0.4,0c-0.4,0-0.8,0-1.2,0c-0.2,0-0.4,0-0.6,0c-0.1,0-0.2,0-0.3,0c-0.2,0-0.2,0-0.2-0.1
				c0-0.1,0.1-0.2,0.3-0.2c0.3,0,0.5-0.1,0.5-0.3c0-0.2,0.1-0.5,0.1-1c0-0.6,0-1.2,0-1.8c0-0.5-0.1-0.9-0.1-0.9
				C7.2,7.4,7,7.3,6.8,7.3c-0.2,0-0.3-0.1-0.3-0.2C6.5,7.1,6.6,7,6.8,7l0.1,0l1.8-0.1c0,0.5,0,1.4,0,2.8l0,1.2c0,0.2,0,0.4,0.1,0.5
				c0.1,0.1,0.2,0.1,0.4,0.2c0.2,0,0.3,0.1,0.3,0.2C9.5,11.7,9.4,11.8,9.3,11.8L9.3,11.8z M7.8,5.8c-0.2,0-0.4-0.1-0.6-0.2
				C7,5.4,7,5.2,7,5C7,4.8,7,4.6,7.2,4.4c0.2-0.2,0.4-0.2,0.6-0.2c0.2,0,0.4,0.1,0.6,0.2C8.5,4.6,8.6,4.8,8.6,5
				c0,0.2-0.1,0.4-0.2,0.6C8.2,5.7,8,5.8,7.8,5.8L7.8,5.8z M7.8,5.8"/>
		</g>
	</g>
</g>
</svg>
