<?xml version="1.0" encoding="utf-8"?>
<!-- Generator: Adobe Illustrator 22.1.0, SVG Export Plug-In . SVG Version: 6.00 Build 0)  -->
<svg version="1.1" id="图层_1" xmlns="http://www.w3.org/2000/svg" xmlns:xlink="http://www.w3.org/1999/xlink" x="0px" y="0px"
	 viewBox="0 0 16 16" style="enable-background:new 0 0 16 16;" xml:space="preserve">
<g>
	<g>
		<path d="M0.5,16C0.2,16,0,15.7,0,15.4s0.2-0.6,0.5-0.6h14.9c0.3,0,0.5,0.3,0.5,0.6c0,0.3-0.2,0.6-0.5,0.6H0.5z M8,0
			c0.2,0,0.6,0.2,0.7,0.3l5.5,5.5c0.2,0.2,0.2,0.6,0,0.8c-0.1,0.1-0.2,0.2-0.4,0.2c-0.1,0-0.3-0.1-0.4-0.2L8.5,1.7L8.4,12.4
			c0,0.3-0.3,0.5-0.6,0.5c-0.3,0-0.5-0.2-0.6-0.5V1.8L2.5,6.6C2.4,6.7,2.2,6.8,2.1,6.8S1.8,6.7,1.7,6.6C1.6,6.5,1.5,6.3,1.5,6.2
			c0-0.2,0.1-0.3,0.2-0.4l5.5-5.5C7.3,0.2,7.7,0,7.9,0l0,0L8,0L8,0z"/>
	</g>
</g>
</svg>
