<?xml version="1.0" encoding="utf-8"?>
<!-- Generator: Adobe Illustrator 22.1.0, SVG Export Plug-In . SVG Version: 6.00 Build 0)  -->
<svg version="1.1" id="图层_1" xmlns="http://www.w3.org/2000/svg" xmlns:xlink="http://www.w3.org/1999/xlink" x="0px" y="0px"
	 viewBox="0 0 16 16" style="enable-background:new 0 0 16 16;" xml:space="preserve">
<path d="M15.5,4.4c0-0.8-0.4-1.1-1.2-1.1c-0.2,0-0.5,0-0.8,0c0-0.5,0-0.9,0-1.3c0-1.3-0.7-2-2-2c-0.9,0-1.9,0-2.8,0
	C6.7,0,4.6,0,2.5,0c-1.3,0-2,0.7-2,2c0,1,0,2,0,3c0,1,0.7,1.8,1.7,1.8c3.2,0,6.4,0,9.6,0c1.1,0,1.8-0.7,1.8-1.8c0-0.3,0-0.5,0-0.8
	c0.8-0.1,1,0,1,0.8c0,0.6,0,1.2,0,1.8c0,0.7-0.3,1-1,1c-0.3,0-0.5,0-0.8,0c-1.7,0-3.3,0-5,0C6.6,7.8,6,8.3,5.9,9.5
	c0,0.1,0,0.2,0,0.3c-0.4,0-0.7,0-1.1,0C4.3,9.9,4,10.1,4,10.6c0,1.5,0,3.1,0,4.6C4,15.8,4.3,16,4.8,16l3.1,0c0.5,0,0.8-0.2,0.8-0.7
	c0-1.6,0-3.1,0-4.7c0-0.5-0.3-0.7-0.7-0.7c-0.4,0-0.7,0-1.1,0C6.7,9,6.9,8.7,7.7,8.7c0.2,0,0.4,0,0.6,0c1.9,0,3.8,0,5.6,0
	c1,0,1.5-0.5,1.6-1.5c0-0.3,0-0.5,0-0.8C15.6,5.8,15.6,5.1,15.5,4.4z M12.7,5c0,0.6-0.3,0.9-0.9,0.9c-1.6,0-3.2,0-4.8,0l0,0
	c-1.6,0-3.2,0-4.8,0C1.6,5.9,1.4,5.7,1.3,5c0-1.1,0-2.1,0-3.2c0-0.5,0.3-0.8,0.8-0.8c0.1,0,0.2,0,0.4,0c3.1,0,6.1,0,9.2,0
	c0.8,0,1,0.2,1,1C12.7,3,12.7,4,12.7,5z M7.3,10.8c0.3,0,0.4,0.2,0.4,0.5c0,0.6,0,1.1,0,1.7c0,0.6,0,1.1,0,1.7
	c0,0.3-0.2,0.5-0.5,0.5c-0.6,0-1.2,0-1.8,0c-0.3,0-0.5-0.2-0.5-0.5c0-1.1,0-2.3,0-3.4c0-0.3,0.1-0.4,0.4-0.4
	C6,10.8,6.7,10.8,7.3,10.8z"/>
</svg>
