<?xml version="1.0" encoding="utf-8"?>
<!-- Generator: Adobe Illustrator 22.1.0, SVG Export Plug-In . SVG Version: 6.00 Build 0)  -->
<svg version="1.1" id="图层_1" xmlns="http://www.w3.org/2000/svg" xmlns:xlink="http://www.w3.org/1999/xlink" x="0px" y="0px"
	 viewBox="0 0 16 16" style="enable-background:new 0 0 16 16;" xml:space="preserve">
<g>
	<g>
		<path d="M0.5,16C0.2,16,0,15.7,0,15.4s0.2-0.6,0.5-0.6h14.9c0.3,0,0.5,0.3,0.5,0.6c0,0.3-0.2,0.6-0.5,0.6H0.5z M7.9,12.9
			c-0.2,0-0.6-0.2-0.7-0.3L1.7,7.1c-0.2-0.2-0.2-0.6,0-0.8c0.1-0.1,0.2-0.2,0.4-0.2c0.1,0,0.3,0.1,0.4,0.2l4.9,4.9L7.4,0.5
			C7.5,0.2,7.7,0,8,0c0.3,0,0.5,0.2,0.6,0.5v10.5l4.8-4.8c0.1-0.1,0.2-0.2,0.4-0.2c0.1,0,0.3,0.1,0.4,0.2c0.1,0.1,0.2,0.2,0.2,0.4
			c0,0.2-0.1,0.3-0.2,0.4l-5.5,5.5c-0.1,0.1-0.5,0.3-0.7,0.3l0,0L7.9,12.9L7.9,12.9z"/>
	</g>
</g>
</svg>
