<?xml version="1.0" encoding="utf-8"?>
<!-- Generator: Adobe Illustrator 22.1.0, SVG Export Plug-In . SVG Version: 6.00 Build 0)  -->
<svg version="1.1" id="图层_1" xmlns="http://www.w3.org/2000/svg" xmlns:xlink="http://www.w3.org/1999/xlink" x="0px" y="0px"
	 viewBox="0 0 16 16" style="enable-background:new 0 0 16 16;" xml:space="preserve">
<style type="text/css">
	.st0{fill:#231815;}
</style>
<g>
	<path class="st0" d="M15.7,8.3H0.3V6C0.3,5.1,1,4.4,2,4.4H5c0.4,0,0.8-0.4,0.8-0.8V1c0-0.6,0.4-1,1-1h2.4c0.6,0,1,0.4,1,1v2.6
		c0,0.4,0.4,0.8,0.8,0.8h3c0.9,0,1.7,0.7,1.7,1.7V8.3z M1.2,7.4h13.7V6c0-0.4-0.4-0.8-0.8-0.8h-3c-0.9,0-1.7-0.7-1.7-1.7V1
		c0-0.1-0.1-0.1-0.1-0.1H6.8C6.7,0.9,6.7,0.9,6.7,1v2.6c0,0.9-0.7,1.7-1.7,1.7H2C1.5,5.2,1.2,5.6,1.2,6V7.4z"/>
	<path class="st0" d="M8,16H2V7.4h6V16z M2.8,15.1h4.3V8.3H2.8V15.1z"/>
	<rect x="4.6" y="8.1" class="st0" width="0.9" height="7.5"/>
	<g>
		<g>
			<path class="st0" d="M14.7,10.1V15H9.8v-4.9H14.7 M15.7,9.1H8.8V16h6.9V9.1L15.7,9.1z"/>
		</g>
		<g>
			<rect x="9.7" y="9.9" class="st0" width="2.6" height="2.6"/>
		</g>
		<g>
			<rect x="12.3" y="12.5" class="st0" width="2.6" height="2.6"/>
		</g>
	</g>
</g>
</svg>
