<?xml version="1.0" encoding="utf-8"?>
<!-- Generator: Adobe Illustrator 22.1.0, SVG Export Plug-In . SVG Version: 6.00 Build 0)  -->
<svg version="1.1" id="图层_1" xmlns="http://www.w3.org/2000/svg" xmlns:xlink="http://www.w3.org/1999/xlink" x="0px" y="0px"
	 viewBox="0 0 16 16" style="enable-background:new 0 0 16 16;" xml:space="preserve">
<path d="M15.1,3.6c0-0.1-0.1-0.1-0.2-0.2c0,0,0,0,0,0L8.1,0C8,0,7.8,0,7.6,0.1L1.2,3.4c0,0-0.3,0.2-0.3,0.3C0.8,3.8,0.8,4.1,0.8,4.1
	v7.4c0,0.2,0.1,0.3,0.3,0.4c0,0,0,0,0,0l6.6,4c0.1,0,0.1,0.1,0.2,0.1h0c0,0,0,0,0,0C8,16,8,16,8,16c0,0,0.1,0,0.1,0c0,0,0,0,0.1,0
	c0,0,0,0,0,0c0,0,0.1,0,0.1,0l6.6-4.1c0.1-0.1,0.1-0.1,0.2-0.2h0c0,0,0,0,0,0c0-0.1,0.1-0.1,0.1-0.2V4.1C15.2,4,15.2,3.7,15.1,3.6z
	 M13.7,5.4L13.7,5.4c0,0-5.4,2.9-5.4,2.9L8,8.5l0,6.6l-6.3-3.8V4.6L7,7.4l5.9-3.2l0,0c0.1-0.1,0.2-0.1,0.4-0.1
	c0.4,0,0.7,0.3,0.7,0.7C14,5.1,13.8,5.3,13.7,5.4z"/>
</svg>
