<?xml version="1.0" standalone="no"?><!DOCTYPE svg PUBLIC "-//W3C//DTD SVG 1.1//EN" "http://www.w3.org/Graphics/SVG/1.1/DTD/svg11.dtd"><svg t="1507792994191" class="icon" style="" viewBox="0 0 1024 1024" version="1.1" xmlns="http://www.w3.org/2000/svg" p-id="3260" xmlns:xlink="http://www.w3.org/1999/xlink" width="200" height="200"><defs><style type="text/css"></style></defs><path d="M910.858 672.722c-18.835-109.494-97.937-181.226-97.937-181.226 11.302-99.415-30.13-117.046-30.13-117.046-8.718-307.585-273.041-302.201-278.595-302.054-5.551-0.148-269.911-5.531-278.593 302.053 0 0-41.435 17.63-30.135 117.046 0 0-79.096 71.733-97.93 181.226 0 0-10.059 185.007 90.396 22.655 0 0 22.605 61.656 64.032 117.046 0 0-74.084 25.183-67.797 90.61 0 0-2.522 72.982 158.198 67.962 0 0 112.995-8.798 146.896-56.63l29.87 0c33.901 47.832 146.893 56.63 146.893 56.63 160.687 5.02 158.199-67.962 158.199-67.962 6.254-65.427-67.798-90.61-67.798-90.61 41.432-55.39 64.032-117.046 64.032-117.046 100.42 162.352 90.401-22.654 90.401-22.654z" p-id="3261"></path></svg>