<?xml version="1.0" encoding="utf-8"?>
<!-- Generator: Adobe Illustrator 22.1.0, SVG Export Plug-In . SVG Version: 6.00 Build 0)  -->
<svg version="1.1" id="图层_1" xmlns="http://www.w3.org/2000/svg" xmlns:xlink="http://www.w3.org/1999/xlink" x="0px" y="0px"
	 viewBox="0 0 16 16" style="enable-background:new 0 0 16 16;" xml:space="preserve">
<style type="text/css">
	.st0{fill:#231815;}
</style>
<g>
	<g>
		<path class="st0" d="M15.7,8.3H0.3V6C0.3,5.1,1,4.4,2,4.4H5c0.4,0,0.8-0.4,0.8-0.8V1c0-0.6,0.4-1,1-1h2.4c0.6,0,1,0.4,1,1v2.6
			c0,0.4,0.4,0.8,0.8,0.8h3c0.9,0,1.7,0.7,1.7,1.7V8.3z M1.2,7.4h13.7V6c0-0.4-0.4-0.8-0.8-0.8h-3c-0.9,0-1.7-0.7-1.7-1.7V1
			c0-0.1-0.1-0.1-0.1-0.1H6.8C6.7,0.9,6.7,0.9,6.7,1v2.6c0,0.9-0.7,1.7-1.7,1.7H2C1.5,5.2,1.2,5.6,1.2,6V7.4z"/>
		<path class="st0" d="M8,16H2V7.4h6V16z M2.9,15.1h4.3V8.3H2.9V15.1z"/>
		<rect x="4.6" y="8.1" class="st0" width="0.9" height="7.5"/>
	</g>
	<path class="st0" d="M12.1,12.5c-0.1,0-0.1,0-0.2,0L9.1,11c-0.1-0.1-0.2-0.2-0.2-0.4c0-0.2,0.1-0.3,0.2-0.4L12,8.9
		c0.1-0.1,0.2-0.1,0.4,0l2.9,1.3c0.2,0.1,0.2,0.2,0.3,0.4c0,0.2-0.1,0.3-0.2,0.4l-2.9,1.4C12.3,12.5,12.2,12.5,12.1,12.5z
		 M10.3,10.7l1.9,0.9l1.9-0.9l-1.9-0.9L10.3,10.7z"/>
	<path class="st0" d="M12.2,14.3c-0.1,0-0.1,0-0.2,0l-3-1.4c-0.2-0.1-0.3-0.4-0.2-0.6C8.9,12,9.2,12,9.4,12.1l2.8,1.3l2.8-1.3
		c0.2-0.1,0.5,0,0.6,0.2c0.1,0.2,0,0.5-0.2,0.6l-3,1.4C12.3,14.3,12.2,14.3,12.2,14.3z"/>
	<path class="st0" d="M12.2,16c-0.1,0-0.1,0-0.2,0l-3-1.4c-0.2-0.1-0.3-0.4-0.2-0.6c0.1-0.2,0.4-0.3,0.6-0.2l2.8,1.3l2.8-1.3
		c0.2-0.1,0.5,0,0.6,0.2c0.1,0.2,0,0.5-0.2,0.6l-3,1.4C12.3,16,12.2,16,12.2,16z"/>
</g>
</svg>
