<?xml version="1.0" encoding="utf-8"?>
<!-- Generator: Adobe Illustrator 22.1.0, SVG Export Plug-In . SVG Version: 6.00 Build 0)  -->
<svg version="1.1" id="图层_1" xmlns="http://www.w3.org/2000/svg" xmlns:xlink="http://www.w3.org/1999/xlink" x="0px" y="0px"
	 viewBox="0 0 16 16" style="enable-background:new 0 0 16 16;" xml:space="preserve">
<g>
	<rect x="3.2" y="1.9" width="9.7" height="4.3"/>
	<rect x="3.2" y="7.4" width="4.2" height="5.2"/>
	<rect x="8.6" y="7.4" width="4.2" height="5.2"/>
	<path d="M14.4,14.5H1.6c-0.2,0-0.4-0.2-0.4-0.4V0.4C1.3,0.2,1.4,0,1.6,0h12.7c0.2,0,0.4,0.2,0.4,0.4v13.8
		C14.7,14.4,14.6,14.5,14.4,14.5L14.4,14.5z M2,13.8h12v-13H2V13.8z M2,13.8"/>
	<path d="M8.3,4.4H7.7c-0.2,0-0.4-0.2-0.4-0.4c0-0.2,0.2-0.4,0.4-0.4h0.6c0.2,0,0.4,0.2,0.4,0.4C8.7,4.3,8.5,4.4,8.3,4.4L8.3,4.4z
		 M5.6,10.6H5c-0.2,0-0.4-0.2-0.4-0.4C4.6,10,4.8,9.8,5,9.8h0.6c0.2,0,0.4,0.2,0.4,0.4C5.9,10.4,5.8,10.6,5.6,10.6L5.6,10.6z
		 M11,10.6h-0.6c-0.2,0-0.4-0.2-0.4-0.4c0-0.2,0.2-0.4,0.4-0.4H11c0.2,0,0.4,0.2,0.4,0.4C11.4,10.4,11.2,10.6,11,10.6L11,10.6z
		 M3.2,14.2h0.6V16H3.2V14.2z M12.2,14.2h0.6V16h-0.6V14.2z M12.2,14.2"/>
</g>
</svg>
