<?xml version="1.0" encoding="utf-8"?>
<!-- Generator: Adobe Illustrator 22.1.0, SVG Export Plug-In . SVG Version: 6.00 Build 0)  -->
<svg version="1.1" id="图层_1" xmlns="http://www.w3.org/2000/svg" xmlns:xlink="http://www.w3.org/1999/xlink" x="0px" y="0px"
	 viewBox="0 0 16 16" style="enable-background:new 0 0 16 16;" xml:space="preserve">
<g>
	<path d="M8,16c-1.4,0-2.8-0.4-4-1.1c-1.2-0.7-2.2-1.7-2.9-2.9C0.4,10.8,0,9.4,0,8s0.4-2.8,1.1-4C1.8,2.8,2.8,1.8,4,1.1
		C5.2,0.4,6.6,0,8,0s2.8,0.4,4,1.1c1.2,0.7,2.2,1.7,2.9,2.9C15.6,5.2,16,6.6,16,8s-0.4,2.8-1.1,4c-0.7,1.2-1.7,2.2-2.9,2.9
		C10.8,15.6,9.4,16,8,16z M8,1C7.1,1,6.1,1.2,5.3,1.6C4.4,1.9,3.7,2.4,3.1,3.1C2.4,3.7,1.9,4.4,1.6,5.3C1.2,6.1,1,7.1,1,8
		c0,0.9,0.2,1.9,0.6,2.7c0.4,0.9,0.9,1.6,1.5,2.2c0.6,0.6,1.4,1.1,2.2,1.5C6.1,14.8,7.1,15,8,15s1.9-0.2,2.7-0.6
		c0.9-0.4,1.6-0.9,2.2-1.5c0.6-0.6,1.1-1.4,1.5-2.2C14.8,9.9,15,8.9,15,8c0-0.9-0.2-1.9-0.6-2.7c-0.4-0.9-0.9-1.6-1.5-2.2
		c-0.6-0.6-1.4-1.1-2.2-1.5C9.9,1.2,8.9,1,8,1z M10.7,7.4c-0.3,0-0.6-0.1-0.8-0.3C9.7,6.8,9.5,6.5,9.5,6.2s0.1-0.6,0.3-0.8
		C10.1,5.1,10.4,5,10.7,5s0.6,0.1,0.8,0.3c0.2,0.2,0.3,0.5,0.3,0.8c0,0.3-0.1,0.6-0.3,0.8C11.3,7.3,11.1,7.4,10.7,7.4z"/>
	<circle cx="5.2" cy="6.2" r="1.2"/>
	<path d="M10.6,11.3H5.1c-0.3,0-0.5-0.2-0.5-0.5s0.2-0.5,0.5-0.5h5.5c0.3,0,0.5,0.2,0.5,0.5S10.8,11.3,10.6,11.3z"/>
</g>
</svg>
