<?xml version="1.0" encoding="utf-8"?>
<!-- Generator: Adobe Illustrator 22.1.0, SVG Export Plug-In . SVG Version: 6.00 Build 0)  -->
<svg version="1.1" id="图层_1" xmlns="http://www.w3.org/2000/svg" xmlns:xlink="http://www.w3.org/1999/xlink" x="0px" y="0px"
	 viewBox="0 0 16 16" style="enable-background:new 0 0 16 16;" xml:space="preserve">
<path d="M15.8,7.7c-2.4-3-5-4.5-7.7-4.5c-4.6,0-7.8,4.3-7.9,4.5L0,8l0.2,0.3c2.5,3,5.1,4.6,7.8,4.6c4.6,0,7.7-4.4,7.8-4.6L16,8
	L15.8,7.7z M8.1,11.4c-1.8,0-3.3-1.5-3.3-3.3c0-1.8,1.5-3.3,3.3-3.3s3.3,1.5,3.3,3.3C11.4,9.9,9.9,11.4,8.1,11.4L8.1,11.4z M1.1,8
	c0.6-0.7,2.3-2.6,4.6-3.4C4.6,5.3,3.9,6.6,3.9,8c0,1.5,0.8,2.8,1.9,3.5C4.2,11,2.6,9.8,1.1,8L1.1,8z M10.6,11.4c1-0.8,1.7-2,1.7-3.4
	c0-1.5-0.7-2.7-1.8-3.5c1.5,0.6,3,1.7,4.5,3.5C14.4,8.7,12.8,10.5,10.6,11.4L10.6,11.4z M10.6,11.4"/>
</svg>
