<?xml version="1.0" encoding="utf-8"?>
<!-- Generator: Adobe Illustrator 22.1.0, SVG Export Plug-In . SVG Version: 6.00 Build 0)  -->
<svg version="1.1" id="图层_1" xmlns="http://www.w3.org/2000/svg" xmlns:xlink="http://www.w3.org/1999/xlink" x="0px" y="0px"
	 viewBox="0 0 16 16" style="enable-background:new 0 0 16 16;" xml:space="preserve">
<path d="M16,13.5c0-0.2-0.5-2.2-1.8-4.2c-0.8-1.2-1.8-2.2-2.9-2.9C10,5.6,8.6,5.2,7,5.1l-0.1,0V2.4c0-0.2-0.1-0.3-0.3-0.4
	C6.6,2,6.6,2,6.5,2C6.4,2,6.3,2,6.2,2.1L0.1,7.7C0,7.8,0,7.9,0,8c0,0.1,0.1,0.2,0.1,0.3l6.1,5.2c0.1,0.1,0.2,0.1,0.3,0.1
	c0.1,0,0.1,0,0.2,0c0.2-0.1,0.2-0.2,0.2-0.4v-3.2H7c3.3,0,6.2,0.3,8.2,3.7c0.1,0.1,0.2,0.2,0.4,0.2c0.1,0,0.1,0,0.1,0
	C15.9,13.9,16,13.7,16,13.5z M14,11c-0.6-0.5-1.3-0.9-2.1-1.2c-1.5-0.5-3.3-0.6-5.4-0.6c-0.2,0-0.4,0.2-0.4,0.4v2.7L1.1,8l5-4.6v2.1
	c0,0.2,0.2,0.4,0.4,0.4c2.9,0,5.2,1.3,6.9,3.8c0.2,0.4,0.5,0.8,0.7,1.2L14,11z"/>
</svg>
