<?xml version="1.0" encoding="utf-8"?>
<!-- Generator: Adobe Illustrator 22.1.0, SVG Export Plug-In . SVG Version: 6.00 Build 0)  -->
<svg version="1.1" id="图层_1" xmlns="http://www.w3.org/2000/svg" xmlns:xlink="http://www.w3.org/1999/xlink" x="0px" y="0px"
	 viewBox="0 0 16 16" style="enable-background:new 0 0 16 16;" xml:space="preserve">
<g>
	<g>
		<path d="M10.8,5.5C10.1,4.7,9.1,4.3,8,4.3c-2.2,0-4,1.8-4,4s1.8,4,4,4c2.2,0,4-1.8,4-4C12,7.2,11.6,6.2,10.8,5.5z M8,11.4
			c-1.7,0-3.1-1.4-3.1-3.1c0-1.7,1.4-3.1,3.1-3.1c1.7,0,3.1,1.4,3.1,3.1C11.1,10,9.7,11.4,8,11.4z"/>
		<path d="M12.8,5.8c0,0.3,0.2,0.5,0.4,0.6c0.2,0.1,0.5,0,0.7-0.1c0.2-0.2,0.2-0.5,0.1-0.7c-0.1-0.2-0.3-0.4-0.6-0.4
			C13.1,5.1,12.8,5.4,12.8,5.8L12.8,5.8z"/>
		<path d="M12.6,5.8"/>
		<path d="M14.3,3.1h-1.7l-0.4-1.2c-0.1-0.3-0.4-0.5-0.7-0.5H4.6c-0.3,0-0.6,0.2-0.7,0.5L3.4,3.1H1.7c-0.5,0-0.9,0.2-1.2,0.5
			C0.2,4,0,4.4,0,4.9v8c0,0.9,0.8,1.7,1.7,1.7h12.6c0.5,0,0.9-0.2,1.2-0.5c0.3-0.3,0.5-0.8,0.5-1.2v-8c0-0.5-0.2-0.9-0.5-1.2
			C15.2,3.3,14.7,3.1,14.3,3.1L14.3,3.1z M15.1,12.9c0,0.5-0.4,0.8-0.9,0.9H1.7c-0.5,0-0.8-0.4-0.9-0.9v-8C0.9,4.4,1.2,4,1.7,4h2.3
			l0.2-0.6l0.4-1.1h6.7l0.4,1.1L11.9,4h2.3c0.5,0,0.8,0.4,0.9,0.9V12.9z M15.1,12.9"/>
	</g>
</g>
</svg>
