<?xml version="1.0" standalone="no"?><!DOCTYPE svg PUBLIC "-//W3C//DTD SVG 1.1//EN" "http://www.w3.org/Graphics/SVG/1.1/DTD/svg11.dtd"><svg t="1507792933675" class="icon" style="" viewBox="0 0 1024 1024" version="1.1" xmlns="http://www.w3.org/2000/svg" p-id="1824" xmlns:xlink="http://www.w3.org/1999/xlink" width="200" height="200"><defs><style type="text/css"></style></defs><path d="M667.776 369.344C596.992 202.048 542.528 56.768 515.712 56.768c-31.744 0-93.632 160.512-158.08 306.944C176.064 377.408 39.36 378.368 31.744 404.48c-6.784 23.488 99.456 108.8 238.464 227.136-32 166.272-67.392 322.24-56.896 334.144 12.032 13.376 140.288-63.488 301.44-156.48 150.144 89.024 273.024 171.264 294.656 155.008 12.608-9.472-12.608-134.016-40.64-286.656-69.888 10.752-113.6 23.104-224 24.384-132.096 1.28-251.456-12.992-251.456-18.88 0-2.752 19.52-15.232 67.008-43.904 19.84-14.016 57.28-38.272 126.4-88.32 41.536-30.144 84.032-62.336 116.288-84.48-10.368-0.512-29.888-1.792-41.472-2.496-43.392-2.624-229.44-18.56-322.688-20.864-2.304 0 126.528-23.808 268.16-25.088 140.992-1.216 239.104 18.56 238.848 20.864-0.384 3.392-63.744 46.528-92.096 62.656-33.984 23.616-72 44.416-134.144 91.84-9.28 7.168-58.112 40.512-75.456 58.56 36.672 6.528 107.904 10.496 155.072 12.48 25.6 1.152 110.72 3.008 167.872 4.48-2.24-12.352-4.48-24.64-6.848-37.376 134.4-120.256 242.112-205.184 231.616-230.784-8.128-19.904-161.472-20.608-324.096-31.36z" p-id="1825"></path></svg>