<?xml version="1.0" encoding="utf-8"?>
<!-- Generator: Adobe Illustrator 22.1.0, SVG Export Plug-In . SVG Version: 6.00 Build 0)  -->
<svg version="1.1" id="图层_1" xmlns="http://www.w3.org/2000/svg" xmlns:xlink="http://www.w3.org/1999/xlink" x="0px" y="0px"
	 viewBox="0 0 16 16" style="enable-background:new 0 0 16 16;" xml:space="preserve">
<g>
	<path d="M8,12.6c-2.1,0-3.8-1.7-3.8-3.8C4.3,6.6,6,4.9,8,4.9c2.1,0,3.8,1.7,3.8,3.8C11.8,10.8,10.1,12.6,8,12.6z M8,6
		C6.5,6,5.3,7.2,5.3,8.7s1.2,2.8,2.7,2.8c1.5,0,2.7-1.2,2.7-2.8S9.5,6,8,6z"/>
	<g>
		<path d="M12.6,6C12.3,6,12,5.7,12,5.4c0-0.3,0.2-0.5,0.5-0.5h0.8c0.3,0,0.5,0.2,0.5,0.5c0,0.3-0.2,0.5-0.5,0.5H12.6z"/>
		<path d="M1.9,14.7c-1.1,0-1.9-0.9-1.9-2v-8c0-1.1,0.9-2,1.9-2h1.6c0,0,0.1-0.2,0.1-0.3c0.4-1,0.7-1.1,1.2-1.1h6.3
			c0.6,0,0.8,0.3,1.1,0.9c0.1,0.1,0.1,0.3,0.2,0.5l0,0.1h1.5c1.1,0,1.9,0.9,1.9,2v8c0,1.1-0.9,2-1.9,2H1.9z M1.9,3.7
			c-0.5,0-1,0.4-1,1v8c0,0.5,0.4,1,1,1h12.1c0.5,0,1-0.4,1-1v-8c0-0.5-0.4-1-1-1h-2.2l-0.2-0.5c-0.1-0.3-0.2-0.5-0.3-0.6
			c-0.1-0.1-0.1-0.2-0.1-0.3l-0.2-0.1c-0.2,0-3.2,0-6.2,0L4.7,2.4C4.7,2.5,4.6,2.6,4.6,2.8c0,0.1-0.1,0.3-0.2,0.4L4.2,3.7H1.9z"/>
	</g>
</g>
</svg>
