<?xml version="1.0" standalone="no"?><!DOCTYPE svg PUBLIC "-//W3C//DTD SVG 1.1//EN" "http://www.w3.org/Graphics/SVG/1.1/DTD/svg11.dtd"><svg t="1508380251540" class="icon" style="" viewBox="0 0 1024 1024" version="1.1" xmlns="http://www.w3.org/2000/svg" p-id="6482" xmlns:xlink="http://www.w3.org/1999/xlink" width="200" height="200"><defs><style type="text/css"></style></defs><path d="M498.4 799.7c-9.9-0.2-19.8 0-30 0-0.5-3-1-4.9-1-6.8 0-79.7-0.1-159.4 0.1-239.1 0-3 1-6.9 3.1-8.9 13.6-13.4 17.5-30.1 17.5-48.4-0.1-38 0.1-76-0.1-114-0.1-15.7 0.5-31.4-1.1-46.9-3.4-32.5-29.3-51.6-65.6-49.5-29.1 1.7-51.8 25.5-51.9 55.7-0.3 54.4-0.1 108.7-0.1 163.1 0 13.5 3.9 26 13.3 35.7 5.5 5.7 6.9 11.4 6.8 18.7-0.2 88.4-0.1 176.7-0.1 265.1 0 13 4.1 18.5 15.5 18.7 31.7 0.4 63.4 0.4 95-0.2 13.6-0.3 22.6-10.3 22.2-22.1-0.5-12.4-10-20.9-23.6-21.1zM865 799.7c-9.9-0.2-19.8 0-30.1 0-0.3-3-0.7-5-0.7-6.9 0-79.7-0.1-159.4 0.2-239.1 0-3.8 2.3-8.2 4.9-11.1 9-10.1 14.7-21.9 14.8-35.2 0.4-56 0.6-112.1 0-168.1-0.3-29.3-25-52.7-54.3-53.3-36.1-0.8-62.6 19.1-63.2 50.9-1.2 57-0.4 114-0.4 171 0 13.3 6.1 24.1 13.9 34.5 3.3 4.3 5.8 10.4 5.8 15.7 0.4 89 0.2 178.1 0.3 267.1 0 12.4 3.8 17.5 15.1 17.7 31.7 0.4 63.4 0.4 95-0.2 13.5-0.3 22.5-10.2 22.1-22.1-0.3-12.1-9.8-20.7-23.4-20.9zM681.6 799.7c-9.9-0.2-19.9 0-30.6 0-0.3-2.8-0.5-4.1-0.5-5.4 0-80-0.1-160 0.2-240 0-3.5 1.9-7.7 4.3-10.3 9.7-10.9 15.8-23.2 15.8-37.8 0.1-55.3 0.1-110.7 0-166 0-27.3-23.7-55.9-61.6-54.3-31.7 1.3-56.5 24-56.7 55.3-0.3 54.7-0.2 109.4 0 164 0 14.2 5.5 26.3 14.5 37.4 3.2 3.9 5.3 9.8 5.3 14.8 0.3 89.7 0.1 179.4 0.2 269.1 0 11 4.8 16.4 15.7 16.5 31.7 0.3 63.3 0.4 95-0.2 14.1-0.3 22-9.3 21.7-22.2-0.4-12.7-9.3-20.7-23.3-20.9zM315.5 799.7c-10-0.2-19.9 0-30.7 0-0.3-2.6-0.6-3.9-0.6-5.2 0-80.4-0.1-160.8 0.2-241.2 0-3.5 2.1-7.6 4.5-10.3 10.3-11.5 15.4-24.6 15.4-40-0.1-53.4 0-106.7 0-160.1 0-31.9-23.7-56.4-54.8-57-37.7-0.7-63.1 20.8-63.4 55.2-0.6 54.4-0.1 108.7-0.2 163.1 0 15 5.7 27.7 15.3 39.1 2.7 3.2 4.7 8 4.8 12 0.4 28 0.2 56 0.2 84.1-0.1 61.4-0.3 122.7-0.3 184.1 0 13.4 3.8 19 15 19.1 32 0.4 64 0.5 96-0.1 13.8-0.3 22-10 21.5-22.5-0.6-11.9-9.5-20-22.9-20.3zM243.9 261.5c31.9 0.7 58.2-24.8 58.7-56.9 0.5-32.3-24.5-58.5-56.5-59.1-31.8-0.6-58.2 24.9-59 56.9-0.8 31.6 25 58.5 56.8 59.1zM611.2 261.5c31.9 0.3 57.9-25.4 58.3-57.5 0.4-31.9-25.4-58.2-57.3-58.5-31.9-0.3-58 25.5-58.2 57.5-0.1 32.3 25.2 58.2 57.2 58.5zM794.8 261.5c31.6 0.2 57.9-25.8 58.1-57.5 0.3-31.8-25.4-58.1-57.1-58.5-31.9-0.4-58.9 26.2-58.9 58 0 31.5 26.3 57.8 57.9 58zM427.7 261.5c31.6 0.4 58.3-25.8 58.6-57.4 0.2-31.9-25.6-58.2-57.4-58.6-31.6-0.4-58.2 25.7-58.6 57.5-0.4 31.5 25.6 58.1 57.4 58.5z" p-id="6483" fill="#ffffff"></path></svg>