<?xml version="1.0" standalone="no"?><!DOCTYPE svg PUBLIC "-//W3C//DTD SVG 1.1//EN" "http://www.w3.org/Graphics/SVG/1.1/DTD/svg11.dtd"><svg t="1508383499801" class="icon" style="" viewBox="0 0 1024 1024" version="1.1" xmlns="http://www.w3.org/2000/svg" p-id="10943" xmlns:xlink="http://www.w3.org/1999/xlink" width="200" height="200"><defs><style type="text/css"></style></defs><path d="M821.354496 229.310464c-79.355904-79.187968-184.804352-122.80832-297.020416-122.80832-112.176128 0-217.644032 43.620352-296.936448 122.80832-79.336448 79.232-123.020288 184.571904-123.020288 296.624128-0.02048 112.070656 43.620352 217.388032 122.93632 296.620032 79.311872 79.187968 184.779776 122.807296 296.936448 122.807296 112.239616 0 217.74848-43.660288 297.104384-122.851328C985.078784 658.998272 985.099264 392.890368 821.354496 229.310464L821.354496 229.310464 821.354496 229.310464zM782.93504 783.798272c-69.040128 68.912128-160.87552 106.933248-258.496512 106.933248-97.600512 0-189.372416-37.976064-258.368512-106.84928-68.996096-68.931584-106.999808-160.600064-106.976256-258.115584 0-97.519616 37.999616-189.207552 107.016192-258.095104 69.040128-68.916224 160.768-106.852352 258.392064-106.852352 97.619968 0 189.391872 37.936128 258.432 106.852352C925.371392 409.981952 925.371392 641.52576 782.93504 783.798272L782.93504 783.798272 782.93504 783.798272zM666.247168 389.701632c-27.136 0-49.175552 21.936128-49.175552 48.98816 0 27.012096 22.039552 48.968704 49.175552 48.968704 27.200512 0 49.200128-21.956608 49.200128-48.968704C715.447296 411.63776 693.446656 389.701632 666.247168 389.701632L666.247168 389.701632 666.247168 389.701632zM404.43904 487.658496c27.200512 0 49.200128-21.956608 49.200128-48.968704 0-27.052032-21.999616-48.98816-49.200128-48.98816-27.096064 0-49.219584 21.936128-49.219584 48.98816C355.219456 465.701888 377.322496 487.658496 404.43904 487.658496L404.43904 487.658496 404.43904 487.658496zM524.754944 596.7104c-68.683776 0-129.271808 35.969024-165.235712 91.039744-11.072512 16.944128 1.068032 39.74144 21.01248 39.74144l1.951744 0c8.011776 0 15.767552-3.795968 20.299776-10.612736 26.863616-40.2432 71.472128-66.564096 121.971712-66.564096 50.771968 0 95.628288 25.944064 122.428416 66.499584 4.511744 6.815744 12.311552 10.655744 20.364288 10.655744l1.216512 0c19.944448 0.039936 32.088064-22.796288 20.996096-39.719936C653.72672 632.781824 593.266688 596.7104 524.754944 596.7104L524.754944 596.7104 524.754944 596.7104zM524.754944 596.7104" p-id="10944"></path></svg>