<?xml version="1.0" standalone="no"?><!DOCTYPE svg PUBLIC "-//W3C//DTD SVG 1.1//EN" "http://www.w3.org/Graphics/SVG/1.1/DTD/svg11.dtd"><svg t="1510108551914" class="icon" style="" viewBox="0 0 1024 1024" version="1.1" xmlns="http://www.w3.org/2000/svg" p-id="4036" xmlns:xlink="http://www.w3.org/1999/xlink" width="200" height="200"><defs><style type="text/css"></style></defs><path d="M348.943 207.721c-17.98 7.68-34.153 16.535-49.784 26.895-15.3 10.632-30.028 22.74-42.978 36.051-13.854 13.583-25.63 28.341-35.93 43.731-10.602 15.36-19.728 32.497-26.805 49.634-5.602 13.01 0.602 27.196 13.251 32.497 12.379 5.33 27.076-0.602 32.407-13.01 5.903-14.186 13.553-28.372 22.377-41.383 8.825-12.98 18.553-25.389 29.455-36.02 11.174-11.234 23.251-21.293 36.232-30.148 13.252-8.855 26.805-16.264 40.93-22.468 12.98-5.33 18.854-19.516 13.553-32.497-5.331-12.408-20.059-18.612-32.708-13.282z m640.542 739.96l-179.35-179.38c29.153-35.177 52.705-73.878 70.385-116.435 22.377-53.79 34.153-112.308 34.153-173.778 0-60.296-11.776-118.212-33.581-171.099l-0.603-2.078c-22.407-54.663-55.356-103.725-96.015-145.408l-2.319-2.018c-41.23-41.683-91.286-75.354-146.673-98.394-53.278-22.197-111.917-34.304-172.875-34.304-124.567 0-237.658 50.838-319.548 132.698-41.502 41.653-75.355 91.89-98.033 147.456-22.106 53.49-34.184 111.707-34.184 173.177 0 60.867 12.078 118.814 33.28 171.4l0.874 2.378c22.678 54.965 56.53 105.201 98.063 146.854 41.833 41.954 91.889 75.656 146.673 98.425h0.602c53.007 22.467 111.315 34.575 172.273 34.575 61.53 0 119.567-12.108 172.875-34.575 42.406-17.137 81.59-41.382 116.044-70.325l179.651 180.284c15.903 15.962 42.406 15.962 58.308-0.602 16.203-16.294 15.902-42.587 0-58.85z m-265.637-207.75v0.3l-0.603 0.603c-33.852 33.702-74.21 61.169-119.266 79.48-43.309 18.312-90.985 28.371-141.372 28.371-50.086 0-97.792-10.06-141.071-28.37-45.357-18.312-85.715-46.11-119.567-80.083l-0.301-0.302h0.3c-34.183-33.972-61.86-75.053-80.714-120.29l-0.603-2.078c-17.317-42.526-27.045-89.81-27.045-139.444 0-50.237 9.728-98.124 27.678-141.553 18.853-44.635 46.532-85.986 80.715-120.29C268.56 149.474 361.02 107.82 462.637 107.82c50.357 0 98.063 10.06 141.372 28.07 45.056 18.311 85.715 46.11 119.839 80.384l2.379 1.777c32.677 33.972 59.482 73.878 77.764 118.513l1.174 2.078c16.806 42.556 27.076 90.142 27.076 139.475 0 50.537-10.3 98.394-28.25 141.553-18.282 45.206-45.96 86.287-80.143 120.26z m6.475-286.66c-13.553 0-24.727 11.233-24.727 24.817 0 31.924-5.903 63.819-18.251 93.394l-0.602 1.175c-12.078 27.768-28.853 54.663-52.435 77.432-22.98 23.643-50.056 41.382-78.607 53.188-29.455 12.409-60.958 18.312-93.064 18.312-13.824 0-24.455 11.234-24.455 25.118s10.601 25.118 24.455 25.118c38.58 0 76.288-7.68 112.219-22.468 34.755-14.185 67.132-35.478 94.84-63.85 27.678-27.768 48.58-59.692 63.036-93.966v-0.904c15.3-36.05 22.98-74.752 22.98-112.58-0.06-13.553-11.535-24.786-25.39-24.786z" fill="#1296db" p-id="4037"></path></svg>