<?xml version="1.0" encoding="utf-8"?>
<!-- Generator: Adobe Illustrator 21.0.0, SVG Export Plug-In . SVG Version: 6.00 Build 0)  -->
<svg version="1.1" id="图层_1" xmlns="http://www.w3.org/2000/svg" xmlns:xlink="http://www.w3.org/1999/xlink" x="0px" y="0px"
	 viewBox="0 0 200 200" style="enable-background:new 0 0 200 200;" xml:space="preserve">
<g id="图层_1_1_">
	<path d="M175.4,13.2H24.6c-6.9,0-12.6,5.6-12.6,12.6v148.5c0,6.9,5.6,12.6,12.6,12.6h150.9c6.9,0,12.6-5.6,12.6-12.6V25.8
		C188,18.8,182.4,13.2,175.4,13.2z M175.4,174.4H24.6V25.6h150.9L175.4,174.4z"/>
</g>
<g id="图层_3">
	<path d="M124.4,132.9H75.6c-4.7,0-8.5-3.8-8.5-8.5V75.6c0-4.7,3.8-8.5,8.5-8.5h48.8c4.7,0,8.5,3.8,8.5,8.5v48.8
		C132.9,129.1,129.1,132.9,124.4,132.9z"/>
</g>
</svg>
