<?xml version="1.0" encoding="utf-8"?>
<!-- Generator: Adobe Illustrator 21.0.0, SVG Export Plug-In . SVG Version: 6.00 Build 0)  -->
<svg version="1.1" id="图层_1" xmlns="http://www.w3.org/2000/svg" xmlns:xlink="http://www.w3.org/1999/xlink" x="0px" y="0px"
	 viewBox="0 0 200 200" style="enable-background:new 0 0 200 200;" xml:space="preserve">
<path d="M150.6,60.7l-2.6-6.2c-30.8,19.7-53.1,44.5-63.2,57l-24.5-20l-10.9,9.1l42.4,45.1C99.2,126.1,122.4,87.9,150.6,60.7z"/>
<path d="M175.4,13.2H24.6c-6.9,0-12.6,5.6-12.6,12.6v148.5c0,6.9,5.6,12.6,12.6,12.6h150.9c6.9,0,12.6-5.6,12.6-12.6V25.8
	C188,18.8,182.4,13.2,175.4,13.2z M175.4,174.4H24.6V25.6h150.9L175.4,174.4z"/>
</svg>
