<?xml version="1.0" encoding="utf-8"?>
<!-- Generator: Adobe Illustrator 22.0.0, SVG Export Plug-In . SVG Version: 6.00 Build 0)  -->
<svg version="1.1" id="图层_1" xmlns="http://www.w3.org/2000/svg" xmlns:xlink="http://www.w3.org/1999/xlink" x="0px" y="0px"
	 viewBox="0 0 24 24" style="enable-background:new 0 0 24 24;" xml:space="preserve">
<path d="M12,0C5.4,0,0,5.4,0,12s5.4,12,12,12s12-5.4,12-12S18.6,0,12,0z M4.5,20.1c0.8-3.5,3.7-6.1,7.3-6.2
	c-2.5-0.1-4.5-2.2-4.5-4.8c0-2.7,2.1-4.8,4.6-4.8c2.5,0,4.6,2.2,4.6,4.8c0,2.6-2,4.7-4.5,4.8c3.6,0.1,6.6,2.7,7.3,6.2
	c-2,1.8-4.6,2.9-7.5,2.9C9.1,23,6.5,21.9,4.5,20.1z"/>
</svg>
