<?xml version="1.0" encoding="utf-8"?>
<!-- Generator: Adobe Illustrator 18.1.0, SVG Export Plug-In . SVG Version: 6.00 Build 0)  -->
<svg version="1.1" id="图层_1" xmlns="http://www.w3.org/2000/svg" xmlns:xlink="http://www.w3.org/1999/xlink" x="0px" y="0px"
	 width="18px" height="18px" viewBox="0 0 18 18" enable-background="new 0 0 18 18" xml:space="preserve">
<path d="M17.7,16.4l-4.2-4.2c1-1.3,1.6-2.9,1.6-4.6c0-4.2-3.4-7.6-7.6-7.6C3.4,0.1,0,3.4,0,7.6c0,4.2,3.4,7.6,7.6,7.6
	c1.8,0,3.4-0.6,4.6-1.6l4.2,4.2c0.2,0.2,0.4,0.3,0.7,0.3c0.2,0,0.5-0.1,0.7-0.3C18.1,17.4,18.1,16.8,17.7,16.4z M7.6,13.3
	c-3.1,0-5.7-2.5-5.7-5.7c0-3.1,2.5-5.7,5.7-5.7c3.1,0,5.7,2.5,5.7,5.7C13.3,10.8,10.7,13.3,7.6,13.3z"/>
</svg>
