<?xml version="1.0" encoding="utf-8"?>
<!-- Generator: Adobe Illustrator 18.1.0, SVG Export Plug-In . SVG Version: 6.00 Build 0)  -->
<svg version="1.1" id="图层_1" xmlns="http://www.w3.org/2000/svg" xmlns:xlink="http://www.w3.org/1999/xlink" x="0px" y="0px"
	 width="14px" height="16px" viewBox="0 0 14 16" enable-background="new 0 0 14 16" xml:space="preserve">
<path d="M14,15.4C14,15.4,14,15.4,14,15.4c-0.1-1.2-0.5-2.4-1.2-3.4c-0.8-1.1-1.8-1.9-3.1-2.5c2-1.2,3-3.5,2.4-5.7
	C11.6,1.6,9.4,0,7,0c0,0,0,0,0,0c0,0,0,0,0,0C4.6,0,2.4,1.6,1.8,3.8C1.2,6.1,2.2,8.4,4.2,9.6C3,10.1,1.9,10.9,1.2,12
	c-0.7,1-1.1,2.2-1.2,3.4c0,0,0,0,0,0c0,0,0,0,0,0c0,0,0,0,0,0h0C0,15.7,0.3,16,0.6,16c0.3,0,0.6-0.3,0.6-0.6c0,0,0,0,0,0
	c0.2-2.9,2.7-5.2,5.8-5.2c0,0,0,0,0,0c0,0,0,0,0,0c3,0,5.5,2.3,5.8,5.2c0,0,0,0,0,0c0,0.3,0.3,0.6,0.6,0.6C13.7,16,14,15.7,14,15.4
	L14,15.4C14,15.4,14,15.4,14,15.4C14,15.4,14,15.4,14,15.4z M7,9C7,9,7,9,7,9C5.9,9,4.9,8.6,4.1,7.9S2.9,6.2,2.9,5.1
	c0-2.2,1.8-3.9,4-3.9c0,0,0,0,0,0c0,0,0,0,0,0c2.2,0,4,1.7,4,3.9c0,1-0.4,2-1.2,2.8S8.1,9,7,9C7,9,7,9,7,9z"/>
</svg>
