<?xml version="1.0" encoding="utf-8"?>
<!-- Generator: Adobe Illustrator 18.1.0, SVG Export Plug-In . SVG Version: 6.00 Build 0)  -->
<svg version="1.1" id="图层_1" xmlns="http://www.w3.org/2000/svg" xmlns:xlink="http://www.w3.org/1999/xlink" x="0px" y="0px"
	 width="14px" height="14px" viewBox="0 0 14 14" enable-background="new 0 0 14 14" xml:space="preserve">
<g>
	<g>
		<path d="M5.9,8.3l0,1.5l1.4-0.4l5.9-7.4L11.8,1L5.9,8.3z M11.3,12.8H1.2V3l7.6,0l0.9-1.1H0.1v12h12.3V4.7L11.3,6V12.8z M13.8,0.4
			L13.3,0c0,0-0.1,0-0.2,0c-0.3,0-0.6,0.1-0.6,0.1c0,0-0.3,0.4-0.3,0.4l1.4,1.1l0.3-0.4C13.9,1.1,14,0.6,13.8,0.4z"/>
	</g>
</g>
</svg>
