<?xml version="1.0" encoding="utf-8"?>
<!-- Generator: Adobe Illustrator 22.0.0, SVG Export Plug-In . SVG Version: 6.00 Build 0)  -->
<svg version="1.1" id="图层_1" xmlns="http://www.w3.org/2000/svg" xmlns:xlink="http://www.w3.org/1999/xlink" x="0px" y="0px"
	 viewBox="0 0 20 18" style="enable-background:new 0 0 20 18;" xml:space="preserve">
<g>
	<path d="M10.8,18"/>
	<path d="M10.8,10.7c1,0,1.8-0.8,1.8-1.8s-0.8-1.8-1.8-1.8S9,7.9,9,8.9S9.8,10.7,10.8,10.7z"/>
	<path d="M10.8,0C6.4,0,2.6,3.3,2,7.6l0,0.2H0.3l2.3,3.8l2.3-3.8H3.2l0-0.2C4,3.9,7.1,1.3,10.9,1.3c4.3,0,7.7,3.5,7.7,7.7
		s-3.5,7.7-7.7,7.7c-1.7,0-3.2-0.5-4.6-1.5l-0.7,1c1.5,1.1,3.3,1.7,5.2,1.7h0c4.9,0,8.9-4,8.9-8.9S15.7,0,10.8,0z"/>
</g>
</svg>
