<?xml version="1.0" encoding="utf-8"?>
<!-- Generator: Adobe Illustrator 22.0.0, SVG Export Plug-In . SVG Version: 6.00 Build 0)  -->
<svg version="1.1" id="图层_1" xmlns="http://www.w3.org/2000/svg" xmlns:xlink="http://www.w3.org/1999/xlink" x="0px" y="0px"
	 viewBox="0 0 16 16" style="enable-background:new 0 0 16 16;" xml:space="preserve">
<g>
	<path d="M16,0.9c0-0.5-0.5-1-1-0.9h-0.1L5.6,1.1c-0.5,0-0.9,0.4-0.9,1v9L4.5,11c-0.5-0.4-1.1-0.6-1.7-0.6c-1.6,0-2.8,1.2-2.8,2.8
		S1.3,16,2.8,16s2.8-1.2,2.8-2.8V5.5l9.5-1v4.8l0.9,1.9V0.9z M2.8,15.1c-1,0-1.9-0.8-1.9-1.9c0-1,0.8-1.9,1.9-1.9
		c1,0,1.8,0.8,1.9,1.9C4.7,14.3,3.8,15.1,2.8,15.1z M15,3.5l-9.5,1V2h0.1L15,0.9V3.5z"/>
	<g>
		<path d="M12.3,14.8c-1,0-1.9-0.4-2.6-1.1C9,13,8.6,12.1,8.6,11.1c0-2,1.7-3.7,3.7-3.7c2.1,0,3.7,1.7,3.7,3.7
			C16,13.1,14.3,14.8,12.3,14.8C12.3,14.8,12.3,14.8,12.3,14.8z M10.1,9.5c-0.3,0.5-0.5,1-0.5,1.6c0,1.5,1.2,2.8,2.7,2.8l0,0
			c0.6,0,1.1-0.2,1.6-0.5L10.1,9.5z M12.3,8.3c-0.6,0-1.1,0.2-1.6,0.5l3.8,3.8c0.3-0.5,0.5-1,0.5-1.6C15,9.6,13.8,8.4,12.3,8.3
			L12.3,8.3z"/>
	</g>
</g>
</svg>
