<?xml version="1.0" encoding="utf-8"?>
<!-- Generator: Adobe Illustrator 22.0.0, SVG Export Plug-In . SVG Version: 6.00 Build 0)  -->
<svg version="1.1" id="图层_1" xmlns="http://www.w3.org/2000/svg" xmlns:xlink="http://www.w3.org/1999/xlink" x="0px" y="0px"
	 viewBox="0 0 16 16" style="enable-background:new 0 0 16 16;" xml:space="preserve">
<g>
	<path d="M15.1,0.1l-4.3,4.3l0-2.4c0-0.2-0.2-0.4-0.4-0.4h-0.3c-0.2,0-0.4,0.1-0.4,0.3l0,3.6c0,0,0,0.2,0,0.2c0,0.1,0,0.2,0.1,0.3
		c0.1,0.1,0.2,0.1,0.3,0.1l0.2,0c0,0,0,0,0,0l3.6,0c0.2,0,0.4-0.2,0.4-0.4V5.5c0-0.2-0.2-0.4-0.4-0.4l-2.4,0l4.3-4.3
		c0.2-0.2,0.2-0.5,0-0.7C15.7,0,15.3,0,15.1,0.1L15.1,0.1z"/>
	<path d="M0.8,15.9l4.3-4.3l0,2.4c0,0.2,0.2,0.4,0.4,0.4h0.3c0.2,0,0.4-0.1,0.4-0.3l0-3.6c0,0,0-0.2,0-0.2c0-0.1,0-0.2-0.1-0.3
		C6,9.9,5.9,9.9,5.8,9.9l-0.2,0c0,0,0,0,0,0L2,9.9c-0.2,0-0.4,0.2-0.4,0.4v0.3c0,0.2,0.2,0.4,0.4,0.4l2.4,0l-4.3,4.3
		c-0.2,0.2-0.2,0.5,0,0.7C0.3,16,0.7,16,0.8,15.9L0.8,15.9z"/>
	<path d="M9.9,10.4l0,3.6c0,0.2,0.2,0.3,0.4,0.3h0.3c0.2,0,0.4-0.2,0.4-0.4l0-2.4l4.3,4.3c0.2,0.2,0.5,0.2,0.7,0
		c0.2-0.2,0.2-0.5,0-0.7l-4.3-4.3l2.4,0c0.2,0,0.4-0.1,0.4-0.4v-0.3c0-0.2-0.2-0.4-0.4-0.4l-3.6,0c0,0,0,0,0,0l-0.2,0
		c-0.1,0-0.2,0-0.3,0.1c-0.1,0.1-0.1,0.2-0.1,0.3C9.9,10.2,9.9,10.4,9.9,10.4L9.9,10.4z"/>
	<path d="M4.4,5.1l-2.4,0c-0.2,0-0.4,0.1-0.4,0.4v0.3C1.7,6,1.8,6.1,2,6.1l3.6,0c0,0,0,0,0,0l0.2,0c0.1,0,0.2,0,0.3-0.1
		C6.1,6,6.2,5.9,6.2,5.8c0,0,0-0.2,0-0.2l0-3.6c0-0.2-0.2-0.3-0.4-0.3H5.5C5.3,1.6,5.1,1.8,5.1,2l0,2.4L0.9,0.1C0.7,0,0.3,0,0.1,0.1
		C0,0.3,0,0.7,0.1,0.9L4.4,5.1z"/>
	<path d="M1.7,1"/>
</g>
</svg>
