<?xml version="1.0" encoding="utf-8"?>
<!-- Generator: Adobe Illustrator 22.0.0, SVG Export Plug-In . SVG Version: 6.00 Build 0)  -->
<svg version="1.1" id="图层_1" xmlns="http://www.w3.org/2000/svg" xmlns:xlink="http://www.w3.org/1999/xlink" x="0px" y="0px"
	 viewBox="0 0 20 18" style="enable-background:new 0 0 20 18;" xml:space="preserve">
<g>
	<g>
		<path d="M10.8,18"/>
		<path d="M10.8,10.7c1,0,1.8-0.8,1.8-1.8s-0.8-1.8-1.8-1.8S9,7.9,9,8.9S9.8,10.7,10.8,10.7z"/>
	</g>
	<g>
		<g>
			<path d="M12.7,17.2c-0.2-0.2-0.4-0.4-0.5-0.6c-0.4,0.1-0.9,0.1-1.3,0.1c-1.7,0-3.2-0.5-4.6-1.5l-0.7,1c1.5,1.1,3.3,1.7,5.2,1.7h0
				c0.8,0,1.5-0.1,2.3-0.3C12.9,17.4,12.8,17.3,12.7,17.2z"/>
			<path d="M10.9,1.3c4.3,0,7.7,3.5,7.7,7.7c0,0.4,0,0.8-0.1,1.3c0.4,0.2,0.7,0.6,1,0.9c0.2-0.7,0.3-1.4,0.3-2.2
				c0-4.9-4-8.9-8.9-8.9C6.4,0,2.6,3.3,2,7.6l0,0.2H0.3l2.3,3.8l2.3-3.8H3.2l0-0.2C4,3.9,7.1,1.3,10.9,1.3z"/>
		</g>
		<path d="M15.9,17.7c-1,0-1.9-0.4-2.6-1.1c-0.7-0.7-1.1-1.7-1.1-2.6c0-2.1,1.7-3.7,3.7-3.7c2.1,0,3.8,1.7,3.7,3.8
			C19.6,16,18,17.7,15.9,17.7C15.9,17.7,15.9,17.7,15.9,17.7z M13.7,12.4c-0.3,0.5-0.5,1-0.5,1.6c0,1.5,1.2,2.8,2.8,2.8l0,0
			c0.6,0,1.1-0.2,1.6-0.5L13.7,12.4z M15.9,11.2c-0.6,0-1.1,0.2-1.6,0.5l3.8,3.9c0.3-0.5,0.5-1,0.5-1.6
			C18.7,12.5,17.5,11.2,15.9,11.2L15.9,11.2z"/>
	</g>
</g>
</svg>
