<?xml version="1.0" encoding="utf-8"?>
<!-- Generator: Adobe Illustrator 22.0.0, SVG Export Plug-In . SVG Version: 6.00 Build 0)  -->
<svg version="1.1" id="图层_1" xmlns="http://www.w3.org/2000/svg" xmlns:xlink="http://www.w3.org/1999/xlink" x="0px" y="0px"
	 viewBox="0 0 16 16" style="enable-background:new 0 0 16 16;" xml:space="preserve">
<path d="M2.8,16C1.3,16,0,14.8,0,13.2c0-1.6,1.2-2.8,2.8-2.8c0.6,0,1.2,0.2,1.7,0.6l0.1,0.1v-9c0-0.5,0.4-1,0.9-1L14.9,0H15
	c0.5,0,1,0.4,1,0.9v10.5c0,0.8-0.3,1.5-0.8,2c-0.5,0.5-1.2,0.8-2,0.8c-1.5,0-2.8-1.2-2.8-2.8c0-1.5,1.2-2.8,2.8-2.8
	c0.6,0,1.2,0.2,1.7,0.6l0.1,0.1V4.4l-9.5,1v7.7C5.6,14.8,4.3,16,2.8,16L2.8,16z M2.8,11.4c-1,0-1.9,0.8-1.9,1.9c0,1,0.8,1.9,1.9,1.9
	c1,0,1.9-0.8,1.9-1.9C4.6,12.2,3.8,11.4,2.8,11.4L2.8,11.4z M13.2,9.6c-1,0-1.9,0.8-1.9,1.9c0,1,0.8,1.9,1.9,1.9
	c1,0,1.9-0.8,1.9-1.9C15.1,10.5,14.2,9.6,13.2,9.6L13.2,9.6z M5.6,4.5l9.5-1V0.9L5.7,2H5.6V4.5z M5.6,4.5"/>
</svg>
