<?xml version="1.0" encoding="utf-8"?>
<!-- Generator: Adobe Illustrator 22.0.0, SVG Export Plug-In . SVG Version: 6.00 Build 0)  -->
<svg version="1.1" id="图层_1" xmlns="http://www.w3.org/2000/svg" xmlns:xlink="http://www.w3.org/1999/xlink" x="0px" y="0px"
	 viewBox="0 0 18 18" style="enable-background:new 0 0 18 18;" xml:space="preserve">
<g>
	<path d="M7.3,8.4H1.1C0.5,8.4,0,7.9,0,7.3V1.1C0,0.5,0.5,0,1.1,0h6.2c0.6,0,1.1,0.5,1.1,1.1v6.2C8.4,7.9,7.9,8.4,7.3,8.4L7.3,8.4z
		 M1.4,7H7V1.4H1.4V7z M16.9,8.4h-6.2c-0.6,0-1.1-0.5-1.1-1.1V1.1c0-0.6,0.5-1.1,1.1-1.1h6.2C17.5,0,18,0.5,18,1.1v6.2
		C18,7.9,17.5,8.4,16.9,8.4L16.9,8.4z M11,7h5.6V1.4H11V7z M7.3,18H1.1C0.5,18,0,17.5,0,16.9v-6.2c0-0.6,0.5-1.1,1.1-1.1h6.2
		c0.6,0,1.1,0.5,1.1,1.1v6.2C8.4,17.5,7.9,18,7.3,18L7.3,18z M1.4,16.6H7V11H1.4V16.6z M1.4,16.6"/>
	<path d="M5.4,4.8c0,0.4-0.4,0.8-0.8,0.8H3.7c-0.4,0-0.8-0.4-0.8-0.8V3.9c0-0.4,0.4-0.8,0.8-0.8h0.9c0.4,0,0.8,0.4,0.8,0.8V4.8z
		 M15.1,4.8c0,0.4-0.4,0.8-0.8,0.8h-0.9c-0.4,0-0.8-0.4-0.8-0.8V3.9c0-0.4,0.4-0.8,0.8-0.8h0.9c0.4,0,0.8,0.4,0.8,0.8V4.8z
		 M5.4,14.4c0,0.4-0.4,0.8-0.8,0.8H3.7c-0.4,0-0.8-0.4-0.8-0.8v-0.9c0-0.4,0.4-0.8,0.8-0.8h0.9c0.4,0,0.8,0.4,0.8,0.8V14.4z
		 M10.3,18c-0.4,0-0.7-0.3-0.7-0.7v-7c0-0.4,0.3-0.7,0.7-0.7h2.9c0.4,0,0.7,0.3,0.7,0.7v3.5h2.7v-3.5c0-0.4,0.3-0.7,0.7-0.7
		c0.4,0,0.7,0.3,0.7,0.7v4.2c0,0.4-0.3,0.7-0.7,0.7h-4c-0.4,0-0.7-0.3-0.7-0.7V11H11v6.3C11,17.7,10.7,18,10.3,18L10.3,18z M10.3,18
		"/>
	<path d="M17.3,18h-4c-0.4,0-0.7-0.3-0.7-0.7c0-0.4,0.3-0.7,0.7-0.7h4c0.4,0,0.7,0.3,0.7,0.7C18,17.7,17.7,18,17.3,18L17.3,18z
		 M17.3,18"/>
</g>
</svg>
