<?xml version="1.0" encoding="utf-8"?>
<!-- Generator: Adobe Illustrator 22.0.0, SVG Export Plug-In . SVG Version: 6.00 Build 0)  -->
<svg version="1.1" id="图层_1" xmlns="http://www.w3.org/2000/svg" xmlns:xlink="http://www.w3.org/1999/xlink" x="0px" y="0px"
	 viewBox="0 0 18 18" style="enable-background:new 0 0 18 18;" xml:space="preserve">
<g>
	<path d="M13.7,5.9H4.3C4,5.9,3.8,5.6,3.8,5.3C3.8,5,4,4.7,4.3,4.7h9.3c0.3,0,0.6,0.3,0.6,0.6C14.2,5.6,14,5.9,13.7,5.9z"/>
	<path d="M13.7,10H4.3C4,10,3.8,9.8,3.8,9.5c0-0.3,0.3-0.6,0.6-0.6h9.3c0.3,0,0.6,0.3,0.6,0.6C14.2,9.8,14,10,13.7,10z"/>
	<path d="M0.6,18c-0.1,0-0.2,0-0.2,0C0.1,17.9,0,17.7,0,17.4V2.6C0,1.2,1.2,0,2.6,0h12.8C16.8,0,18,1.2,18,2.6v9.5
		c0,1.5-1.2,2.6-2.6,2.6H4.2l-3.3,3.1C0.8,17.9,0.7,18,0.6,18z M2.6,1.1c-0.8,0-1.5,0.7-1.5,1.5v13.5l2.5-2.3
		c0.1-0.1,0.2-0.2,0.4-0.2h11.4c0.8,0,1.5-0.7,1.5-1.5V2.6c0-0.8-0.7-1.5-1.5-1.5H2.6z"/>
</g>
</svg>
