<?xml version="1.0" encoding="utf-8"?>
<!-- Generator: Adobe Illustrator 22.0.0, SVG Export Plug-In . SVG Version: 6.00 Build 0)  -->
<svg version="1.1" id="图层_1" xmlns="http://www.w3.org/2000/svg" xmlns:xlink="http://www.w3.org/1999/xlink" x="0px" y="0px"
	 viewBox="0 0 18 18" style="enable-background:new 0 0 18 18;" xml:space="preserve">
<path d="M15.2,9.7H9.7v5.5c0,1.5,1.2,2.8,2.8,2.8h2.8c1.5,0,2.8-1.2,2.8-2.8v-2.8C18,10.9,16.7,9.7,15.2,9.7z M17,15.2
	c0,1-0.8,1.8-1.8,1.8h-2.8c-1,0-1.8-0.8-1.8-1.8v-4.6h4.6c1,0,1.8,0.8,1.8,1.8V15.2z"/>
<path d="M2.8,9.7C1.2,9.7,0,10.9,0,12.4v2.8C0,16.7,1.2,18,2.8,18h2.8c1.5,0,2.8-1.2,2.8-2.8V9.7H2.8z M7.3,15.2
	c0,1-0.8,1.8-1.8,1.8H2.8c-1,0-1.8-0.8-1.8-1.8v-2.8c0-1,0.8-1.8,1.8-1.8h4.6V15.2z"/>
<path d="M15.2,0h-2.8c-1.5,0-2.8,1.2-2.8,2.8v5.5h5.5c1.5,0,2.8-1.2,2.8-2.8V2.8C18,1.3,16.7,0,15.2,0z M17,5.5c0,1-0.8,1.8-1.8,1.8
	h-4.6V2.8c0-1,0.8-1.8,1.8-1.8h2.8c1,0,1.8,0.8,1.8,1.8V5.5z"/>
<path d="M5.5,0H2.8C1.2,0,0,1.3,0,2.8v2.8c0,1.5,1.2,2.8,2.8,2.8h5.5V2.8C8.3,1.3,7.1,0,5.5,0z M7.3,7.3H2.8C1.8,7.3,1,6.5,1,5.5
	V2.8C1,1.8,1.8,1,2.8,1h2.8c1,0,1.8,0.8,1.8,1.8V7.3z"/>
<path d="M2.8,1"/>
</svg>
