<?xml version="1.0" encoding="utf-8"?>
<!-- Generator: Adobe Illustrator 22.0.0, SVG Export Plug-In . SVG Version: 6.00 Build 0)  -->
<svg version="1.1" id="图层_1" xmlns="http://www.w3.org/2000/svg" xmlns:xlink="http://www.w3.org/1999/xlink" x="0px" y="0px"
	 viewBox="0 0 100 32" style="enable-background:new 0 0 100 32;" xml:space="preserve">
<style type="text/css">
	.st0{fill:#040000;}
</style>
<g xmlns="http://www.w3.org/2000/svg">
	<path d="M 1,29.2 29.1,1.3 41.5,13.5 29.1,7.8  z"/>
	<path d="M 52.5,30.1 35,12.8 27.3,20.3 34.6,16.7  z"/>
	<path d="M 33.4,30.7 21.1,18.4 15.7,23.8 21,21.1  z"/>
	<g id="XMLID_106_">
		<rect id="XMLID_110_" x="29.9" y="21.7" class="st0" width="1.6" height="1.6"/>
		<rect id="XMLID_109_" x="31.9" y="21.7" class="st0" width="1.6" height="1.6"/>
		<rect id="XMLID_108_" x="29.9" y="23.7" class="st0" width="1.6" height="1.6"/>
		<rect id="XMLID_107_" x="31.9" y="23.7" class="st0" width="1.6" height="1.6"/>
	</g>
	<g id="XMLID_87_">
		<path id="XMLID_104_" class="st0" d="M61.2,23.4l-2.8,3.2l2.7,3.1h-1.7l-1.6-2c-0.1-0.1-0.2-0.3-0.4-0.5h0c0,0-0.1,0.2-0.4,0.5    l-1.6,2h-1.7l2.8-3.1L54,23.4h1.7l1.5,2.1c0.1,0.1,0.2,0.3,0.3,0.5h0l2-2.6H61.2z"/>
		<path id="XMLID_102_" class="st0" d="M66.9,21.3c-0.3-0.1-0.6-0.2-0.9-0.2c-0.9,0-1.4,0.4-1.4,1.3v0.9h1.9v0.9h-1.9v5.4h-1.4v-5.4    h-1.4v-0.9h1.4v-1c0-0.7,0.3-1.2,0.8-1.6c0.5-0.4,1.2-0.6,1.9-0.6c0.4,0,0.7,0,1,0.1V21.3z"/>
		<path id="XMLID_100_" class="st0" d="M68,29.7v-9.4h1.5v9.4H68z"/>
		<path id="XMLID_98_" class="st0" d="M71.6,29.1c0-0.2,0.1-0.4,0.3-0.5c0.2-0.1,0.4-0.2,0.7-0.2c0.3,0,0.5,0.1,0.7,0.2    c0.2,0.1,0.3,0.3,0.3,0.5c0,0.2-0.1,0.4-0.3,0.5c-0.2,0.1-0.4,0.2-0.7,0.2c-0.3,0-0.5-0.1-0.7-0.2C71.7,29.5,71.6,29.3,71.6,29.1z    "/>
		<path id="XMLID_96_" class="st0" d="M75.7,29.7v-9.4h1.5v9.4H75.7z"/>
		<path id="XMLID_93_" class="st0" d="M79.6,21.1c0-0.2,0.1-0.4,0.3-0.5c0.2-0.1,0.4-0.2,0.7-0.2c0.3,0,0.5,0.1,0.7,0.2    c0.2,0.1,0.3,0.3,0.3,0.5c0,0.2-0.1,0.4-0.3,0.5c-0.2,0.1-0.4,0.2-0.7,0.2c-0.3,0-0.5-0.1-0.7-0.2C79.7,21.5,79.6,21.3,79.6,21.1z     M79.8,29.7v-6.3h1.5v6.3H79.8z"/>
		<path id="XMLID_88_" class="st0" d="M90.4,23.4l-3.3,6.3h-1.5l-3.1-6.3h1.6l2,4.5c0.2,0.4,0.3,0.7,0.3,0.9h0    c0-0.3,0.1-0.6,0.3-0.9l2.1-4.5H90.4z"/>
		<path id="XMLID_89_" class="st0" d="M98.4,26.8h-5.8c0,0.7,0.3,1.2,0.7,1.6c0.5,0.4,1.1,0.6,1.9,0.6c0.9,0,1.8-0.2,2.5-0.7v1    c-0.7,0.4-1.7,0.6-2.9,0.6c-1.2,0-2.1-0.3-2.8-0.9s-1-1.4-1-2.4c0-1,0.4-1.8,1.1-2.4c0.7-0.6,1.6-0.9,2.7-0.9    c1.1,0,1.9,0.3,2.5,0.8c0.6,0.5,0.9,1.3,0.9,2.2V26.8z M96.9,25.9c0-0.6-0.2-1-0.5-1.3c-0.3-0.3-0.8-0.5-1.5-0.5    c-0.6,0-1.1,0.2-1.5,0.5c-0.4,0.3-0.7,0.8-0.8,1.3H96.9z"/>
	</g>
	<g id="XMLID_65_">
		<path id="XMLID_84_" class="st0" d="M55.8,17.2c0,0,0-0.1,0.1-0.3c0-0.1,0-0.2,0-0.3c0-0.7,0.1-1.6,0.2-3c0,0.1,0,0,0-0.3    c-0.5,0-1.2,0.1-2.2,0.3c-0.5,0.1-0.9,0.1-1.1,0.2c-0.1,0-0.2,0-0.6,0c-0.3-0.1-0.5-0.2-0.6-0.3c0.1-0.1,0.3-0.1,0.7-0.2    c0.7,0.1,1.6,0,2.8-0.2c0.1,0,0.2,0,0.3-0.1c0.4,0,0.7-0.1,0.8-0.1c0-0.4,0-0.8,0-1.1c-0.8,0.1-1.4,0.2-2,0.2l-0.2-0.1    c-0.3-0.1-0.5-0.2-0.5-0.3v-0.1l0.1-0.1c0.1,0,0.2-0.1,0.3-0.1c0.5,0,0.8,0,0.9-0.1c-0.8-0.6-1.1-1.2-0.9-1.7    c-0.5,0.1-1.2,0.2-2.1,0.4c-0.2,0-0.5,0.1-0.9,0.2c-0.6,0.1-1.2,0.2-1.5,0.2c-0.5,0-0.8-0.1-0.8-0.3c-0.1-0.1,0.3-0.2,1-0.2    c0.3,0,0.7,0,1.3-0.1c0.3,0,0.8-0.1,1.5-0.2c0.7-0.1,1.2-0.1,1.5-0.2c0.1-0.1,0.2-0.1,0.3-0.1c0.1,0,0.2,0,0.3,0    c0.1,0,0.1,0,0.2,0c0.4,0,0.8-0.1,1.2-0.2C56,8.9,56,8.5,56,8.1c-0.3,0.1-0.7,0.2-1,0.2c-0.7,0-1.2-0.2-1.4-0.6l-0.1-0.1    c-0.1,0-0.1-0.1-0.1-0.1c0.2-0.1,0.3-0.1,0.3-0.1c0.1,0,0.3,0,0.5,0.1c0.2,0,0.4,0.1,0.6,0.1c0.5,0,1-0.1,1.3-0.2    c0-0.1,0-0.3,0-0.5c0.1-0.4,0.1-0.8,0-0.9c0,0,0-0.1-0.1-0.2c-0.1-0.2-0.1-0.4-0.1-0.6c0-0.1,0.1-0.1,0.3-0.1h0.1    c0.6,0,0.9,0.2,0.8,0.7c0,0.2,0,0.4-0.1,0.7c0,0.3,0,0.5,0,0.6C57.4,7,57.7,7,58.1,7c0.3,0,0.6,0.1,0.8,0.4c0,0.2-0.2,0.3-0.7,0.4    c-0.1,0-0.2,0-0.2,0c-0.3,0-0.6,0.1-0.9,0.2c-0.1,0.4-0.2,0.8-0.2,1.2c0.1,0,0.3,0,0.5-0.1c0.2,0,0.4,0,0.5,0V9    c0.1-0.1,0.1-0.1,0.2-0.1c0.3,0,0.6,0,0.8,0.1c0.2,0,0.4,0,0.8-0.1c0.7-0.1,1.3-0.1,1.6-0.1c0.9,0,1.5,0.1,2,0.2    c0.2,0.1,0.1,0.3-0.2,0.4c-0.2,0.1-0.5,0.1-0.9,0c-0.3,0-0.5-0.1-0.6-0.1c-0.8,0-1.6,0-2.4,0.1c0.1,0,0,0-0.2,0    c0.1,0.1,0,0.3-0.2,0.6c-0.5,0.5-1.1,0.9-1.8,1.2c0.6-0.1,1.1-0.1,1.3-0.1c0.5,0.1,0.6,0.3,0.3,0.5c-0.1,0-0.2,0-0.4,0.1    c-0.3,0.1-0.6,0.1-0.7,0.1h-0.2c-0.1,0-0.2-0.1-0.2-0.1c-0.2,0-0.3,0-0.3,0.1c0,0.3,0,0.6,0,1.1c0.1,0,0.2,0,0.3-0.1    c1.2-0.2,2.1-0.2,2.6-0.1c0.5,0.1,0.6,0.3,0.3,0.4c-0.1,0-0.3,0.1-0.8,0.1c-0.6-0.1-1.4-0.1-2.4,0c0,1.2,0,2.3,0,3.4    c0,0.4,0,0.7-0.1,0.8c-0.1,0-0.1,0-0.2,0.1C56.1,17.6,55.8,17.4,55.8,17.2z M55.6,11.3c0.1,0,0.2,0,0.4-0.1c0.2,0,0.3,0,0.3-0.1    c0,0,0-0.1-0.1-0.1c-0.1,0-0.2,0-0.2-0.1c0.2,0,0.3-0.1,0.4-0.1c0.1-0.1,0.2-0.1,0.3-0.2c0.3-0.3,0.6-0.6,0.8-0.9    c0.1-0.1,0.2-0.3,0.2-0.5c-0.1,0-0.3,0.1-0.6,0.1c-0.2,0-0.4,0.1-0.5,0.1c-0.2,0-0.4,0.1-0.6,0.2c-0.2,0-0.3,0-0.4-0.1    c-0.2,0-0.5,0.1-0.8,0.1c0.1,0,0,0-0.2,0.1c0.2,0.4,0.4,0.9,0.7,1.3C55.5,11.1,55.5,11.2,55.6,11.3z"/>
		<path id="XMLID_66_" class="st0" d="M71.2,16.5c0-0.2,0-0.4,0-0.6c0-1,0.1-2,0.2-3c-0.6,0.4-1.5,1-2.7,1.6    c-0.2,0.2-0.5,0.3-0.9,0.3h-0.2c-0.4,0-0.6-0.2-0.6-0.5c0-0.1,0.1-0.2,0.2-0.3c0.1,0,0.2-0.1,0.2-0.1c1.9-1.7,3.3-3.1,4.2-4.2    c-1.4,0.6-2.5,1-3.2,1.2c-0.1,0-0.2,0.1-0.4,0.2c-0.9-0.1-1.4-0.4-1.5-0.8c0.1-0.3,0.2-0.5,0.5-0.6c0,0.1,0.1,0.2,0.2,0.2    c1-0.1,2.3-0.4,4.1-0.9c0.1,0,0.2-0.1,0.2-0.1c0.7-0.2,1.2-0.4,1.4-0.4c0.4,0,0.6,0.2,0.6,0.4c0,0.1-0.1,0.2-0.2,0.5    c-0.2,0.2-0.2,0.4-0.2,0.5c-0.1,0.1-0.1,0.3-0.1,0.6c-0.1,0.3-0.1,0.5-0.1,0.6c0.1,0,0.1-0.1,0.2-0.1c0.3-0.2,0.7-0.4,1-0.6    c0.3-0.2,0.6-0.4,1-0.6c-0.2,0.1-0.4,0.3-0.6,0.6v0.1c-0.2,0-0.2,0-0.2,0.1v0.1c-0.2,0.2-0.3,0.3-0.5,0.3v0.1c0,0,0,0.1-0.1,0.2    c-0.1,0.1-0.3,0.3-0.6,0.5c-0.2,0.1-0.3,0.1-0.3,0.2c-0.1,0.6-0.1,1.5-0.2,2.6v2.1v0.1c-0.1,0.3-0.3,0.5-0.6,0.5    C71.5,17.2,71.3,16.9,71.2,16.5z M72.5,7.6c-0.2-0.2-0.6-0.3-1.1-0.3c-0.1,0-0.1,0-0.2,0c-0.1,0-0.2,0.1-0.3,0.1V7.3    c0.4-0.2,0.6-0.4,0.6-0.6c0,0,0-0.1-0.1-0.1c-0.2-0.1-0.5-0.3-0.8-0.6c-0.1-0.1-0.2-0.2-0.2-0.2V5.8c0.1-0.1,0.4-0.2,1-0.3    c0.3,0,0.8,0.1,1.4,0.3C72.9,5.9,73,5.9,73,6c0.4,0.2,0.7,0.6,0.9,1c0,0,0,0.1,0,0.2c-0.1,0.3-0.2,0.5-0.6,0.6    c-0.1,0-0.2,0-0.4-0.1C72.7,7.5,72.6,7.5,72.5,7.6z M70.5,12.2c0.3-0.2,0.6-0.3,1-0.5c0-0.2,0-0.4,0.1-0.6    c-0.1,0.1-0.2,0.2-0.4,0.4C70.9,11.9,70.7,12.1,70.5,12.2z M80.5,16.4c0,0-0.1,0-0.3,0c-0.1,0-0.2,0-0.2,0    c-0.2-0.1-0.3-0.2-0.6-0.4c-0.1-0.1-0.3-0.3-0.6-0.5c-0.1-0.1-0.2-0.1-0.2-0.2c-0.6,0-1.3,0.1-2,0.2c-0.1,0-0.1,0-0.2,0.1    c-0.1,0.1-0.2,0.1-0.3,0.1c-0.1,0-0.2-0.1-0.4-0.3c-0.5-0.7-0.8-1.5-1-2.7c-0.1-0.3-0.1-0.5-0.1-0.8v-0.3c0,0,0.1-0.1,0.2-0.1    c0.1,0,0.3,0,0.5,0.1c0.2,0.1,0.3,0.1,0.4,0.1c2-0.4,3.9-0.7,5.9-0.7c1.2,0,1.8,0.3,2,0.7c-0.2,1-0.7,2.2-1.5,3.7    c-0.2,0.4-0.6,0.6-1,0.8C80.7,16.3,80.6,16.4,80.5,16.4z M74.9,7.1c0.1-0.2,0.6-0.4,1.6-0.5c1.1,0,2.1-0.1,3.1-0.2    c0.1,0,0.2,0,0.2-0.1c0.1,0,0.2-0.1,0.2-0.1c0.7,0,1,0.1,1,0.3c0,0.3-0.7,0.5-2.1,0.5H79c-0.1,0-0.3,0-0.6,0.1    c-0.5,0.1-1,0.1-1.3,0.2c-0.1,0-0.2,0-0.4,0.1c-0.4,0.1-0.7,0.1-0.9,0.1c-0.2,0-0.3,0-0.3-0.1h-0.1C75.1,7.4,74.9,7.3,74.9,7.1z     M75,9.1c0,0,0-0.1,0.1-0.2c0.2-0.4,0.5-0.7,0.7-0.7c0.1,0,0.3,0.1,0.5,0.2c0.1,0,0.1,0.1,0.2,0.1C78,8.1,79.1,8,79.8,8    C79.9,8,80,8,80.2,8l0.2,0.1c0.6,0.1,1,0.4,1,0.7c-0.1,0.3-0.4,0.7-1.1,1.2c-0.2,0.1-0.3,0.2-0.3,0.2v0.1    c-0.1,0.1-0.2,0.2-0.3,0.3h-0.4c-0.2,0-0.3,0.1-0.4,0.1c-0.1,0-0.2,0-0.6,0c-0.5,0-0.9,0-1,0.1c-0.1,0-0.2,0.1-0.4,0.4    c-0.1,0-0.1-0.1-0.2-0.1c-0.1,0-0.1,0-0.2,0C75.8,10.9,75.3,10.2,75,9.1z M75.7,12.4c0.1,0.1,0.1,0.2,0.2,0.4    c0.1,0.2,0.2,0.3,0.2,0.4c0.2,0,0.5-0.1,0.9-0.1c0.4-0.1,0.7-0.1,0.9-0.1c0-0.3,0-0.7,0-1c-0.1,0-0.2,0-0.4,0.1    C76.5,12.2,76,12.3,75.7,12.4z M76.1,13.6c0,0.1,0.1,0.4,0.3,0.9h0.1l1.2-0.6c0,0,0-0.1,0.1-0.3v-0.3c-0.2,0-0.7,0-1.4,0.1    C76.2,13.6,76.1,13.6,76.1,13.6z M76.5,14.8c0,0.1,0.1,0.2,0.2,0.3c0.1,0,0.2,0,0.3-0.1c0.3,0,0.5-0.1,0.6-0.1    c0.1-0.2,0.1-0.5,0.1-0.7c-0.2,0.1-0.4,0.2-0.7,0.3c-0.1,0.1-0.1,0.1-0.2,0.1c-0.1,0-0.1,0.1-0.2,0.1    C76.6,14.7,76.5,14.7,76.5,14.8z M76.9,9.2c0.1,0.7,0.2,1,0.3,1c0.2,0,0.5-0.1,0.9-0.2c0.2,0,0.3-0.1,0.4-0.1    c0.6-0.4,1-0.9,1.2-1.4c0,0,0-0.1-0.1-0.1c-1.4,0.1-2.3,0.3-2.7,0.5V9.2z M79.5,15.2c0.1,0.1,0.3,0.1,0.6,0.1    c0.1,0,0.2-0.1,0.3-0.2c0.7-1.3,1.1-2.3,1.2-3.1c0-0.1,0-0.2,0-0.3c-0.1,0-0.2-0.1-0.3-0.1h-0.6c-0.6,0-1.2,0.1-1.9,0.2    c0,0.3,0,0.6,0,1c0.3,0,0.9-0.1,1.7-0.1l0.1,0.1c0.3,0,0.4,0.1,0.4,0.2c0,0.1-0.2,0.2-0.5,0.3c-0.1,0-0.1,0-0.2,0    c-0.3,0-0.6,0.1-1,0.2l-0.2,0.1c-0.3,0.1-0.4,0.2-0.5,0.3c-0.1,0.2-0.1,0.5-0.1,0.9c0.1,0,0.2,0,0.4,0.1c0.2,0,0.3,0,0.3,0.1    c0.2,0.1,0.3,0.2,0.3,0.3C79.6,15.1,79.5,15.1,79.5,15.2z M79.1,13.3c-0.2,0-0.3,0-0.3,0.1v0.2c0.3-0.1,0.5-0.1,0.5-0.2    C79.3,13.3,79.2,13.3,79.1,13.3z"/>
		<path id="XMLID_68_" class="st0" d="M89.1,15.7c0.1,0,0.2,0,0.3-0.1c1.2-0.1,2.1-0.2,2.8-0.2c0,0,0-0.1-0.1-0.2l-0.1-0.1h0.2v-0.1    c-0.2,0-0.2-0.1-0.2-0.2c0.1,0,0.1-0.1,0.1-0.1c0.1,0.1,0.2,0.1,0.3,0.1l0.2-0.1c0.1,0,0.2-0.1,0.2-0.3c0-0.1,0-0.3,0-0.6    c0-0.3,0-0.5-0.1-0.6c-0.2,0-0.6,0-1,0c-0.2,0-0.4,0-0.5,0L91,13.5c-0.1,0-0.1,0-0.1,0.1c-0.1,0-0.2,0-0.4-0.1    c-0.3,0-0.5-0.1-0.5-0.1c0-0.1,0.3-0.2,0.8-0.3c0.5-0.2,1.2-0.3,1.8-0.3c0-0.1,0-0.4,0-0.7c0.1-0.4,0.1-0.7,0.1-0.9    c-0.2,0-0.5,0-0.8,0.1c-0.4,0-0.7,0-0.9,0.1c0,0-0.1,0.1-0.3,0.1c-0.1,0-0.1,0-0.2-0.1l-0.2-0.1h-0.1c0,0,0,0.1-0.1,0.1    c-0.1,0-0.2-0.1-0.2-0.2c0.1-0.1,0.1-0.1,0.2-0.1c-0.1,0-0.1,0-0.2-0.1c-0.7-0.7-1.3-1.5-1.8-2.5c0-0.1-0.1-0.3-0.2-0.6    c-0.1-0.2-0.1-0.3-0.1-0.4c0.1-0.3,0.3-0.4,0.6-0.5h0.1c0.1,0,0.1,0,0.2,0.1c0.1,0.1,0.2,0.1,0.3,0.2c0.1,0.1,0.3,0.3,0.6,0.5    c0.1,0.2,0.3,0.4,0.5,0.8C90.5,8.9,90.5,9,90.5,9c0.1,0,0.5-0.1,1.2-0.2c0.8-0.1,1.2-0.1,1.3-0.2c0-0.7-0.1-1.1-0.2-1.2    c-0.5,0-1.1,0-1.7,0.1c-0.1,0-0.2,0-0.4,0c-0.2,0-0.4,0.1-0.5,0.1h-0.3l-0.2-0.1l0.1-0.1c0.1,0,0.2-0.1,0.4-0.2    c1.5-0.4,3.3-0.6,5.5-0.6c0.3-0.1,0.8-0.1,1.5-0.1c1.1,0.1,1.6,0.3,1.7,0.7c0,0.1-0.1,0.1-0.2,0.2c-0.1,0-0.1,0.1-0.1,0.1    c-0.1,0.1-0.1,0.3-0.2,0.5c-0.1,0.2-0.2,0.4-0.2,0.5C98,9,97.7,9.5,97.3,10.1c-0.2,0.2-0.3,0.4-0.3,0.5c-0.6,0.7-1.2,1.1-1.8,1.1    h-0.6c-0.1,0-0.1-0.1-0.2-0.1c-0.2-0.1-0.3-0.1-0.4-0.2c0,0,0-0.1,0-0.2h-0.1c-0.1,0.4-0.1,0.9-0.1,1.5c0.5,0,1,0.1,1.3,0.2    c0.5,0.1,0.7,0.3,0.6,0.5c0,0,0,0.1,0,0.2c-0.2,0-0.3,0.1-0.4,0.1c-0.1,0-0.2,0.1-0.2,0.1c0,0,0-0.1-0.1-0.1c-0.1,0-0.2,0-0.3,0.1    c-0.2,0.1-0.4,0.1-0.6,0.1v-0.1c0.1,0,0.1-0.1,0.2-0.1c0.1-0.1,0.2-0.1,0.4-0.2c-0.1-0.1-0.3-0.1-0.6-0.1c-0.1,0-0.1,0-0.2,0    c-0.1,0.5,0,0.9,0.1,1.3c0,0.1,0,0.2-0.1,0.4c-0.1,0.1-0.1,0.1-0.1,0.2c1.1-0.1,2.2-0.1,3.4-0.1c1.3,0.1,1.9,0.3,1.9,0.7V16    c-0.1,0-0.2,0-0.2,0.1c-0.3,0-0.6,0-0.7,0.1c-0.2,0-0.2,0-0.2,0c-0.1,0-0.1-0.1-0.2-0.1l-0.4-0.1c-0.2,0-0.3-0.1-0.4-0.1    c-2.1,0-4.5,0.1-7.2,0.3c-0.4,0.1-0.8,0.1-1.2,0.1c-0.1,0-0.1,0-0.2-0.1c-0.1,0-0.2,0-0.4,0c-0.4-0.1-0.6-0.2-0.6-0.2v-0.1    l0.1-0.1c0.2,0,0.5-0.1,0.9-0.1C88.7,15.8,89,15.7,89.1,15.7z M91.4,10.9c0.5,0,0.9-0.1,1.4-0.2V9.3c-0.1,0-0.3,0-0.6,0.1    c-0.6,0.1-1.2,0.1-1.5,0.1C91.2,10.2,91.4,10.7,91.4,10.9z M92.1,15L92.1,15C92.2,15,92.2,15,92.1,15z M94.9,10.9    c0.9-1.1,1.6-2.2,1.9-3.2c0.1-0.2,0.1-0.3,0.1-0.4V7.1c0,0-0.1-0.1-0.3-0.1c-0.6,0-1.6,0.1-2.9,0.3C93.9,7.6,94,7.8,94,8    c0,0.1,0,0.2-0.1,0.4c0,0.1,0,0.2,0,0.3c0.1,0,0.3,0,0.5-0.1c0.2,0,0.4,0,0.5,0h0.3l0.2,0.1c0.2,0.1,0.2,0.1,0.2,0.2    c-0.1,0.2-0.4,0.3-1,0.3c-0.4,0-0.6,0-0.8,0.1c0,0.5,0,1.1,0,1.6c0.4,0,0.6,0,0.7,0.1C94.6,10.8,94.7,10.9,94.9,10.9z"/>
	</g>
	<g id="XMLID_60_">
		<rect id="XMLID_64_" x="17.6" y="24.9" class="st0" width="1.6" height="1.6"/>
		<rect id="XMLID_63_" x="19.7" y="24.9" class="st0" width="1.6" height="1.6"/>
		<rect id="XMLID_62_" x="17.6" y="26.9" class="st0" width="1.6" height="1.6"/>
		<rect id="XMLID_61_" x="19.7" y="26.9" class="st0" width="1.6" height="1.6"/>
	</g>
</g>
</svg>
