<?xml version="1.0" encoding="utf-8"?>
<!-- Generator: Adobe Illustrator 22.0.0, SVG Export Plug-In . SVG Version: 6.00 Build 0)  -->
<svg version="1.1" id="图层_1" xmlns="http://www.w3.org/2000/svg" xmlns:xlink="http://www.w3.org/1999/xlink" x="0px" y="0px"
	 viewBox="0 0 8 8" enable-background="new 0 0 8 8" xml:space="preserve">
<path fill-rule="evenodd" clip-rule="evenodd" d="M7.8,1.1L5,4l2.9,2.9c0.3,0.3,0.3,0.7,0,1c-0.3,0.3-0.7,0.3-1,0L4,5L1.1,7.8
	c-0.3,0.3-0.7,0.3-1,0c-0.3-0.3-0.3-0.7,0-1L3,4L0.2,1.1c-0.3-0.3-0.3-0.7,0-1c0.3-0.3,0.7-0.3,1,0L4,3l2.9-2.9c0.3-0.3,0.7-0.3,1,0
	C8.1,0.5,8.1,0.9,7.8,1.1z"/>
</svg>
