<?xml version="1.0" encoding="utf-8"?>
<!-- Generator: Adobe Illustrator 22.0.0, SVG Export Plug-In . SVG Version: 6.00 Build 0)  -->
<svg version="1.1" id="图层_1" xmlns="http://www.w3.org/2000/svg" xmlns:xlink="http://www.w3.org/1999/xlink" x="0px" y="0px"
	 viewBox="0 0 24 24" enable-background="new 0 0 24 24" xml:space="preserve">
<path d="M10.4,15.9c-0.6,0-1.1-0.5-1.1-1.1v-3.3l-3.5,0c-0.5,0-0.8-0.5-0.9-1.1c0-0.6,0.4-1.1,0.9-1.1h3.5V6.1C9.4,5.5,9.8,5,10.4,5
	c0.6,0,1.1,0.5,1.1,1.1v3.3h3.6c0.5,0,0.9,0.5,0.9,1.1c0,0.6-0.4,1.1-0.9,1.1h-3.6v3.3C11.5,15.5,11,15.9,10.4,15.9z"/>
<path d="M10.5,19.3"/>
<path d="M23.8,22.7l-5.4-5.4l0.1-0.1c1.6-1.9,2.5-4.3,2.5-6.8c0-2.8-1.1-5.4-3.1-7.4c-2-2-4.6-3.1-7.4-3.1C7.7,0,5,1.1,3.1,3.1
	C1.1,5,0,7.7,0,10.5c0,2.8,1.1,5.4,3.1,7.4c2,2,4.6,3.1,7.4,3.1l0,0c2.5,0,4.9-0.9,6.7-2.5l0.1-0.1l5.4,5.4c0.1,0.1,0.3,0.2,0.6,0.2
	c0.1,0,0.1,0,0.2,0c0.3-0.1,0.5-0.3,0.6-0.6C24,23.2,24,22.9,23.8,22.7z M10.5,19.4c-4.9,0-8.9-4-8.9-8.9c0-4.9,4-8.9,8.9-8.9
	c4.9,0,8.9,4,8.9,8.9C19.4,15.4,15.4,19.4,10.5,19.4z"/>
</svg>
