<?xml version="1.0" encoding="utf-8"?>
<!-- Generator: Adobe Illustrator 22.0.0, SVG Export Plug-In . SVG Version: 6.00 Build 0)  -->
<svg version="1.1" id="图层_1" xmlns="http://www.w3.org/2000/svg" xmlns:xlink="http://www.w3.org/1999/xlink" x="0px" y="0px"
	 viewBox="0 0 16 18" enable-background="new 0 0 16 18" xml:space="preserve">
<g>
	<path d="M0,3.2l0,6.8c0,1,0.8,1.8,1.8,1.8h0c0.9,0,1.7-0.7,1.8-1.5c0,0,0,0,0,0c0,0.1-0.1,0.3-0.1,0.4v2.9c0,0.5,0.4,1,1,1h0.9V18
		l8.2-1.6v-4.6c1.5-1.2,2.4-3.1,2.4-5.1C16,3,13,0,9.2,0C6.9,0,4.9,1.2,3.6,2.9C3.5,2.1,2.8,1.4,1.8,1.4h0C0.8,1.4,0,2.2,0,3.2z
		 M14.6,4.5c0.1,0.1,0.1,0.3,0.2,0.4H7.8C7.2,3.8,6.1,3,4.8,2.9c0.5-0.5,1.4-1.2,1.4-1.2c0.9-0.5,1.9-0.8,3-0.8
		c0.8,0,1.5,0.2,2.3,0.5c0.7,0.3,1.3,0.7,1.9,1.2C13.9,3.2,14.3,3.8,14.6,4.5z M8.2,6.6c0-0.3,0-0.5-0.1-0.8H15
		C15,6.1,15,6.4,15,6.7c0,0.1,0,0.3,0,0.4H8.2C8.2,6.9,8.2,6.7,8.2,6.6z M4.5,10.7c0-0.1,0-0.1,0-0.2l0.1-0.2c1.5,0,2.7-0.9,3.3-2.2
		h7c-0.1,0.4-0.2,0.8-0.4,1.1c-0.3,0.7-0.9,1.4-1.5,1.9l-0.3,0.3v4.3l-6.3,1.2v-3.3H4.6c0,0,0,0,0,0V10.7z M1,3.2
		c0-0.5,0.4-0.8,0.9-0.8h0c0.2,0,0.4,0.1,0.6,0.2c0.2,0.1,0.3,0.3,0.3,0.5l0.1,1.1l1.1-0.3c0.2-0.1,0.4-0.1,0.7-0.1
		c0.7,0,1.4,0.3,1.9,0.8s0.8,1.2,0.8,1.9S7,8,6.5,8.5S5.3,9.3,4.6,9.3c-0.2,0-0.4,0-0.7-0.1L2.8,8.9L2.7,10c0,0.2-0.1,0.4-0.3,0.5
		c-0.2,0.1-0.4,0.2-0.6,0.2h0C1.3,10.8,1,10.4,1,9.9V3.2z"/>
	<path d="M2.7,6.6c0,1,0.8,1.9,1.9,1.9c1,0,1.9-0.8,1.9-1.9c0-1-0.8-1.9-1.9-1.9C3.5,4.7,2.7,5.5,2.7,6.6z M3.6,6.6
		c0-0.5,0.4-0.9,0.9-0.9c0.5,0,0.9,0.4,0.9,0.9c0,0.5-0.4,0.9-0.9,0.9C4,7.5,3.6,7.1,3.6,6.6z"/>
</g>
</svg>
