<?xml version="1.0" standalone="no"?><!DOCTYPE svg PUBLIC "-//W3C//DTD SVG 1.1//EN" "http://www.w3.org/Graphics/SVG/1.1/DTD/svg11.dtd"><svg t="1528367863268" class="icon" style="" viewBox="0 0 1024 1024" version="1.1" xmlns="http://www.w3.org/2000/svg" p-id="1058" xmlns:xlink="http://www.w3.org/1999/xlink" width="200" height="200"><defs><style type="text/css"></style></defs><path d="M781.994667 453.632 781.994667 293.546667c0-146.773333-119.125333-265.898667-265.898667-265.898667-1.706667 0-3.072 0-5.12 0-1.365333 0-3.413333 0-4.778667 0-146.773333 0-265.898667 119.125333-265.898667 265.898667l0 160.085333L146.090667 453.632 146.090667 1003.52l732.16 0L878.250667 453.632 781.994667 453.632 781.994667 453.632zM595.626667 902.826667l-165.888 0 40.618667-177.834667c-24.234667-14.336-40.618667-40.96-40.618667-71.338667 0-45.738667 37.205333-82.944 82.944-82.944 45.738667 0 82.944 37.205333 82.944 82.944 0 30.378667-16.384 57.002667-40.96 71.68L595.626667 902.826667 595.626667 902.826667zM648.874667 453.632l-275.456 0L373.418667 293.546667c0-73.386667 59.733333-132.778667 132.778667-132.778667 2.048 0 6.485333 0 6.485333 0s2.389333 0 3.413333 0c73.386667 0 132.778667 59.733333 132.778667 132.778667L648.874667 453.632 648.874667 453.632zM648.874667 453.632" p-id="1059" fill="#cccccc"></path></svg>