<?xml version="1.0" standalone="no"?><!DOCTYPE svg PUBLIC "-//W3C//DTD SVG 1.1//EN" "http://www.w3.org/Graphics/SVG/1.1/DTD/svg11.dtd"><svg t="1528774277987" class="icon" style="" viewBox="0 0 1659 1024" version="1.1" xmlns="http://www.w3.org/2000/svg" p-id="2796" xmlns:xlink="http://www.w3.org/1999/xlink" width="324.0234375" height="200"><defs><style type="text/css"></style></defs><path d="M1058.47 376.078c-71.212 16.193-144.353 25.916-215.662 25.916s-144.486-9.734-215.741-25.943c-24.906-5.66-88.62-24.121-93.733-25.899-31.751-9.443-89.578-18.559-112.944-18.559-58.364 0-105.605 47.275-105.605 105.647v281.524c0 58.409 47.257 105.647 105.604 105.647h281.63c19.42-0.007 35.164-15.74 35.183-35.155 0-58.348 47.346-105.65 105.605-105.65 58.302 0 105.604 47.337 105.604 105.605 0 19.458 15.753 35.202 35.183 35.202h281.63c58.364 0 105.604-47.275 105.604-105.647v-281.524c0-58.409-47.258-105.647-105.604-105.647-26.551 0-77.796 8.474-113.279 18.656-5.122 1.787-68.607 20.17-93.478 25.829zM702.018 859.615h-281.63c-77.76 0-140.806-62.966-140.806-140.849v-281.524c0-77.796 62.976-140.849 140.806-140.849 24.957 0 86.639 9.074 123.803 20.268 0 0 142.257 50.137 298.614 50.137 156.355 0 298.438-50.083 298.438-50.083 37.41-10.859 92.765-20.319 123.98-20.319 77.76 0 140.806 62.966 140.806 140.849v281.524c0 77.796-62.976 140.849-140.806 140.849h-281.638c-0.004 0-0.007 0-0.007 0-38.86 0-70.363-31.499-70.368-70.358 0-38.845-31.523-70.447-70.403-70.447-38.81 0-70.403 31.523-70.403 70.403 0 0 0 0 0 0 0 38.876-31.51 70.393-70.385 70.403z" fill="#4A4A4A" p-id="2797"></path><path d="M420.39 164.385c24.957 0 86.639 9.074 123.803 20.268 0 0 142.257 50.137 298.614 50.137 156.355 0 298.438-50.084 298.438-50.084 37.41-10.859 92.765-20.319 123.98-20.319 77.76 0 140.806 62.966 140.806 140.849h-35.202c0-58.409-47.258-105.647-105.604-105.647-26.551 0-77.796 8.474-113.279 18.656-5.122 1.787-68.607 20.17-93.478 25.829-71.212 16.193-144.352 25.916-215.662 25.916-71.309 0-144.485-9.734-215.741-25.943-24.906-5.66-88.62-24.121-93.733-25.899-31.751-9.442-89.578-18.559-112.944-18.559-58.364 0-105.605 47.275-105.605 105.647h-35.201c0-77.795 62.976-140.849 140.806-140.849zM1010.014 560.332v70.544c0.007 19.401 15.73 35.126 35.131 35.131h140.947c0 0 0 0 0 0 19.403 0 35.131-15.729 35.131-35.131 0 0 0 0 0 0v-70.544c-0.007-19.401-15.73-35.126-35.131-35.131h-140.947c-19.402 0-35.131 15.729-35.131 35.131 0 0 0 0 0 0zM974.813 560.332c0-38.844 31.489-70.333 70.333-70.333h140.947c38.842 0.007 70.329 31.491 70.332 70.333v70.544c0 38.844-31.489 70.333-70.332 70.333 0 0 0 0 0 0h-140.947c-38.842-0.007-70.327-31.491-70.333-70.332v-70.544zM464.391 560.332v70.544c0.007 19.401 15.73 35.126 35.131 35.131h140.947c19.402 0 35.131-15.729 35.131-35.131 0 0 0 0 0 0v-70.544c-0.007-19.401-15.73-35.126-35.131-35.131h-140.947c-19.403 0-35.131 15.729-35.131 35.131 0 0 0 0 0 0zM429.191 560.332c0-38.844 31.489-70.333 70.332-70.333 0 0 0 0 0 0h140.947c38.842 0.007 70.329 31.491 70.333 70.333v70.544c0 38.844-31.489 70.333-70.333 70.333 0 0 0 0 0 0h-140.947c-38.842-0.007-70.327-31.491-70.332-70.332v-70.544z" fill="#4A4A4A" p-id="2798"></path></svg>