<?xml version="1.0" standalone="no"?><!DOCTYPE svg PUBLIC "-//W3C//DTD SVG 1.1//EN" "http://www.w3.org/Graphics/SVG/1.1/DTD/svg11.dtd"><svg t="1528772468801" class="icon" style="" viewBox="0 0 1024 1024" version="1.1" xmlns="http://www.w3.org/2000/svg" p-id="1038" xmlns:xlink="http://www.w3.org/1999/xlink" width="32" height="32"><defs><style type="text/css"></style></defs><path d="M512 51.2C258.56 51.2 51.2 258.56 51.2 512s207.36 460.8 460.8 460.8 460.8-207.36 460.8-460.8S765.44 51.2 512 51.2m0 862.72c-225.28 0-401.92-179.2-401.92-401.92 0-225.28 179.2-401.92 401.92-401.92 225.28 0 401.92 179.2 401.92 401.92 0 225.28-176.64 401.92-401.92 401.92" p-id="1039"></path><path d="M506.88 683.52c-17.92 0-28.16 5.12-40.96 17.92-10.24 10.24-17.92 23.04-17.92 40.96s5.12 28.16 17.92 40.96c10.24 10.24 23.04 17.92 40.96 17.92 17.92 0 28.16-5.12 40.96-17.92 10.24-10.24 17.92-23.04 17.92-40.96s-5.12-28.16-17.92-40.96c-12.8-10.24-25.6-17.92-40.96-17.92z m15.36-471.04c-56.32 0-104.96 17.92-138.24 51.2-40.96 35.84-58.88 79.36-58.88 138.24h87.04c0-33.28 5.12-64 23.04-79.36 17.92-23.04 40.96-35.84 79.36-35.84 28.16 0 51.2 5.12 69.12 23.04 17.92 17.92 23.04 40.96 23.04 64 0 23.04-5.12 40.96-23.04 58.88l-17.92 17.92c-46.08 46.08-81.92 79.36-92.16 102.4-10.24 17.92-10.24 46.08-10.24 74.24v12.8h87.04v-12.8c0-17.92 5.12-33.28 12.8-51.2 5.12-17.92 17.92-28.16 33.28-40.96 40.96-33.28 64-51.2 69.12-64 23.04-23.04 28.16-58.88 28.16-97.28 0-46.08-17.92-87.04-46.08-115.2-33.28-33.28-71.68-46.08-125.44-46.08z m0 0" p-id="1040"></path></svg>