<?xml version="1.0" encoding="utf-8"?>
<!-- Generator: Adobe Illustrator 22.0.0, SVG Export Plug-In . SVG Version: 6.00 Build 0)  -->
<svg version="1.1" id="图层_1" xmlns="http://www.w3.org/2000/svg" xmlns:xlink="http://www.w3.org/1999/xlink" x="0px" y="0px"
	 viewBox="0 0 15 15" enable-background="new 0 0 15 15" xml:space="preserve">
<g>
	<g>
		<path fill="#272636" d="M3.1,14.3c0.2,0.1,0.4,0.2,0.6,0.2c0.2,0,0.3,0,0.5-0.1l3.3-1.8l3.3,1.8c0.2,0.1,0.3,0.1,0.5,0.1
			c0.2,0,0.4-0.1,0.6-0.2c0.3-0.2,0.5-0.6,0.4-1l-0.6-3.8l2.8-2.8c0.3-0.3,0.4-0.7,0.2-1c-0.1-0.4-0.4-0.6-0.8-0.7l-3.8-0.6L8.4,1.1
			C8.3,0.7,7.9,0.5,7.5,0.5c-0.4,0-0.8,0.2-0.9,0.6L4.9,4.5L1.1,5C0.8,5.1,0.4,5.4,0.3,5.7c-0.1,0.4,0,0.8,0.2,1l2.8,2.8l-0.6,3.8
			C2.6,13.7,2.8,14.1,3.1,14.3L3.1,14.3z M1.1,6l3.8-0.6l0.7-0.1l0.3-0.6l1.7-3.4l1.7,3.4l0.3,0.6l0.7,0.1L13.9,6l-2.7,2.7l-0.5,0.5
			l0.1,0.6l0.6,3.8l-3.3-1.8l-0.6-0.3l-0.6,0.3l-3.3,1.8l0.6-3.8l0.1-0.6L3.9,8.8L1.1,6z M1.1,6"/>
	</g>
</g>
</svg>
