<?xml version="1.0" encoding="utf-8"?>
<!-- Generator: Adobe Illustrator 22.0.0, SVG Export Plug-In . SVG Version: 6.00 Build 0)  -->
<svg version="1.1" id="图层_1" xmlns="http://www.w3.org/2000/svg" xmlns:xlink="http://www.w3.org/1999/xlink" x="0px" y="0px"
	 viewBox="0 0 34 34" enable-background="new 0 0 34 34" xml:space="preserve">
<path d="M17,2c8.3,0,15,6.7,15,15s-6.7,15-15,15S2,25.3,2,17S8.7,2,17,2 M17,0C7.6,0,0,7.6,0,17s7.6,17,17,17s17-7.6,17-17
	S26.4,0,17,0L17,0z"/>
<path d="M17,4C9.8,4,4,9.8,4,17s5.8,13,13,13s13-5.8,13-13S24.2,4,17,4z M23.7,13.5l-8.4,8.2c-0.2,0.2-0.4,0.3-0.7,0.3
	c-0.2,0-0.4-0.1-0.6-0.2L10.2,17c-0.2-0.2-0.2-0.4-0.2-0.6c0-0.2,0.1-0.5,0.3-0.7c0.2-0.2,0.4-0.3,0.7-0.3c0.2,0,0.4,0.1,0.6,0.2
	l3.1,4.1l7.8-7.5c0.2-0.2,0.4-0.3,0.6-0.3c0.3,0,0.5,0.1,0.7,0.3c0.2,0.2,0.3,0.4,0.3,0.6C24,13.2,23.9,13.4,23.7,13.5z"/>
</svg>
