<?xml version="1.0" encoding="utf-8"?>
<!-- Generator: Adobe Illustrator 22.0.0, SVG Export Plug-In . SVG Version: 6.00 Build 0)  -->
<svg version="1.1" id="图层_1" xmlns="http://www.w3.org/2000/svg" xmlns:xlink="http://www.w3.org/1999/xlink" x="0px" y="0px"
	 viewBox="0 0 20 20" enable-background="new 0 0 20 20" xml:space="preserve">
<g>
	<path d="M10,20c-0.2,0-0.4-0.1-0.6-0.2l-7.8-4.3C1.2,15.4,1,15,1,14.6v-9c0-0.4,0.2-0.8,0.6-1l7.8-4.4C9.6,0.1,9.8,0,10,0
		c0.2,0,0.4,0.1,0.6,0.2l7.8,4.4c0.4,0.2,0.6,0.6,0.6,1v9c0,0.4-0.2,0.8-0.6,1l-7.8,4.3C10.4,19.9,10.2,20,10,20z M10.5,10.2l0,8.8
		l7.6-4.2l0-8.9L10.5,10.2z M1.9,14.7L9.5,19v-8.7L1.9,5.9V14.7z M2.3,5.1L10,9.5l7.7-4.3L10,0.8L2.3,5.1z"/>
</g>
</svg>
