<?xml version="1.0" encoding="utf-8"?>
<!-- Generator: Adobe Illustrator 22.0.0, SVG Export Plug-In . SVG Version: 6.00 Build 0)  -->
<svg version="1.1" id="图层_1" xmlns="http://www.w3.org/2000/svg" xmlns:xlink="http://www.w3.org/1999/xlink" x="0px" y="0px"
	 viewBox="0 0 14 14" enable-background="new 0 0 14 14" xml:space="preserve">
<g>
	<g>
		<path d="M14,13.6c0,0.2-0.2,0.4-0.4,0.4H0.4C0.2,14,0,13.8,0,13.6c0-0.2,0.2-0.4,0.4-0.4h13.2C13.8,13.1,14,13.3,14,13.6L14,13.6z
			 M1.4,11.8l0.9-3.4l7.7-8.1c0.4-0.4,0.8-0.4,1.2,0L13,2.1c0.4,0.4,0.4,0.9,0,1.2l-7.7,8.1L2,12.4C1.6,12.5,1.3,12.2,1.4,11.8
			L1.4,11.8z M9.2,2.4l1.8,1.8l1.2-1.2c0.3-0.3,0.3-0.3,0-0.6l-1.2-1.2c-0.3-0.3-0.3-0.3-0.6,0L9.2,2.4z M3.6,8.3l1.8,1.8l5-5.2
			L8.6,3.1L3.6,8.3z M2.3,11.5l2.4-0.7L3,8.9L2.3,11.5z M2.3,11.5"/>
	</g>
</g>
</svg>
