<?xml version="1.0" encoding="utf-8"?>
<!-- Generator: Adobe Illustrator 22.0.0, SVG Export Plug-In . SVG Version: 6.00 Build 0)  -->
<svg version="1.1" id="图层_1" xmlns="http://www.w3.org/2000/svg" xmlns:xlink="http://www.w3.org/1999/xlink" x="0px" y="0px"
	 viewBox="0 0 38 28" enable-background="new 0 0 38 28" xml:space="preserve">
<g>
	<path d="M17.7,23.7c0,0.9,0.7,1.6,1.6,1.6c0.9,0,1.6-0.7,1.6-1.6s-0.7-1.6-1.6-1.6C18.4,22.1,17.7,22.8,17.7,23.7z"/>
	<path d="M38,13.4c0-2.3-2.5-4.2-7.1-5.5c-0.5-0.1-1,0.1-1.1,0.6c-0.1,0.5,0.1,0.9,0.6,1.1c3.6,1,5.8,2.5,5.8,3.8
		c0,1.6-2.8,3.2-7.5,4.3V2.3C28.8,1,27.7,0,26.4,0H12.2c-1.3,0-2.4,1-2.4,2.3v15.5c-5-1-8.1-2.7-8.1-4.4c0-1,1.2-2,3.3-2.9L3.9,12
		c-0.3,0.4-0.2,0.9,0.2,1.2c0.2,0.1,0.3,0.2,0.5,0.2c0.3,0,0.5-0.1,0.7-0.3l2.9-3.8C8.4,9,8.5,8.7,8.3,8.4C8.2,8.1,8,7.9,7.7,7.9
		L2.9,7.1c-0.5-0.1-0.9,0.3-1,0.7c-0.1,0.5,0.3,0.9,0.7,1l1.3,0.2C1.4,10.3,0,11.8,0,13.4c0,3,4.3,5.1,9.8,6.1v6.1
		c0,1.3,1.1,2.3,2.4,2.3h14.2c1.3,0,2.4-1,2.4-2.3v-6.2C34,18.3,38,16.3,38,13.4z M11.7,2.3c0-0.3,0.2-0.5,0.5-0.5h14.2
		c0.3,0,0.5,0.2,0.5,0.5V18c-2.3,0.4-5,0.6-7.9,0.6c-2.7,0-5.1-0.2-7.3-0.5V2.3z M26.9,25.7c0,0.3-0.2,0.5-0.5,0.5H12.2
		c-0.3,0-0.5-0.2-0.5-0.5v-5.8c2.3,0.3,4.8,0.5,7.3,0.5c2.7,0,5.4-0.2,7.9-0.6V25.7z"/>
</g>
</svg>
