<?xml version="1.0" encoding="utf-8"?>
<!-- Generator: Adobe Illustrator 22.0.0, SVG Export Plug-In . SVG Version: 6.00 Build 0)  -->
<svg version="1.1" id="图层_1" xmlns="http://www.w3.org/2000/svg" xmlns:xlink="http://www.w3.org/1999/xlink" x="0px" y="0px"
	 viewBox="0 0 38 30" enable-background="new 0 0 38 30" xml:space="preserve">
<path d="M17.7,23.9c0,0.9,0.7,1.6,1.6,1.6s1.6-0.7,1.6-1.6s-0.7-1.6-1.6-1.6C18.4,22.3,17.7,23,17.7,23.9z"/>
<g>
	<g>
		<path d="M30.4,9.8c3.6,1,5.8,2.5,5.8,3.8c0,0.9-0.9,1.8-2.5,2.6c0.5,0.3,1,0.7,1.5,1.2c1.7-1,2.8-2.3,2.8-3.7
			c0-2.3-2.5-4.2-7.1-5.5c-0.5-0.1-1,0.1-1.1,0.6C29.6,9.1,29.9,9.6,30.4,9.8z"/>
		<path d="M21.7,26.3h-9.5c-0.3,0-0.5-0.2-0.5-0.5V20c2.3,0.3,4.8,0.5,7.3,0.5c0.9,0,1.7,0,2.6-0.1c0.2-0.6,0.5-1.2,0.9-1.8
			c-1.1,0.1-2.3,0.1-3.5,0.1c-2.7,0-5.1-0.2-7.3-0.5V2.5c0-0.3,0.2-0.5,0.5-0.5h14.2c0.3,0,0.5,0.2,0.5,0.5v12.9
			c0.6-0.2,1.2-0.3,1.9-0.4V2.5c0-1.3-1.1-2.3-2.4-2.3H12.2c-1.3,0-2.4,1-2.4,2.3V18c-5-1-8.1-2.7-8.1-4.4c0-1,1.2-2,3.3-2.9
			l-1.2,1.6c-0.3,0.4-0.2,0.9,0.2,1.2c0.2,0.1,0.3,0.2,0.5,0.2c0.3,0,0.5-0.1,0.7-0.3l2.9-3.8C8.3,9.4,8.3,9,8.2,8.7
			C8.1,8.4,7.8,8.2,7.5,8.2L2.7,7.5c-0.5-0.1-0.9,0.3-1,0.7C1.6,8.7,2,9.1,2.4,9.2l1.3,0.2c-2.3,1-3.7,2.5-3.7,4.2
			c0,3,4.3,5.1,9.8,6.1v6.1c0,1.3,1.1,2.3,2.4,2.3h10.5C22.3,27.6,22,27,21.7,26.3z"/>
	</g>
	<g>
		<g>
			<path d="M29.4,29.8c-1.7,0-3.4-0.7-4.6-1.9c-1.2-1.2-1.9-2.9-1.9-4.6c0-3.6,3-6.5,6.5-6.5c3.6,0,6.6,3,6.5,6.6
				C36,26.9,33,29.8,29.4,29.8L29.4,29.8z M25.5,20.5c-0.6,0.8-0.9,1.8-0.9,2.8c0,2.7,2.2,4.9,4.8,4.9l0,0c1,0,2-0.3,2.8-0.9
				L25.5,20.5z M29.4,18.4c-1,0-1.9,0.3-2.8,0.9l6.7,6.8c0.6-0.8,0.9-1.8,0.9-2.8C34.3,20.6,32.1,18.4,29.4,18.4L29.4,18.4z"/>
		</g>
		<g>
			<path d="M26.4,23.9C26.4,23.9,26.4,24,26.4,23.9C26.4,24,26.4,24,26.4,23.9L26.4,23.9z"/>
		</g>
	</g>
</g>
</svg>
