<?xml version="1.0" encoding="utf-8"?>
<!-- Generator: Adobe Illustrator 16.0.0, SVG Export Plug-In . SVG Version: 6.00 Build 0)  -->
<!DOCTYPE svg PUBLIC "-//W3C//DTD SVG 1.1//EN" "http://www.w3.org/Graphics/SVG/1.1/DTD/svg11.dtd">
<svg version="1.1" id="图层_1" xmlns="http://www.w3.org/2000/svg" xmlns:xlink="http://www.w3.org/1999/xlink" x="0px" y="0px"
	 width="320.09px" height="179.928px" viewBox="0 0 320.09 179.928" enable-background="new 0 0 320.09 179.928"
	 xml:space="preserve">
<path fill="#040000" d="M171.972,0l75.889,74.664L171.972,39.78L0,170.748"/>
<path fill="#040000" d="M0,170.748L171.972,0"/>
<path fill="#040000" d="M315.18,176.256L208.08,70.38l-47.124,45.9l44.676-22.032L315.18,176.256"/>
<path fill="#040000" d="M198.288,179.928l-75.276-75.276L89.964,137.7l32.436-16.524L198.288,179.928z"/>
<g id="XMLID_106_">
	<rect id="XMLID_110_" x="176.868" y="124.848" fill="#070001" width="9.791" height="9.792"/>
	<rect id="XMLID_109_" x="189.108" y="124.848" fill="#070001" width="9.791" height="9.792"/>
	<rect id="XMLID_108_" x="176.868" y="137.088" fill="#070001" width="9.791" height="9.792"/>
	<rect id="XMLID_107_" x="189.108" y="137.088" fill="#070001" width="9.791" height="9.792"/>
</g>
<g id="XMLID_60_">
	<rect id="XMLID_64_" x="101.592" y="144.432" fill="#070001" width="9.792" height="9.792"/>
	<rect id="XMLID_63_" x="114.444" y="144.432" fill="#070001" width="9.792" height="9.792"/>
	<rect id="XMLID_62_" x="101.592" y="156.672" fill="#070001" width="9.792" height="9.792"/>
	<rect id="XMLID_61_" x="114.444" y="156.672" fill="#070001" width="9.792" height="9.792"/>
</g>
</svg>
