<?xml version="1.0" encoding="iso-8859-1"?>
<!-- Generator: Adobe Illustrator 22.0.0, SVG Export Plug-In . SVG Version: 6.00 Build 0)  -->
<svg version="1.1" id="&#x56FE;&#x5C42;_1" xmlns="http://www.w3.org/2000/svg" xmlns:xlink="http://www.w3.org/1999/xlink" x="0px"
	 y="0px" viewBox="0 0 20 12" style="enable-background:new 0 0 20 12;" xml:space="preserve">
<path d="M19.749,5.635C16.764,1.903,13.539,0,10.157,0C4.429,0,0.419,5.424,0.251,5.646L0,5.984l0.262,0.328
	C3.33,10.086,6.586,12,9.969,12c5.738,0,9.634-5.487,9.791-5.72L20,5.942L19.749,5.635z M10.094,10.192
	c-2.283,0-4.147-1.882-4.147-4.187c0-2.305,1.864-4.187,4.147-4.187s4.147,1.882,4.147,4.187
	C14.241,8.321,12.387,10.192,10.094,10.192L10.094,10.192z M1.393,5.974C2.105,5.107,4.22,2.781,7.099,1.692
	c-1.351,0.952-2.23,2.537-2.23,4.324c0,1.85,0.953,3.489,2.387,4.43C5.257,9.727,3.298,8.236,1.393,5.974L1.393,5.974z
	 M13.215,10.245c1.278-0.962,2.115-2.506,2.115-4.24c0-1.818-0.911-3.425-2.304-4.377c1.927,0.719,3.801,2.178,5.613,4.356
	C17.958,6.841,15.979,9.103,13.215,10.245L13.215,10.245z M13.215,10.245"/>
</svg>
