<?xml version="1.0" encoding="iso-8859-1"?>
<!-- Generator: Adobe Illustrator 22.0.0, SVG Export Plug-In . SVG Version: 6.00 Build 0)  -->
<svg version="1.1" id="&#x56FE;&#x5C42;_1" xmlns="http://www.w3.org/2000/svg" xmlns:xlink="http://www.w3.org/1999/xlink" x="0px"
	 y="0px" viewBox="0 0 7 7" style="enable-background:new 0 0 7 7;" xml:space="preserve">
<path d="M2.789,5C2.722,5,2.66,4.975,2.615,4.931l-1.14-1.425C1.425,3.456,1.4,3.396,1.4,3.331c0-0.072,0.031-0.143,0.085-0.197
	C1.539,3.081,1.613,3.05,1.687,3.05c0.067,0,0.129,0.025,0.174,0.069l0.916,1.219L5.13,2.077C5.182,2.027,5.251,2,5.324,2
	c0.075,0,0.146,0.029,0.198,0.082C5.573,2.134,5.601,2.202,5.6,2.273c-0.001,0.072-0.03,0.139-0.083,0.19L2.991,4.915
	C2.937,4.969,2.863,5,2.789,5L2.789,5z"/>
</svg>
