<?xml version="1.0" encoding="iso-8859-1"?>
<!-- Generator: Adobe Illustrator 22.0.0, SVG Export Plug-In . SVG Version: 6.00 Build 0)  -->
<svg version="1.1" id="&#x56FE;&#x5C42;_1" xmlns="http://www.w3.org/2000/svg" xmlns:xlink="http://www.w3.org/1999/xlink" x="0px"
	 y="0px" viewBox="0 0 18 18" style="enable-background:new 0 0 18 18;" xml:space="preserve">
<g>
	<g>
		<path d="M15.75,18H2.25C1.008,18,0,16.992,0,15.75V2.25C0.002,1.008,1.008,0,2.25,0H15.75C16.992,0,18,1.008,18,2.25V15.75
			C18,16.992,16.994,18,15.75,18L15.75,18z M13.502,1.125H4.5v5.063c0,0.311,0.252,0.563,0.563,0.563h7.874
			c0.311,0,0.563-0.252,0.563-0.563V1.125H13.502z M16.875,2.25c0-0.621-0.504-1.125-1.125-1.125h-1.125v5.626
			c0,0.621-0.504,1.125-1.125,1.125H4.5c-0.621,0-1.125-0.504-1.125-1.125V1.125H2.25c-0.621,0-1.125,0.504-1.125,1.125V15.75
			c0,0.621,0.504,1.125,1.125,1.125H15.75c0.621,0,1.125-0.504,1.125-1.125V2.25z M10.689,5.626c-0.31,0-0.562-0.252-0.562-0.563
			v-2.25c0-0.311,0.252-0.563,0.562-0.563c0.311,0,0.563,0.252,0.563,0.563v2.25C11.251,5.374,10.999,5.626,10.689,5.626
			L10.689,5.626z M10.689,5.626"/>
	</g>
</g>
</svg>
