<?xml version="1.0" encoding="utf-8"?>
<!-- Generator: Adobe Illustrator 16.0.0, SVG Export Plug-In . SVG Version: 6.00 Build 0)  -->
<!DOCTYPE svg PUBLIC "-//W3C//DTD SVG 1.1//EN" "http://www.w3.org/Graphics/SVG/1.1/DTD/svg11.dtd">
<svg version="1.1" id="图层_1" xmlns="http://www.w3.org/2000/svg" xmlns:xlink="http://www.w3.org/1999/xlink" x="0px" y="0px"
	 width="16px" height="16px" viewBox="0 0 16 16" enable-background="new 0 0 16 16" xml:space="preserve">
<path d="M3.456,5.84l1.649-1.656c0.132-0.133,0.132-0.331,0-0.464c-0.132-0.132-0.33-0.132-0.462,0L2.994,5.377L2.17,4.549
	l1.649-1.657c0.132-0.133,0.132-0.331,0-0.464c-0.132-0.132-0.33-0.132-0.462,0L1.708,4.085L1.015,3.389
	c-0.263-0.265-0.263-0.663,0-0.928l2.111-2.12c0.264-0.265,0.66-0.265,0.924,0l3.628,3.644L4.643,7.033L3.456,5.84z M1.213,14.719
	c-0.078,0-0.154-0.031-0.21-0.088C0.948,14.575,0.916,14.5,0.916,14.42c0.199-1.259,0.462-2.716,0.66-3.279l2.902,2.914
	C3.917,14.254,2.5,14.52,1.213,14.719 M5.006,13.658l-3.034-3.047l8.575-8.613l3.033,3.047L5.006,13.658z M15.229,12.532l-2.11,2.12
	c-0.264,0.266-0.66,0.266-0.924,0l-0.923-0.928l1.649-1.656c0.132-0.133,0.132-0.332,0-0.464c-0.133-0.132-0.33-0.132-0.463,0
	l-1.648,1.655l-1.023-1.025l1.649-1.657c0.134-0.132,0.134-0.331,0-0.464c-0.132-0.132-0.329-0.132-0.461,0l-1.649,1.657
	l-0.726-0.729l3.035-3.048l3.628,3.644C15.494,11.869,15.494,12.268,15.229,12.532 M15.691,11.141l-3.628-3.643l3.496-3.512
	c0.528-0.53,0.528-1.358,0-1.888L13.481,0.01c-0.528-0.53-1.352-0.53-1.88,0L8.105,3.521L4.478-0.122
	c-0.527-0.531-1.352-0.531-1.88,0l-2.11,2.12c-0.528,0.53-0.528,1.358,0,1.888L4.116,7.53l-3.001,3.015
	c-0.199,0.198-0.495,1.49-0.858,3.775v0.034c0,0.265,0.099,0.528,0.264,0.728s0.461,0.299,0.725,0.266h0.033
	c2.309-0.364,3.595-0.662,3.826-0.895l3.001-3.014l3.629,3.643c0.527,0.53,1.353,0.53,1.879,0l2.111-2.119
	C16.22,12.5,16.22,11.637,15.691,11.141 M12.097,0.507c0.265-0.265,0.692-0.265,0.923,0l2.111,2.12c0.264,0.265,0.264,0.695,0,0.927
	l-1.055,1.06l-3.035-3.08L12.097,0.507z"/>
</svg>
