<?xml version="1.0" encoding="utf-8"?>
<!-- Generator: Adobe Illustrator 16.0.0, SVG Export Plug-In . SVG Version: 6.00 Build 0)  -->
<!DOCTYPE svg PUBLIC "-//W3C//DTD SVG 1.1//EN" "http://www.w3.org/Graphics/SVG/1.1/DTD/svg11.dtd">
<svg version="1.1" id="图层_1" xmlns="http://www.w3.org/2000/svg" xmlns:xlink="http://www.w3.org/1999/xlink" x="0px" y="0px"
	 width="12.09px" height="10.001px" viewBox="0 0 12.09 10.001" enable-background="new 0 0 12.09 10.001" xml:space="preserve">
<path d="M11.325,10.001h-0.003H0.911c-0.105,0-0.203-0.058-0.251-0.149C0.612,9.762,0.62,9.65,0.681,9.566l5.205-7.131
	c0.106-0.144,0.355-0.144,0.461,0.001l5.182,7.099c0.049,0.051,0.078,0.116,0.078,0.19C11.607,9.878,11.48,10.001,11.325,10.001
	 M1.458,9.451h9.315L6.117,3.069L1.458,9.451z"/>
<path d="M11.322,10.001H0.911c-0.155,0-0.282-0.123-0.282-0.275V3.848c0-0.09,0.045-0.174,0.122-0.227
	c0.076-0.052,0.174-0.063,0.261-0.029l10.41,3.854c0.109,0.041,0.182,0.144,0.182,0.257v2.022
	C11.604,9.878,11.479,10.001,11.322,10.001 M1.194,9.451h9.845V7.893L1.194,4.246V9.451z"/>
<path d="M11.322,10.001H0.911c-0.155,0-0.282-0.123-0.282-0.275V7.703c0-0.113,0.072-0.216,0.182-0.257l10.41-3.854
	c0.087-0.033,0.184-0.022,0.262,0.029c0.076,0.053,0.121,0.137,0.121,0.227v5.878C11.604,9.878,11.479,10.001,11.322,10.001
	 M1.194,9.451h9.845V4.246L1.194,7.893V9.451z"/>
<path d="M6.091,1.69c-0.479,0-0.868-0.379-0.868-0.846C5.223,0.379,5.612,0,6.091,0S6.96,0.379,6.96,0.845
	C6.96,1.312,6.57,1.69,6.091,1.69 M6.091,0.55c-0.167,0-0.303,0.134-0.303,0.295c0,0.163,0.136,0.296,0.303,0.296
	s0.304-0.133,0.304-0.296C6.395,0.684,6.258,0.55,6.091,0.55"/>
<path d="M0.802,2.992c-0.392,0-0.711-0.311-0.711-0.691S0.41,1.608,0.802,1.608c0.393,0,0.711,0.312,0.711,0.692
	S1.195,2.992,0.802,2.992 M0.802,2.157c-0.081,0-0.146,0.064-0.146,0.144s0.065,0.142,0.146,0.142S0.948,2.38,0.948,2.301
	S0.883,2.157,0.802,2.157"/>
<path d="M11.379,2.992c-0.392,0-0.711-0.311-0.711-0.691s0.319-0.692,0.711-0.692c0.394,0,0.711,0.312,0.711,0.692
	S11.772,2.992,11.379,2.992 M11.379,2.157c-0.08,0-0.146,0.064-0.146,0.144s0.065,0.142,0.146,0.142
	c0.082,0,0.146-0.063,0.146-0.142S11.461,2.157,11.379,2.157"/>
</svg>
