<?xml version="1.0" encoding="utf-8"?>
<!-- Generator: Adobe Illustrator 16.0.0, SVG Export Plug-In . SVG Version: 6.00 Build 0)  -->
<!DOCTYPE svg PUBLIC "-//W3C//DTD SVG 1.1//EN" "http://www.w3.org/Graphics/SVG/1.1/DTD/svg11.dtd">
<svg version="1.1" id="图层_1" xmlns="http://www.w3.org/2000/svg" xmlns:xlink="http://www.w3.org/1999/xlink" x="0px" y="0px"
	 width="12.001px" height="9px" viewBox="0 0 12.001 9" enable-background="new 0 0 12.001 9" xml:space="preserve">
<path d="M11.69,7.664H0.309C0.139,7.664,0,7.516,0,7.33V1.635c0-0.114,0.054-0.22,0.141-0.281C0.23,1.292,0.34,1.283,0.436,1.329
	l2.96,1.441l2.382-2.668C5.836,0.037,5.917,0,6,0c0.084,0,0.164,0.037,0.222,0.103l2.382,2.668l2.961-1.441
	c0.094-0.046,0.205-0.037,0.293,0.024s0.141,0.167,0.141,0.281V7.33C11.999,7.516,11.862,7.664,11.69,7.664 M0.618,6.996h10.766
	V2.15L8.659,3.476C8.54,3.534,8.401,3.506,8.312,3.403L6,0.815L3.689,3.403c-0.09,0.103-0.23,0.131-0.348,0.072L0.618,2.15V6.996z"
	/>
<path d="M11.69,9H0.31C0.139,9,0,8.852,0,8.666V7.544C0,7.359,0.139,7.21,0.31,7.21s0.309,0.149,0.309,0.334v0.788h10.763V7.544
	c0-0.185,0.139-0.334,0.309-0.334c0.172,0,0.311,0.149,0.311,0.334v1.122C12.001,8.852,11.862,9,11.69,9"/>
<path d="M6,6.27c-0.029,0-0.058-0.003-0.085-0.012C5.229,6.043,4.749,5.354,4.749,4.581c0-0.772,0.48-1.462,1.167-1.675
	c0.055-0.017,0.114-0.017,0.17,0c0.687,0.213,1.167,0.902,1.167,1.675c0,0.773-0.48,1.462-1.167,1.677
	C6.058,6.267,6.029,6.27,6,6.27 M6,3.579c-0.378,0.159-0.635,0.56-0.635,1.002c0,0.444,0.257,0.845,0.635,1.002
	c0.378-0.157,0.635-0.558,0.635-1.002C6.635,4.139,6.378,3.738,6,3.579"/>
</svg>
