<?xml version="1.0" encoding="iso-8859-1"?>
<!-- Generator: Adobe Illustrator 22.0.0, SVG Export Plug-In . SVG Version: 6.00 Build 0)  -->
<svg version="1.1" id="&#x56FE;&#x5C42;_1" xmlns="http://www.w3.org/2000/svg" xmlns:xlink="http://www.w3.org/1999/xlink" x="0px"
	 y="0px" viewBox="0 0 16 16" style="enable-background:new 0 0 16 16;" xml:space="preserve">
<g>
	<g>
		<path d="M0.543,16C0.244,15.992,0,15.739,0,15.437s0.245-0.555,0.545-0.564h14.912C15.76,14.881,16,15.129,16,15.437
			c0,0.307-0.239,0.555-0.544,0.563H0.543z M8.033,0c0.159,0.001,0.585,0.174,0.676,0.266l5.507,5.535
			c0.205,0.221,0.199,0.565-0.016,0.781c-0.107,0.107-0.247,0.165-0.396,0.165c-0.144,0-0.279-0.054-0.383-0.152L8.528,1.677
			L8.449,12.38c-0.011,0.301-0.258,0.538-0.56,0.538c-0.303,0-0.55-0.238-0.561-0.542V1.837l-4.847,4.76
			C2.375,6.704,2.234,6.763,2.084,6.763S1.792,6.704,1.687,6.598C1.581,6.492,1.523,6.349,1.523,6.199
			c0.001-0.15,0.059-0.292,0.166-0.397l5.507-5.536c0.09-0.09,0.508-0.261,0.683-0.264l0.038,0.006l0.023,0.014L8.033,0z"/>
	</g>
</g>
</svg>
