<?xml version="1.0" encoding="utf-8"?>
<!-- Generator: Adobe Illustrator 16.0.0, SVG Export Plug-In . SVG Version: 6.00 Build 0)  -->
<!DOCTYPE svg PUBLIC "-//W3C//DTD SVG 1.1//EN" "http://www.w3.org/Graphics/SVG/1.1/DTD/svg11.dtd">
<svg version="1.1" id="图层_1" xmlns="http://www.w3.org/2000/svg" xmlns:xlink="http://www.w3.org/1999/xlink" x="0px" y="0px"
	 width="40.77px" height="39.599px" viewBox="0 0 40.77 39.599" enable-background="new 0 0 40.77 39.599" xml:space="preserve">
<path d="M29.062,39.599c-1.788,0-3.243-1.453-3.243-3.242V11.643L7.595,15.451c-0.222,0.049-0.463,0.353-0.463,0.583v19.908
	c0,1.781-1.448,3.23-3.229,3.23H1.515C0.68,39.173,0,38.494,0,37.659c0-0.836,0.68-1.516,1.515-1.516h2.587V16.036
	c0-1.655,1.262-3.213,2.873-3.55l4.846-1.013v-4.01c0-1.657,1.263-3.217,2.875-3.554l18.379-3.843C33.288,0.022,33.504,0,33.716,0
	c1.6,0,2.853,1.274,2.853,2.902v33.667h2.687c0.835,0,1.515,0.68,1.515,1.515s-0.68,1.515-1.515,1.515H29.062z M11.549,35.524
	c-0.176,0-0.35-0.047-0.5-0.135c-0.23-0.134-0.395-0.349-0.463-0.606c-0.07-0.257-0.034-0.532,0.097-0.761
	c0.131-0.228,0.352-0.396,0.605-0.465l8.874-2.378c0.085-0.021,0.172-0.034,0.259-0.034c0.449,0,0.845,0.307,0.963,0.742
	c0.07,0.256,0.035,0.531-0.096,0.76c-0.134,0.23-0.349,0.396-0.606,0.465l-8.876,2.379C11.722,35.513,11.636,35.524,11.549,35.524
	 M11.549,29.795c-0.176,0-0.35-0.046-0.5-0.134c-0.23-0.135-0.395-0.35-0.463-0.608c-0.071-0.26-0.036-0.53,0.097-0.761
	c0.131-0.229,0.352-0.398,0.605-0.465l8.874-2.379c0.085-0.022,0.172-0.033,0.259-0.033c0.449,0,0.845,0.305,0.963,0.744
	c0.069,0.254,0.034,0.529-0.097,0.758s-0.352,0.398-0.604,0.464l-8.877,2.38C11.722,29.784,11.636,29.795,11.549,29.795
	 M11.549,24.063c-0.176,0-0.35-0.047-0.5-0.135c-0.23-0.134-0.395-0.349-0.463-0.607c-0.071-0.26-0.037-0.528,0.096-0.76
	s0.348-0.397,0.606-0.467l8.874-2.377c0.086-0.023,0.173-0.035,0.26-0.035c0.448,0,0.844,0.307,0.962,0.744
	c0.07,0.256,0.035,0.533-0.096,0.76c-0.132,0.229-0.353,0.398-0.606,0.465l-8.876,2.379C11.722,24.052,11.636,24.063,11.549,24.063"
	/>
</svg>
