<?xml version="1.0" encoding="utf-8"?>
<!-- Generator: Adobe Illustrator 16.0.0, SVG Export Plug-In . SVG Version: 6.00 Build 0)  -->
<!DOCTYPE svg PUBLIC "-//W3C//DTD SVG 1.1//EN" "http://www.w3.org/Graphics/SVG/1.1/DTD/svg11.dtd">
<svg version="1.1" id="图层_1" xmlns="http://www.w3.org/2000/svg" xmlns:xlink="http://www.w3.org/1999/xlink" x="0px" y="0px"
	 width="39.998px" height="39.999px" viewBox="2.906 2.088 39.998 39.999" enable-background="new 2.906 2.088 39.998 39.999"
	 xml:space="preserve">
<path d="M36.752,11.319H9.06c-1.632,0-3.196,0.648-4.352,1.802c-1.153,1.154-1.802,2.719-1.802,4.351v18.461
	c0,3.397,2.755,6.153,6.153,6.153h27.692c3.397,0,6.153-2.756,6.153-6.153V17.472C42.906,14.073,40.15,11.319,36.752,11.319
	 M9.06,14.396h27.692c1.699,0,3.077,1.378,3.077,3.077v4.616H30.6V20.55c0-0.85-0.69-1.538-1.539-1.538
	c-0.851,0-1.539,0.688-1.539,1.538v1.539h-9.229V20.55c0-0.85-0.689-1.538-1.539-1.538s-1.538,0.688-1.538,1.538v1.539H5.982v-4.616
	C5.982,15.773,7.36,14.396,9.06,14.396 M36.752,39.012H9.06c-1.699,0-3.077-1.379-3.077-3.078V25.165h9.231v1.538
	c0,0.85,0.688,1.538,1.538,1.538s1.539-0.688,1.539-1.538v-1.538h9.23v1.538c0,0.85,0.688,1.538,1.537,1.538
	s1.539-0.688,1.539-1.538v-1.538h9.23v10.769C39.829,37.633,38.451,39.012,36.752,39.012 M13.675,9.78
	c0.85,0,1.539-0.689,1.539-1.539c0-1.699,1.377-3.076,3.077-3.076h9.23c1.699,0,3.076,1.377,3.076,3.076
	c0,0.85,0.688,1.539,1.539,1.539c0.85,0,1.537-0.689,1.537-1.539c0-3.398-2.755-6.153-6.152-6.153h-9.23
	c-1.633,0-3.198,0.648-4.352,1.802c-1.154,1.154-1.803,2.72-1.803,4.351c0,0.409,0.162,0.8,0.45,1.088
	C12.876,9.618,13.268,9.78,13.675,9.78"/>
</svg>
