<?xml version="1.0" encoding="utf-8"?>
<!-- Generator: Adobe Illustrator 16.0.0, SVG Export Plug-In . SVG Version: 6.00 Build 0)  -->
<!DOCTYPE svg PUBLIC "-//W3C//DTD SVG 1.1//EN" "http://www.w3.org/Graphics/SVG/1.1/DTD/svg11.dtd">
<svg version="1.1" id="图层_1" xmlns="http://www.w3.org/2000/svg" xmlns:xlink="http://www.w3.org/1999/xlink" x="0px" y="0px"
	 width="39.998px" height="40px" viewBox="2.906 2.076 39.998 40" enable-background="new 2.906 2.076 39.998 40"
	 xml:space="preserve">
<path d="M13.675,9.768c0.85,0,1.539-0.689,1.539-1.539c0-1.699,1.377-3.076,3.077-3.076h9.23c1.699,0,3.076,1.377,3.076,3.076
	c0,0.85,0.688,1.539,1.539,1.539c0.85,0,1.537-0.689,1.537-1.539c0-3.398-2.755-6.153-6.152-6.153h-9.23
	c-1.633,0-3.198,0.648-4.352,1.802c-1.154,1.154-1.803,2.719-1.803,4.351c0,0.409,0.162,0.8,0.45,1.088
	C12.876,9.606,13.268,9.768,13.675,9.768"/>
<path d="M30.6,25.152v1.539c0,0.85-0.689,1.537-1.539,1.537c-0.851,0-1.539-0.688-1.539-1.537v-1.539h-9.229v1.539
	c0,0.85-0.689,1.537-1.539,1.537s-1.538-0.688-1.538-1.537v-1.539H2.906v10.77c0,3.398,2.756,6.154,6.153,6.154h27.692
	c3.397,0,6.153-2.756,6.153-6.154v-10.77H30.6z"/>
<path d="M15.214,22.076v-1.539c0-0.849,0.688-1.538,1.538-1.538s1.539,0.689,1.539,1.538v1.539h9.23v-1.539
	c0-0.849,0.688-1.538,1.537-1.538c0.851,0,1.539,0.689,1.539,1.538v1.539h12.309V17.46c0-3.399-2.756-6.154-6.154-6.154H9.06
	c-1.632,0-3.198,0.648-4.352,1.802c-1.153,1.154-1.802,2.719-1.802,4.352v4.615L15.214,22.076L15.214,22.076z"/>
</svg>
