<?xml version="1.0" encoding="utf-8"?>
<!-- Generator: Adobe Illustrator 16.0.0, SVG Export Plug-In . SVG Version: 6.00 Build 0)  -->
<!DOCTYPE svg PUBLIC "-//W3C//DTD SVG 1.1//EN" "http://www.w3.org/Graphics/SVG/1.1/DTD/svg11.dtd">
<svg version="1.1" id="图层_1" xmlns="http://www.w3.org/2000/svg" xmlns:xlink="http://www.w3.org/1999/xlink" x="0px" y="0px"
	 width="32.164px" height="40px" viewBox="0 0 32.164 40" enable-background="new 0 0 32.164 40" xml:space="preserve">
<path d="M32.164,16.081C32.164,7.193,24.971,0,16.082,0S0,7.193,0,16.081c0,6.784,4.211,12.573,10.117,14.913
	C8.421,31.695,6.9,32.69,5.556,33.919C3.217,36.081,4.737,40,7.953,40H24.27c3.216,0,4.736-3.919,2.397-6.081
	c-1.403-1.229-2.924-2.224-4.62-2.925C27.953,28.597,32.164,22.806,32.164,16.081 M24.971,35.613
	c0.585,0.526,0.467,1.112,0.352,1.287c-0.059,0.233-0.352,0.76-1.111,0.76H7.894c-0.7,0-0.993-0.526-1.109-0.76
	c-0.059-0.234-0.234-0.819,0.292-1.287c2.456-2.222,5.613-3.508,8.947-3.508C19.355,32.105,22.515,33.333,24.971,35.613
	 M16.082,27.485c-4.737,0-8.714-3.1-10.059-7.369h20.117C24.795,24.386,20.818,27.485,16.082,27.485"/>
</svg>
