<?xml version="1.0" encoding="utf-8"?>
<!-- Generator: Adobe Illustrator 16.0.0, SVG Export Plug-In . SVG Version: 6.00 Build 0)  -->
<!DOCTYPE svg PUBLIC "-//W3C//DTD SVG 1.1//EN" "http://www.w3.org/Graphics/SVG/1.1/DTD/svg11.dtd">
<svg version="1.1" id="图层_1" xmlns="http://www.w3.org/2000/svg" xmlns:xlink="http://www.w3.org/1999/xlink" x="0px" y="0px"
	 width="32.164px" height="40px" viewBox="0 0 32.164 40" enable-background="new 0 0 32.164 40" xml:space="preserve">
<path d="M26.141,20.116h-2.515c-1.229,2.983-4.152,5.029-7.544,5.029s-6.315-2.104-7.545-5.029H6.023
	c1.345,4.269,5.321,7.369,10.059,7.369C20.818,27.485,24.795,24.385,26.141,20.116"/>
<path d="M22.047,30.994c5.906-2.398,10.117-8.187,10.117-14.912C32.164,7.192,24.971,0,16.082,0S0,7.192,0,16.082
	c0,6.783,4.211,12.572,10.117,14.912C8.421,31.695,6.9,32.69,5.555,33.917C3.217,36.082,4.737,40,7.953,40H24.27
	c3.216,0,4.736-3.918,2.397-6.082C25.264,32.69,23.743,31.695,22.047,30.994 M2.339,16.082c0-7.603,6.141-13.743,13.743-13.743
	s13.742,6.14,13.742,13.743s-6.14,13.742-13.742,13.742S2.339,23.625,2.339,16.082 M25.321,36.9c-0.058,0.234-0.351,0.76-1.11,0.76
	H7.895c-0.701,0-0.994-0.525-1.11-0.76c-0.059-0.234-0.234-0.818,0.292-1.287c2.456-2.222,5.614-3.508,8.947-3.508
	s6.491,1.229,8.947,3.508C25.555,36.14,25.438,36.725,25.321,36.9"/>
</svg>
