<?xml version="1.0" encoding="utf-8"?>
<!-- Generator: Adobe Illustrator 22.1.0, SVG Export Plug-In . SVG Version: 6.00 Build 0)  -->
<svg version="1.1" id="图层_1" xmlns="http://www.w3.org/2000/svg" xmlns:xlink="http://www.w3.org/1999/xlink" x="0px" y="0px"
	 viewBox="0 0 16 16" style="enable-background:new 0 0 16 16;" xml:space="preserve">
<g>
	<g>
		<path d="M3.8,11.1c3.1,3.7,7,5.4,9.2,4.8c1.1-0.3,1.7-0.7,2.1-1.2c0.5-0.8,0.3-1.7-0.6-2.8c-1.3-1.6-2.2-1.8-3.4-1.1
			c-0.1,0.1-0.2,0.1-0.3,0.2c0,0-0.2,0.2-0.3,0.2c-0.1,0-0.1,0.1-0.2,0.1c-0.4,0.2-0.5,0.3-0.6,0.3C9.5,11.6,9,11.2,7.1,9.3
			C4.8,6.9,4.7,6.6,5.3,6c0.1-0.1,0.2-0.2,0.5-0.5c1.3-1.2,1.5-2.4,0.2-4C5,0.3,4.1-0.2,3.2,0.1C2.6,0.2,2.1,0.6,1.3,1.5
			C-0.2,3.2,0.6,7.4,3.8,11.1L3.8,11.1z M3.5,1c0.5-0.1,1,0.1,1.7,1c1,1.2,0.9,1.8-0.1,2.7C4.8,5,4.7,5.2,4.6,5.3
			C3.5,6.5,3.8,7.2,6.4,10c2.2,2.3,2.8,2.7,3.7,2.5c0.2-0.1,0.4-0.1,0.8-0.4c0.1,0,0.1-0.1,0.2-0.1c0.1,0,0.3-0.2,0.3-0.2
			c0.1-0.1,0.2-0.1,0.3-0.2c0.7-0.4,1.1-0.3,2.1,0.9c0.7,0.8,0.8,1.3,0.6,1.6c-0.2,0.3-0.7,0.6-1.6,0.8c-1.8,0.5-5.3-1.1-8.2-4.5
			c-2.9-3.4-3.6-7-2.5-8.3C2.7,1.4,3.1,1.1,3.5,1L3.5,1z"/>
	</g>
</g>
</svg>
