<?xml version="1.0" encoding="utf-8"?>
<!-- Generator: Adobe Illustrator 16.0.0, SVG Export Plug-In . SVG Version: 6.00 Build 0)  -->
<!DOCTYPE svg PUBLIC "-//W3C//DTD SVG 1.1//EN" "http://www.w3.org/Graphics/SVG/1.1/DTD/svg11.dtd">
<svg version="1.1" id="图层_1" xmlns="http://www.w3.org/2000/svg" xmlns:xlink="http://www.w3.org/1999/xlink" x="0px" y="0px"
	 width="44.606px" height="46px" viewBox="0 0 44.606 46" enable-background="new 0 0 44.606 46" xml:space="preserve">
<path d="M8.78,32.556c8.55,10.065,19.231,14.889,25.274,13.065c2.958-0.892,4.732-1.789,5.757-3.304
	c1.396-2.065,0.814-4.643-1.677-7.713c-3.456-4.259-6.053-4.959-9.185-3.145c-0.26,0.15-0.521,0.314-0.865,0.537
	c0.012-0.008-0.646,0.421-0.833,0.54c-0.144,0.092-0.288,0.182-0.434,0.271c-1.009,0.611-1.283,0.76-1.602,0.857
	c-0.913,0.277-2.206-0.688-7.413-6.092c-6.289-6.525-6.567-7.234-4.961-9.053c0.275-0.312,0.607-0.633,1.435-1.415
	c3.482-3.365,4.12-6.479,0.413-11.031c-2.551-3.13-4.992-4.332-7.449-3.705c-1.793,0.458-3.035,1.53-5.232,4.022
	C-2.128,11.086,0.124,22.366,8.78,32.556 M7.889,4.973c1.296-0.33,2.782,0.402,4.744,2.81c2.702,3.317,2.378,4.896-0.194,7.383
	c-0.803,0.756-1.224,1.163-1.582,1.568c-2.909,3.293-2.127,5.28,5.037,12.714c6.153,6.385,7.674,7.521,10.084,6.789
	c0.624-0.189,0.966-0.375,2.206-1.127c0.164-0.1,0.326-0.2,0.487-0.304c0.2-0.128,0.869-0.563,0.848-0.551
	c0.311-0.201,0.537-0.342,0.753-0.467c1.917-1.111,3.119-0.787,5.803,2.52c1.827,2.253,2.135,3.615,1.539,4.497
	c-0.561,0.829-1.931,1.521-4.316,2.241c-4.877,1.471-14.563-2.901-22.496-12.242C2.907,21.512,0.937,11.646,3.995,8.176
	C5.825,6.1,6.811,5.25,7.889,4.973 M25.882,8.024c-0.731-0.075-1.385,0.462-1.461,1.2c-0.075,0.738,0.456,1.397,1.187,1.472
	c5.116,0.527,8.834,5.141,8.304,10.307c-0.075,0.738,0.456,1.397,1.187,1.472c0.73,0.075,1.385-0.462,1.46-1.2
	C37.239,14.633,32.459,8.7,25.882,8.024"/>
<path d="M26.705,0.007c-0.731-0.075-1.385,0.462-1.461,1.2C25.168,1.945,25.7,2.605,26.43,2.68
	c9.501,0.976,16.405,9.546,15.422,19.139c-0.076,0.739,0.455,1.398,1.186,1.473c0.73,0.075,1.385-0.462,1.461-1.2
	C45.633,11.022,37.667,1.134,26.705,0.007"/>
</svg>
